%TF.GenerationSoftware,KiCad,Pcbnew,7.0.10-7.0.10~ubuntu22.04.1*%
%TF.CreationDate,2024-03-28T15:08:32-05:00*%
%TF.ProjectId,IIoT_Sensor,49496f54-5f53-4656-9e73-6f722e6b6963,1.0*%
%TF.SameCoordinates,Original*%
%TF.FileFunction,Soldermask,Top*%
%TF.FilePolarity,Negative*%
%FSLAX46Y46*%
G04 Gerber Fmt 4.6, Leading zero omitted, Abs format (unit mm)*
G04 Created by KiCad (PCBNEW 7.0.10-7.0.10~ubuntu22.04.1) date 2024-03-28 15:08:32*
%MOMM*%
%LPD*%
G01*
G04 APERTURE LIST*
G04 Aperture macros list*
%AMRoundRect*
0 Rectangle with rounded corners*
0 $1 Rounding radius*
0 $2 $3 $4 $5 $6 $7 $8 $9 X,Y pos of 4 corners*
0 Add a 4 corners polygon primitive as box body*
4,1,4,$2,$3,$4,$5,$6,$7,$8,$9,$2,$3,0*
0 Add four circle primitives for the rounded corners*
1,1,$1+$1,$2,$3*
1,1,$1+$1,$4,$5*
1,1,$1+$1,$6,$7*
1,1,$1+$1,$8,$9*
0 Add four rect primitives between the rounded corners*
20,1,$1+$1,$2,$3,$4,$5,0*
20,1,$1+$1,$4,$5,$6,$7,0*
20,1,$1+$1,$6,$7,$8,$9,0*
20,1,$1+$1,$8,$9,$2,$3,0*%
G04 Aperture macros list end*
%ADD10C,3.901600*%
%ADD11RoundRect,0.274780X0.476020X-0.288520X0.476020X0.288520X-0.476020X0.288520X-0.476020X-0.288520X0*%
%ADD12RoundRect,0.274780X-0.288520X-0.476020X0.288520X-0.476020X0.288520X0.476020X-0.288520X0.476020X0*%
%ADD13RoundRect,0.050800X0.325000X0.950000X-0.325000X0.950000X-0.325000X-0.950000X0.325000X-0.950000X0*%
%ADD14RoundRect,0.274780X-0.476020X0.288520X-0.476020X-0.288520X0.476020X-0.288520X0.476020X0.288520X0*%
%ADD15RoundRect,0.102000X-0.975000X-0.975000X0.975000X-0.975000X0.975000X0.975000X-0.975000X0.975000X0*%
%ADD16C,2.154000*%
%ADD17RoundRect,0.274780X0.288520X0.476020X-0.288520X0.476020X-0.288520X-0.476020X0.288520X-0.476020X0*%
%ADD18RoundRect,0.050800X0.850000X-0.850000X0.850000X0.850000X-0.850000X0.850000X-0.850000X-0.850000X0*%
%ADD19O,1.801600X1.801600*%
%ADD20RoundRect,0.050800X0.750000X0.850000X-0.750000X0.850000X-0.750000X-0.850000X0.750000X-0.850000X0*%
G04 APERTURE END LIST*
D10*
%TO.C,*%
X174752000Y-112268000D03*
%TD*%
D11*
%TO.C,R3*%
X170180000Y-93265000D03*
X170180000Y-91440000D03*
%TD*%
D12*
%TO.C,C8*%
X159465000Y-86995000D03*
X161290000Y-86995000D03*
%TD*%
%TO.C,C5*%
X159465000Y-92710000D03*
X161290000Y-92710000D03*
%TD*%
%TO.C,C6*%
X159465000Y-90805000D03*
X161290000Y-90805000D03*
%TD*%
D13*
%TO.C,IC1*%
X156210000Y-84100000D03*
X157480000Y-84100000D03*
X158750000Y-84100000D03*
X160020000Y-84100000D03*
X161290000Y-84100000D03*
X162560000Y-84100000D03*
X163830000Y-84100000D03*
X165100000Y-84100000D03*
X166370000Y-84100000D03*
X167640000Y-84100000D03*
X167640000Y-74650000D03*
X166370000Y-74650000D03*
X165100000Y-74650000D03*
X163830000Y-74650000D03*
X162560000Y-74650000D03*
X161290000Y-74650000D03*
X160020000Y-74650000D03*
X158750000Y-74650000D03*
X157480000Y-74650000D03*
X156210000Y-74650000D03*
%TD*%
D14*
%TO.C,D1*%
X174244000Y-62230000D03*
X174244000Y-64055000D03*
%TD*%
D15*
%TO.C,J4*%
X163830000Y-106122500D03*
D16*
X168830000Y-106122500D03*
%TD*%
D14*
%TO.C,R10*%
X165100000Y-62230000D03*
X165100000Y-64055000D03*
%TD*%
D17*
%TO.C,C10*%
X166925000Y-87630000D03*
X165100000Y-87630000D03*
%TD*%
D11*
%TO.C,R11*%
X161290000Y-64055000D03*
X161290000Y-62230000D03*
%TD*%
D10*
%TO.C,*%
X174752000Y-53848000D03*
%TD*%
D15*
%TO.C,J5*%
X152948000Y-106122500D03*
D16*
X157948000Y-106122500D03*
%TD*%
D11*
%TO.C,FB2*%
X155448000Y-92757000D03*
X155448000Y-90932000D03*
%TD*%
%TO.C,R6*%
X167005000Y-93265000D03*
X167005000Y-91440000D03*
%TD*%
D12*
%TO.C,C7*%
X159465000Y-88900000D03*
X161290000Y-88900000D03*
%TD*%
%TO.C,C3*%
X153519500Y-88900000D03*
X155344500Y-88900000D03*
%TD*%
D14*
%TO.C,C11*%
X162560000Y-69215000D03*
X162560000Y-71040000D03*
%TD*%
D12*
%TO.C,R12*%
X149860000Y-62420363D03*
X151685000Y-62420363D03*
%TD*%
D10*
%TO.C,*%
X147320000Y-112268000D03*
%TD*%
%TO.C,REF\u002A\u002A*%
X147320000Y-53848000D03*
%TD*%
D18*
%TO.C,J1*%
X152400000Y-58420000D03*
D19*
X154940000Y-58420000D03*
X157480000Y-58420000D03*
X160020000Y-58420000D03*
X162560000Y-58420000D03*
X165100000Y-58420000D03*
X167640000Y-58420000D03*
X170180000Y-58420000D03*
%TD*%
D12*
%TO.C,C9*%
X168632500Y-87630000D03*
X170457500Y-87630000D03*
%TD*%
D11*
%TO.C,R5*%
X165100000Y-93265000D03*
X165100000Y-91440000D03*
%TD*%
D12*
%TO.C,C12*%
X149860000Y-72390000D03*
X151685000Y-72390000D03*
%TD*%
%TO.C,C2*%
X162917500Y-67310000D03*
X164742500Y-67310000D03*
%TD*%
D14*
%TO.C,R1*%
X168910000Y-62230000D03*
X168910000Y-64055000D03*
%TD*%
D17*
%TO.C,R7*%
X166965000Y-95250000D03*
X165140000Y-95250000D03*
%TD*%
D11*
%TO.C,FB1*%
X153416000Y-92757000D03*
X153416000Y-90932000D03*
%TD*%
D17*
%TO.C,R8*%
X161210000Y-98044000D03*
X159385000Y-98044000D03*
%TD*%
D11*
%TO.C,R2*%
X172085000Y-93265000D03*
X172085000Y-91440000D03*
%TD*%
%TO.C,C1*%
X165100000Y-71040000D03*
X165100000Y-69215000D03*
%TD*%
D12*
%TO.C,C4*%
X153519500Y-86995000D03*
X155344500Y-86995000D03*
%TD*%
%TO.C,R13*%
X172419000Y-66548000D03*
X174244000Y-66548000D03*
%TD*%
D20*
%TO.C,Y1*%
X152060000Y-68580000D03*
X152060000Y-66040000D03*
X149860000Y-66040000D03*
X149860000Y-68580000D03*
%TD*%
D14*
%TO.C,R9*%
X156210000Y-62230000D03*
X156210000Y-64055000D03*
%TD*%
D17*
%TO.C,R4*%
X172085000Y-95250000D03*
X170260000Y-95250000D03*
%TD*%
M02*
