%TF.GenerationSoftware,KiCad,Pcbnew,7.0.10-7.0.10~ubuntu22.04.1*%
%TF.CreationDate,2024-03-28T15:08:32-05:00*%
%TF.ProjectId,IIoT_Sensor,49496f54-5f53-4656-9e73-6f722e6b6963,1.0*%
%TF.SameCoordinates,Original*%
%TF.FileFunction,Legend,Top*%
%TF.FilePolarity,Positive*%
%FSLAX46Y46*%
G04 Gerber Fmt 4.6, Leading zero omitted, Abs format (unit mm)*
G04 Created by KiCad (PCBNEW 7.0.10-7.0.10~ubuntu22.04.1) date 2024-03-28 15:08:32*
%MOMM*%
%LPD*%
G01*
G04 APERTURE LIST*
%ADD10C,0.150000*%
%ADD11C,0.254000*%
%ADD12C,0.120000*%
%ADD13C,0.200000*%
%ADD14C,0.127000*%
%ADD15C,0.010000*%
%ADD16C,0.100000*%
G04 APERTURE END LIST*
D10*
X175260000Y-61468000D02*
X174752000Y-61468000D01*
X175260000Y-61976000D02*
X175260000Y-61468000D01*
X155575000Y-77216000D02*
X144780000Y-77216000D01*
X168275000Y-77216000D02*
X177165000Y-77216000D01*
X144780000Y-81280000D02*
X155575000Y-81280000D01*
X168275000Y-81280000D02*
X177165000Y-81280000D01*
X162534667Y-113136533D02*
X163601334Y-113136533D01*
X163068000Y-113669866D02*
X163068000Y-112603200D01*
X168348819Y-56305220D02*
X167348819Y-56305220D01*
X167348819Y-56305220D02*
X168063104Y-55971887D01*
X168063104Y-55971887D02*
X167348819Y-55638554D01*
X167348819Y-55638554D02*
X168348819Y-55638554D01*
X168348819Y-55162363D02*
X167348819Y-55162363D01*
X168301200Y-54733792D02*
X168348819Y-54590935D01*
X168348819Y-54590935D02*
X168348819Y-54352840D01*
X168348819Y-54352840D02*
X168301200Y-54257602D01*
X168301200Y-54257602D02*
X168253580Y-54209983D01*
X168253580Y-54209983D02*
X168158342Y-54162364D01*
X168158342Y-54162364D02*
X168063104Y-54162364D01*
X168063104Y-54162364D02*
X167967866Y-54209983D01*
X167967866Y-54209983D02*
X167920247Y-54257602D01*
X167920247Y-54257602D02*
X167872628Y-54352840D01*
X167872628Y-54352840D02*
X167825009Y-54543316D01*
X167825009Y-54543316D02*
X167777390Y-54638554D01*
X167777390Y-54638554D02*
X167729771Y-54686173D01*
X167729771Y-54686173D02*
X167634533Y-54733792D01*
X167634533Y-54733792D02*
X167539295Y-54733792D01*
X167539295Y-54733792D02*
X167444057Y-54686173D01*
X167444057Y-54686173D02*
X167396438Y-54638554D01*
X167396438Y-54638554D02*
X167348819Y-54543316D01*
X167348819Y-54543316D02*
X167348819Y-54305221D01*
X167348819Y-54305221D02*
X167396438Y-54162364D01*
X167348819Y-53543316D02*
X167348819Y-53352840D01*
X167348819Y-53352840D02*
X167396438Y-53257602D01*
X167396438Y-53257602D02*
X167491676Y-53162364D01*
X167491676Y-53162364D02*
X167682152Y-53114745D01*
X167682152Y-53114745D02*
X168015485Y-53114745D01*
X168015485Y-53114745D02*
X168205961Y-53162364D01*
X168205961Y-53162364D02*
X168301200Y-53257602D01*
X168301200Y-53257602D02*
X168348819Y-53352840D01*
X168348819Y-53352840D02*
X168348819Y-53543316D01*
X168348819Y-53543316D02*
X168301200Y-53638554D01*
X168301200Y-53638554D02*
X168205961Y-53733792D01*
X168205961Y-53733792D02*
X168015485Y-53781411D01*
X168015485Y-53781411D02*
X167682152Y-53781411D01*
X167682152Y-53781411D02*
X167491676Y-53733792D01*
X167491676Y-53733792D02*
X167396438Y-53638554D01*
X167396438Y-53638554D02*
X167348819Y-53543316D01*
X147021779Y-79625819D02*
X147021779Y-78625819D01*
X147450350Y-79578200D02*
X147545588Y-79625819D01*
X147545588Y-79625819D02*
X147736064Y-79625819D01*
X147736064Y-79625819D02*
X147831302Y-79578200D01*
X147831302Y-79578200D02*
X147878921Y-79482961D01*
X147878921Y-79482961D02*
X147878921Y-79435342D01*
X147878921Y-79435342D02*
X147831302Y-79340104D01*
X147831302Y-79340104D02*
X147736064Y-79292485D01*
X147736064Y-79292485D02*
X147593207Y-79292485D01*
X147593207Y-79292485D02*
X147497969Y-79244866D01*
X147497969Y-79244866D02*
X147450350Y-79149628D01*
X147450350Y-79149628D02*
X147450350Y-79102009D01*
X147450350Y-79102009D02*
X147497969Y-79006771D01*
X147497969Y-79006771D02*
X147593207Y-78959152D01*
X147593207Y-78959152D02*
X147736064Y-78959152D01*
X147736064Y-78959152D02*
X147831302Y-79006771D01*
X148450350Y-79625819D02*
X148355112Y-79578200D01*
X148355112Y-79578200D02*
X148307493Y-79530580D01*
X148307493Y-79530580D02*
X148259874Y-79435342D01*
X148259874Y-79435342D02*
X148259874Y-79149628D01*
X148259874Y-79149628D02*
X148307493Y-79054390D01*
X148307493Y-79054390D02*
X148355112Y-79006771D01*
X148355112Y-79006771D02*
X148450350Y-78959152D01*
X148450350Y-78959152D02*
X148593207Y-78959152D01*
X148593207Y-78959152D02*
X148688445Y-79006771D01*
X148688445Y-79006771D02*
X148736064Y-79054390D01*
X148736064Y-79054390D02*
X148783683Y-79149628D01*
X148783683Y-79149628D02*
X148783683Y-79435342D01*
X148783683Y-79435342D02*
X148736064Y-79530580D01*
X148736064Y-79530580D02*
X148688445Y-79578200D01*
X148688445Y-79578200D02*
X148593207Y-79625819D01*
X148593207Y-79625819D02*
X148450350Y-79625819D01*
X149355112Y-79625819D02*
X149259874Y-79578200D01*
X149259874Y-79578200D02*
X149212255Y-79482961D01*
X149212255Y-79482961D02*
X149212255Y-78625819D01*
X150164636Y-79625819D02*
X150164636Y-79102009D01*
X150164636Y-79102009D02*
X150117017Y-79006771D01*
X150117017Y-79006771D02*
X150021779Y-78959152D01*
X150021779Y-78959152D02*
X149831303Y-78959152D01*
X149831303Y-78959152D02*
X149736065Y-79006771D01*
X150164636Y-79578200D02*
X150069398Y-79625819D01*
X150069398Y-79625819D02*
X149831303Y-79625819D01*
X149831303Y-79625819D02*
X149736065Y-79578200D01*
X149736065Y-79578200D02*
X149688446Y-79482961D01*
X149688446Y-79482961D02*
X149688446Y-79387723D01*
X149688446Y-79387723D02*
X149736065Y-79292485D01*
X149736065Y-79292485D02*
X149831303Y-79244866D01*
X149831303Y-79244866D02*
X150069398Y-79244866D01*
X150069398Y-79244866D02*
X150164636Y-79197247D01*
X150497970Y-78959152D02*
X150878922Y-78959152D01*
X150640827Y-78625819D02*
X150640827Y-79482961D01*
X150640827Y-79482961D02*
X150688446Y-79578200D01*
X150688446Y-79578200D02*
X150783684Y-79625819D01*
X150783684Y-79625819D02*
X150878922Y-79625819D01*
X151212256Y-79625819D02*
X151212256Y-78959152D01*
X151212256Y-78625819D02*
X151164637Y-78673438D01*
X151164637Y-78673438D02*
X151212256Y-78721057D01*
X151212256Y-78721057D02*
X151259875Y-78673438D01*
X151259875Y-78673438D02*
X151212256Y-78625819D01*
X151212256Y-78625819D02*
X151212256Y-78721057D01*
X151831303Y-79625819D02*
X151736065Y-79578200D01*
X151736065Y-79578200D02*
X151688446Y-79530580D01*
X151688446Y-79530580D02*
X151640827Y-79435342D01*
X151640827Y-79435342D02*
X151640827Y-79149628D01*
X151640827Y-79149628D02*
X151688446Y-79054390D01*
X151688446Y-79054390D02*
X151736065Y-79006771D01*
X151736065Y-79006771D02*
X151831303Y-78959152D01*
X151831303Y-78959152D02*
X151974160Y-78959152D01*
X151974160Y-78959152D02*
X152069398Y-79006771D01*
X152069398Y-79006771D02*
X152117017Y-79054390D01*
X152117017Y-79054390D02*
X152164636Y-79149628D01*
X152164636Y-79149628D02*
X152164636Y-79435342D01*
X152164636Y-79435342D02*
X152117017Y-79530580D01*
X152117017Y-79530580D02*
X152069398Y-79578200D01*
X152069398Y-79578200D02*
X151974160Y-79625819D01*
X151974160Y-79625819D02*
X151831303Y-79625819D01*
X152593208Y-78959152D02*
X152593208Y-79625819D01*
X152593208Y-79054390D02*
X152640827Y-79006771D01*
X152640827Y-79006771D02*
X152736065Y-78959152D01*
X152736065Y-78959152D02*
X152878922Y-78959152D01*
X152878922Y-78959152D02*
X152974160Y-79006771D01*
X152974160Y-79006771D02*
X153021779Y-79102009D01*
X153021779Y-79102009D02*
X153021779Y-79625819D01*
X164808819Y-56194077D02*
X165808819Y-55860744D01*
X165808819Y-55860744D02*
X164808819Y-55527411D01*
X165808819Y-55194077D02*
X164808819Y-55194077D01*
X165808819Y-54717887D02*
X164808819Y-54717887D01*
X164808819Y-54717887D02*
X165808819Y-54146459D01*
X165808819Y-54146459D02*
X164808819Y-54146459D01*
X148564791Y-67861967D02*
X148612411Y-67909586D01*
X148612411Y-67909586D02*
X148660030Y-68052443D01*
X148660030Y-68052443D02*
X148660030Y-68147681D01*
X148660030Y-68147681D02*
X148612411Y-68290538D01*
X148612411Y-68290538D02*
X148517172Y-68385776D01*
X148517172Y-68385776D02*
X148421934Y-68433395D01*
X148421934Y-68433395D02*
X148231458Y-68481014D01*
X148231458Y-68481014D02*
X148088601Y-68481014D01*
X148088601Y-68481014D02*
X147898125Y-68433395D01*
X147898125Y-68433395D02*
X147802887Y-68385776D01*
X147802887Y-68385776D02*
X147707649Y-68290538D01*
X147707649Y-68290538D02*
X147660030Y-68147681D01*
X147660030Y-68147681D02*
X147660030Y-68052443D01*
X147660030Y-68052443D02*
X147707649Y-67909586D01*
X147707649Y-67909586D02*
X147755268Y-67861967D01*
X148660030Y-66957205D02*
X148660030Y-67433395D01*
X148660030Y-67433395D02*
X147660030Y-67433395D01*
X148660030Y-66623871D02*
X147660030Y-66623871D01*
X148660030Y-66052443D02*
X148088601Y-66481014D01*
X147660030Y-66052443D02*
X148231458Y-66623871D01*
X157962667Y-113136533D02*
X159029334Y-113136533D01*
X170888819Y-55606792D02*
X170412628Y-55940125D01*
X170888819Y-56178220D02*
X169888819Y-56178220D01*
X169888819Y-56178220D02*
X169888819Y-55797268D01*
X169888819Y-55797268D02*
X169936438Y-55702030D01*
X169936438Y-55702030D02*
X169984057Y-55654411D01*
X169984057Y-55654411D02*
X170079295Y-55606792D01*
X170079295Y-55606792D02*
X170222152Y-55606792D01*
X170222152Y-55606792D02*
X170317390Y-55654411D01*
X170317390Y-55654411D02*
X170365009Y-55702030D01*
X170365009Y-55702030D02*
X170412628Y-55797268D01*
X170412628Y-55797268D02*
X170412628Y-56178220D01*
X170841200Y-55225839D02*
X170888819Y-55082982D01*
X170888819Y-55082982D02*
X170888819Y-54844887D01*
X170888819Y-54844887D02*
X170841200Y-54749649D01*
X170841200Y-54749649D02*
X170793580Y-54702030D01*
X170793580Y-54702030D02*
X170698342Y-54654411D01*
X170698342Y-54654411D02*
X170603104Y-54654411D01*
X170603104Y-54654411D02*
X170507866Y-54702030D01*
X170507866Y-54702030D02*
X170460247Y-54749649D01*
X170460247Y-54749649D02*
X170412628Y-54844887D01*
X170412628Y-54844887D02*
X170365009Y-55035363D01*
X170365009Y-55035363D02*
X170317390Y-55130601D01*
X170317390Y-55130601D02*
X170269771Y-55178220D01*
X170269771Y-55178220D02*
X170174533Y-55225839D01*
X170174533Y-55225839D02*
X170079295Y-55225839D01*
X170079295Y-55225839D02*
X169984057Y-55178220D01*
X169984057Y-55178220D02*
X169936438Y-55130601D01*
X169936438Y-55130601D02*
X169888819Y-55035363D01*
X169888819Y-55035363D02*
X169888819Y-54797268D01*
X169888819Y-54797268D02*
X169936438Y-54654411D01*
X169888819Y-54368696D02*
X169888819Y-53797268D01*
X170888819Y-54082982D02*
X169888819Y-54082982D01*
X169611200Y-56316316D02*
X169611200Y-53802030D01*
X163268819Y-56178220D02*
X162268819Y-56178220D01*
X162268819Y-56178220D02*
X162268819Y-55940125D01*
X162268819Y-55940125D02*
X162316438Y-55797268D01*
X162316438Y-55797268D02*
X162411676Y-55702030D01*
X162411676Y-55702030D02*
X162506914Y-55654411D01*
X162506914Y-55654411D02*
X162697390Y-55606792D01*
X162697390Y-55606792D02*
X162840247Y-55606792D01*
X162840247Y-55606792D02*
X163030723Y-55654411D01*
X163030723Y-55654411D02*
X163125961Y-55702030D01*
X163125961Y-55702030D02*
X163221200Y-55797268D01*
X163221200Y-55797268D02*
X163268819Y-55940125D01*
X163268819Y-55940125D02*
X163268819Y-56178220D01*
X163268819Y-54606792D02*
X162792628Y-54940125D01*
X163268819Y-55178220D02*
X162268819Y-55178220D01*
X162268819Y-55178220D02*
X162268819Y-54797268D01*
X162268819Y-54797268D02*
X162316438Y-54702030D01*
X162316438Y-54702030D02*
X162364057Y-54654411D01*
X162364057Y-54654411D02*
X162459295Y-54606792D01*
X162459295Y-54606792D02*
X162602152Y-54606792D01*
X162602152Y-54606792D02*
X162697390Y-54654411D01*
X162697390Y-54654411D02*
X162745009Y-54702030D01*
X162745009Y-54702030D02*
X162792628Y-54797268D01*
X162792628Y-54797268D02*
X162792628Y-55178220D01*
X163268819Y-54178220D02*
X162268819Y-54178220D01*
X162268819Y-54178220D02*
X162268819Y-53940125D01*
X162268819Y-53940125D02*
X162316438Y-53797268D01*
X162316438Y-53797268D02*
X162411676Y-53702030D01*
X162411676Y-53702030D02*
X162506914Y-53654411D01*
X162506914Y-53654411D02*
X162697390Y-53606792D01*
X162697390Y-53606792D02*
X162840247Y-53606792D01*
X162840247Y-53606792D02*
X163030723Y-53654411D01*
X163030723Y-53654411D02*
X163125961Y-53702030D01*
X163125961Y-53702030D02*
X163221200Y-53797268D01*
X163221200Y-53797268D02*
X163268819Y-53940125D01*
X163268819Y-53940125D02*
X163268819Y-54178220D01*
X162792628Y-52987744D02*
X163268819Y-52987744D01*
X162268819Y-53321077D02*
X162792628Y-52987744D01*
X162792628Y-52987744D02*
X162268819Y-52654411D01*
X161991200Y-56316316D02*
X161991200Y-52659173D01*
X160681200Y-56352839D02*
X160728819Y-56209982D01*
X160728819Y-56209982D02*
X160728819Y-55971887D01*
X160728819Y-55971887D02*
X160681200Y-55876649D01*
X160681200Y-55876649D02*
X160633580Y-55829030D01*
X160633580Y-55829030D02*
X160538342Y-55781411D01*
X160538342Y-55781411D02*
X160443104Y-55781411D01*
X160443104Y-55781411D02*
X160347866Y-55829030D01*
X160347866Y-55829030D02*
X160300247Y-55876649D01*
X160300247Y-55876649D02*
X160252628Y-55971887D01*
X160252628Y-55971887D02*
X160205009Y-56162363D01*
X160205009Y-56162363D02*
X160157390Y-56257601D01*
X160157390Y-56257601D02*
X160109771Y-56305220D01*
X160109771Y-56305220D02*
X160014533Y-56352839D01*
X160014533Y-56352839D02*
X159919295Y-56352839D01*
X159919295Y-56352839D02*
X159824057Y-56305220D01*
X159824057Y-56305220D02*
X159776438Y-56257601D01*
X159776438Y-56257601D02*
X159728819Y-56162363D01*
X159728819Y-56162363D02*
X159728819Y-55924268D01*
X159728819Y-55924268D02*
X159776438Y-55781411D01*
X160633580Y-54781411D02*
X160681200Y-54829030D01*
X160681200Y-54829030D02*
X160728819Y-54971887D01*
X160728819Y-54971887D02*
X160728819Y-55067125D01*
X160728819Y-55067125D02*
X160681200Y-55209982D01*
X160681200Y-55209982D02*
X160585961Y-55305220D01*
X160585961Y-55305220D02*
X160490723Y-55352839D01*
X160490723Y-55352839D02*
X160300247Y-55400458D01*
X160300247Y-55400458D02*
X160157390Y-55400458D01*
X160157390Y-55400458D02*
X159966914Y-55352839D01*
X159966914Y-55352839D02*
X159871676Y-55305220D01*
X159871676Y-55305220D02*
X159776438Y-55209982D01*
X159776438Y-55209982D02*
X159728819Y-55067125D01*
X159728819Y-55067125D02*
X159728819Y-54971887D01*
X159728819Y-54971887D02*
X159776438Y-54829030D01*
X159776438Y-54829030D02*
X159824057Y-54781411D01*
X160728819Y-53876649D02*
X160728819Y-54352839D01*
X160728819Y-54352839D02*
X159728819Y-54352839D01*
X160728819Y-53543315D02*
X159728819Y-53543315D01*
X160728819Y-52971887D02*
X160157390Y-53400458D01*
X159728819Y-52971887D02*
X160300247Y-53543315D01*
X147412104Y-109438839D02*
X147412104Y-108962649D01*
X147697819Y-109534077D02*
X146697819Y-109200744D01*
X146697819Y-109200744D02*
X147697819Y-108867411D01*
X147697819Y-108534077D02*
X146697819Y-108534077D01*
X146697819Y-108534077D02*
X147412104Y-108200744D01*
X147412104Y-108200744D02*
X146697819Y-107867411D01*
X146697819Y-107867411D02*
X147697819Y-107867411D01*
X147602580Y-106819792D02*
X147650200Y-106867411D01*
X147650200Y-106867411D02*
X147697819Y-107010268D01*
X147697819Y-107010268D02*
X147697819Y-107105506D01*
X147697819Y-107105506D02*
X147650200Y-107248363D01*
X147650200Y-107248363D02*
X147554961Y-107343601D01*
X147554961Y-107343601D02*
X147459723Y-107391220D01*
X147459723Y-107391220D02*
X147269247Y-107438839D01*
X147269247Y-107438839D02*
X147126390Y-107438839D01*
X147126390Y-107438839D02*
X146935914Y-107391220D01*
X146935914Y-107391220D02*
X146840676Y-107343601D01*
X146840676Y-107343601D02*
X146745438Y-107248363D01*
X146745438Y-107248363D02*
X146697819Y-107105506D01*
X146697819Y-107105506D02*
X146697819Y-107010268D01*
X146697819Y-107010268D02*
X146745438Y-106867411D01*
X146745438Y-106867411D02*
X146793057Y-106819792D01*
X147697819Y-105867411D02*
X147697819Y-106438839D01*
X147697819Y-106153125D02*
X146697819Y-106153125D01*
X146697819Y-106153125D02*
X146840676Y-106248363D01*
X146840676Y-106248363D02*
X146935914Y-106343601D01*
X146935914Y-106343601D02*
X146983533Y-106438839D01*
X146697819Y-105534077D02*
X146697819Y-104915030D01*
X146697819Y-104915030D02*
X147078771Y-105248363D01*
X147078771Y-105248363D02*
X147078771Y-105105506D01*
X147078771Y-105105506D02*
X147126390Y-105010268D01*
X147126390Y-105010268D02*
X147174009Y-104962649D01*
X147174009Y-104962649D02*
X147269247Y-104915030D01*
X147269247Y-104915030D02*
X147507342Y-104915030D01*
X147507342Y-104915030D02*
X147602580Y-104962649D01*
X147602580Y-104962649D02*
X147650200Y-105010268D01*
X147650200Y-105010268D02*
X147697819Y-105105506D01*
X147697819Y-105105506D02*
X147697819Y-105391220D01*
X147697819Y-105391220D02*
X147650200Y-105486458D01*
X147650200Y-105486458D02*
X147602580Y-105534077D01*
X146697819Y-104581696D02*
X147697819Y-103915030D01*
X146697819Y-103915030D02*
X147697819Y-104581696D01*
X147697819Y-103534077D02*
X146697819Y-103534077D01*
X146697819Y-103534077D02*
X147412104Y-103200744D01*
X147412104Y-103200744D02*
X146697819Y-102867411D01*
X146697819Y-102867411D02*
X147697819Y-102867411D01*
X146697819Y-102200744D02*
X146697819Y-102105506D01*
X146697819Y-102105506D02*
X146745438Y-102010268D01*
X146745438Y-102010268D02*
X146793057Y-101962649D01*
X146793057Y-101962649D02*
X146888295Y-101915030D01*
X146888295Y-101915030D02*
X147078771Y-101867411D01*
X147078771Y-101867411D02*
X147316866Y-101867411D01*
X147316866Y-101867411D02*
X147507342Y-101915030D01*
X147507342Y-101915030D02*
X147602580Y-101962649D01*
X147602580Y-101962649D02*
X147650200Y-102010268D01*
X147650200Y-102010268D02*
X147697819Y-102105506D01*
X147697819Y-102105506D02*
X147697819Y-102200744D01*
X147697819Y-102200744D02*
X147650200Y-102295982D01*
X147650200Y-102295982D02*
X147602580Y-102343601D01*
X147602580Y-102343601D02*
X147507342Y-102391220D01*
X147507342Y-102391220D02*
X147316866Y-102438839D01*
X147316866Y-102438839D02*
X147078771Y-102438839D01*
X147078771Y-102438839D02*
X146888295Y-102391220D01*
X146888295Y-102391220D02*
X146793057Y-102343601D01*
X146793057Y-102343601D02*
X146745438Y-102295982D01*
X146745438Y-102295982D02*
X146697819Y-102200744D01*
X146793057Y-101486458D02*
X146745438Y-101438839D01*
X146745438Y-101438839D02*
X146697819Y-101343601D01*
X146697819Y-101343601D02*
X146697819Y-101105506D01*
X146697819Y-101105506D02*
X146745438Y-101010268D01*
X146745438Y-101010268D02*
X146793057Y-100962649D01*
X146793057Y-100962649D02*
X146888295Y-100915030D01*
X146888295Y-100915030D02*
X146983533Y-100915030D01*
X146983533Y-100915030D02*
X147126390Y-100962649D01*
X147126390Y-100962649D02*
X147697819Y-101534077D01*
X147697819Y-101534077D02*
X147697819Y-100915030D01*
X147697819Y-99724553D02*
X146697819Y-99724553D01*
X147650200Y-99295982D02*
X147697819Y-99200744D01*
X147697819Y-99200744D02*
X147697819Y-99010268D01*
X147697819Y-99010268D02*
X147650200Y-98915030D01*
X147650200Y-98915030D02*
X147554961Y-98867411D01*
X147554961Y-98867411D02*
X147507342Y-98867411D01*
X147507342Y-98867411D02*
X147412104Y-98915030D01*
X147412104Y-98915030D02*
X147364485Y-99010268D01*
X147364485Y-99010268D02*
X147364485Y-99153125D01*
X147364485Y-99153125D02*
X147316866Y-99248363D01*
X147316866Y-99248363D02*
X147221628Y-99295982D01*
X147221628Y-99295982D02*
X147174009Y-99295982D01*
X147174009Y-99295982D02*
X147078771Y-99248363D01*
X147078771Y-99248363D02*
X147031152Y-99153125D01*
X147031152Y-99153125D02*
X147031152Y-99010268D01*
X147031152Y-99010268D02*
X147078771Y-98915030D01*
X147697819Y-98295982D02*
X147650200Y-98391220D01*
X147650200Y-98391220D02*
X147602580Y-98438839D01*
X147602580Y-98438839D02*
X147507342Y-98486458D01*
X147507342Y-98486458D02*
X147221628Y-98486458D01*
X147221628Y-98486458D02*
X147126390Y-98438839D01*
X147126390Y-98438839D02*
X147078771Y-98391220D01*
X147078771Y-98391220D02*
X147031152Y-98295982D01*
X147031152Y-98295982D02*
X147031152Y-98153125D01*
X147031152Y-98153125D02*
X147078771Y-98057887D01*
X147078771Y-98057887D02*
X147126390Y-98010268D01*
X147126390Y-98010268D02*
X147221628Y-97962649D01*
X147221628Y-97962649D02*
X147507342Y-97962649D01*
X147507342Y-97962649D02*
X147602580Y-98010268D01*
X147602580Y-98010268D02*
X147650200Y-98057887D01*
X147650200Y-98057887D02*
X147697819Y-98153125D01*
X147697819Y-98153125D02*
X147697819Y-98295982D01*
X147697819Y-97391220D02*
X147650200Y-97486458D01*
X147650200Y-97486458D02*
X147554961Y-97534077D01*
X147554961Y-97534077D02*
X146697819Y-97534077D01*
X147697819Y-96581696D02*
X147174009Y-96581696D01*
X147174009Y-96581696D02*
X147078771Y-96629315D01*
X147078771Y-96629315D02*
X147031152Y-96724553D01*
X147031152Y-96724553D02*
X147031152Y-96915029D01*
X147031152Y-96915029D02*
X147078771Y-97010267D01*
X147650200Y-96581696D02*
X147697819Y-96676934D01*
X147697819Y-96676934D02*
X147697819Y-96915029D01*
X147697819Y-96915029D02*
X147650200Y-97010267D01*
X147650200Y-97010267D02*
X147554961Y-97057886D01*
X147554961Y-97057886D02*
X147459723Y-97057886D01*
X147459723Y-97057886D02*
X147364485Y-97010267D01*
X147364485Y-97010267D02*
X147316866Y-96915029D01*
X147316866Y-96915029D02*
X147316866Y-96676934D01*
X147316866Y-96676934D02*
X147269247Y-96581696D01*
X147031152Y-96248362D02*
X147031152Y-95867410D01*
X146697819Y-96105505D02*
X147554961Y-96105505D01*
X147554961Y-96105505D02*
X147650200Y-96057886D01*
X147650200Y-96057886D02*
X147697819Y-95962648D01*
X147697819Y-95962648D02*
X147697819Y-95867410D01*
X147650200Y-95153124D02*
X147697819Y-95248362D01*
X147697819Y-95248362D02*
X147697819Y-95438838D01*
X147697819Y-95438838D02*
X147650200Y-95534076D01*
X147650200Y-95534076D02*
X147554961Y-95581695D01*
X147554961Y-95581695D02*
X147174009Y-95581695D01*
X147174009Y-95581695D02*
X147078771Y-95534076D01*
X147078771Y-95534076D02*
X147031152Y-95438838D01*
X147031152Y-95438838D02*
X147031152Y-95248362D01*
X147031152Y-95248362D02*
X147078771Y-95153124D01*
X147078771Y-95153124D02*
X147174009Y-95105505D01*
X147174009Y-95105505D02*
X147269247Y-95105505D01*
X147269247Y-95105505D02*
X147364485Y-95581695D01*
X147697819Y-94248362D02*
X146697819Y-94248362D01*
X147650200Y-94248362D02*
X147697819Y-94343600D01*
X147697819Y-94343600D02*
X147697819Y-94534076D01*
X147697819Y-94534076D02*
X147650200Y-94629314D01*
X147650200Y-94629314D02*
X147602580Y-94676933D01*
X147602580Y-94676933D02*
X147507342Y-94724552D01*
X147507342Y-94724552D02*
X147221628Y-94724552D01*
X147221628Y-94724552D02*
X147126390Y-94676933D01*
X147126390Y-94676933D02*
X147078771Y-94629314D01*
X147078771Y-94629314D02*
X147031152Y-94534076D01*
X147031152Y-94534076D02*
X147031152Y-94343600D01*
X147031152Y-94343600D02*
X147078771Y-94248362D01*
X147697819Y-93153123D02*
X146697819Y-92819790D01*
X146697819Y-92819790D02*
X147697819Y-92486457D01*
X147697819Y-92486457D02*
X147697819Y-93153123D01*
X147697819Y-91676933D02*
X147697819Y-92200742D01*
X147697819Y-92200742D02*
X147174009Y-91867409D01*
X147174009Y-91867409D02*
X146697819Y-92200742D01*
X146697819Y-92200742D02*
X146697819Y-91676933D01*
X147412104Y-90534075D02*
X147412104Y-90057885D01*
X147697819Y-90629313D02*
X146697819Y-90295980D01*
X146697819Y-90295980D02*
X147697819Y-89962647D01*
X147697819Y-89629313D02*
X146697819Y-89629313D01*
X146697819Y-89629313D02*
X146697819Y-89391218D01*
X146697819Y-89391218D02*
X146745438Y-89248361D01*
X146745438Y-89248361D02*
X146840676Y-89153123D01*
X146840676Y-89153123D02*
X146935914Y-89105504D01*
X146935914Y-89105504D02*
X147126390Y-89057885D01*
X147126390Y-89057885D02*
X147269247Y-89057885D01*
X147269247Y-89057885D02*
X147459723Y-89105504D01*
X147459723Y-89105504D02*
X147554961Y-89153123D01*
X147554961Y-89153123D02*
X147650200Y-89248361D01*
X147650200Y-89248361D02*
X147697819Y-89391218D01*
X147697819Y-89391218D02*
X147697819Y-89629313D01*
X147602580Y-88057885D02*
X147650200Y-88105504D01*
X147650200Y-88105504D02*
X147697819Y-88248361D01*
X147697819Y-88248361D02*
X147697819Y-88343599D01*
X147697819Y-88343599D02*
X147650200Y-88486456D01*
X147650200Y-88486456D02*
X147554961Y-88581694D01*
X147554961Y-88581694D02*
X147459723Y-88629313D01*
X147459723Y-88629313D02*
X147269247Y-88676932D01*
X147269247Y-88676932D02*
X147126390Y-88676932D01*
X147126390Y-88676932D02*
X146935914Y-88629313D01*
X146935914Y-88629313D02*
X146840676Y-88581694D01*
X146840676Y-88581694D02*
X146745438Y-88486456D01*
X146745438Y-88486456D02*
X146697819Y-88343599D01*
X146697819Y-88343599D02*
X146697819Y-88248361D01*
X146697819Y-88248361D02*
X146745438Y-88105504D01*
X146745438Y-88105504D02*
X146793057Y-88057885D01*
X147697819Y-86867408D02*
X146697819Y-86867408D01*
X146697819Y-86867408D02*
X147412104Y-86534075D01*
X147412104Y-86534075D02*
X146697819Y-86200742D01*
X146697819Y-86200742D02*
X147697819Y-86200742D01*
X147697819Y-85581694D02*
X147650200Y-85676932D01*
X147650200Y-85676932D02*
X147602580Y-85724551D01*
X147602580Y-85724551D02*
X147507342Y-85772170D01*
X147507342Y-85772170D02*
X147221628Y-85772170D01*
X147221628Y-85772170D02*
X147126390Y-85724551D01*
X147126390Y-85724551D02*
X147078771Y-85676932D01*
X147078771Y-85676932D02*
X147031152Y-85581694D01*
X147031152Y-85581694D02*
X147031152Y-85438837D01*
X147031152Y-85438837D02*
X147078771Y-85343599D01*
X147078771Y-85343599D02*
X147126390Y-85295980D01*
X147126390Y-85295980D02*
X147221628Y-85248361D01*
X147221628Y-85248361D02*
X147507342Y-85248361D01*
X147507342Y-85248361D02*
X147602580Y-85295980D01*
X147602580Y-85295980D02*
X147650200Y-85343599D01*
X147650200Y-85343599D02*
X147697819Y-85438837D01*
X147697819Y-85438837D02*
X147697819Y-85581694D01*
X147697819Y-84391218D02*
X146697819Y-84391218D01*
X147650200Y-84391218D02*
X147697819Y-84486456D01*
X147697819Y-84486456D02*
X147697819Y-84676932D01*
X147697819Y-84676932D02*
X147650200Y-84772170D01*
X147650200Y-84772170D02*
X147602580Y-84819789D01*
X147602580Y-84819789D02*
X147507342Y-84867408D01*
X147507342Y-84867408D02*
X147221628Y-84867408D01*
X147221628Y-84867408D02*
X147126390Y-84819789D01*
X147126390Y-84819789D02*
X147078771Y-84772170D01*
X147078771Y-84772170D02*
X147031152Y-84676932D01*
X147031152Y-84676932D02*
X147031152Y-84486456D01*
X147031152Y-84486456D02*
X147078771Y-84391218D01*
X147031152Y-83486456D02*
X147697819Y-83486456D01*
X147031152Y-83915027D02*
X147554961Y-83915027D01*
X147554961Y-83915027D02*
X147650200Y-83867408D01*
X147650200Y-83867408D02*
X147697819Y-83772170D01*
X147697819Y-83772170D02*
X147697819Y-83629313D01*
X147697819Y-83629313D02*
X147650200Y-83534075D01*
X147650200Y-83534075D02*
X147602580Y-83486456D01*
X147697819Y-82867408D02*
X147650200Y-82962646D01*
X147650200Y-82962646D02*
X147554961Y-83010265D01*
X147554961Y-83010265D02*
X146697819Y-83010265D01*
X147650200Y-82105503D02*
X147697819Y-82200741D01*
X147697819Y-82200741D02*
X147697819Y-82391217D01*
X147697819Y-82391217D02*
X147650200Y-82486455D01*
X147650200Y-82486455D02*
X147554961Y-82534074D01*
X147554961Y-82534074D02*
X147174009Y-82534074D01*
X147174009Y-82534074D02*
X147078771Y-82486455D01*
X147078771Y-82486455D02*
X147031152Y-82391217D01*
X147031152Y-82391217D02*
X147031152Y-82200741D01*
X147031152Y-82200741D02*
X147078771Y-82105503D01*
X147078771Y-82105503D02*
X147174009Y-82057884D01*
X147174009Y-82057884D02*
X147269247Y-82057884D01*
X147269247Y-82057884D02*
X147364485Y-82534074D01*
X151866667Y-113136533D02*
X152933334Y-113136533D01*
X152400000Y-113669866D02*
X152400000Y-112603200D01*
X173510580Y-108819792D02*
X173558200Y-108867411D01*
X173558200Y-108867411D02*
X173605819Y-109010268D01*
X173605819Y-109010268D02*
X173605819Y-109105506D01*
X173605819Y-109105506D02*
X173558200Y-109248363D01*
X173558200Y-109248363D02*
X173462961Y-109343601D01*
X173462961Y-109343601D02*
X173367723Y-109391220D01*
X173367723Y-109391220D02*
X173177247Y-109438839D01*
X173177247Y-109438839D02*
X173034390Y-109438839D01*
X173034390Y-109438839D02*
X172843914Y-109391220D01*
X172843914Y-109391220D02*
X172748676Y-109343601D01*
X172748676Y-109343601D02*
X172653438Y-109248363D01*
X172653438Y-109248363D02*
X172605819Y-109105506D01*
X172605819Y-109105506D02*
X172605819Y-109010268D01*
X172605819Y-109010268D02*
X172653438Y-108867411D01*
X172653438Y-108867411D02*
X172701057Y-108819792D01*
X173605819Y-108391220D02*
X172605819Y-108391220D01*
X173082009Y-108391220D02*
X173082009Y-107819792D01*
X173605819Y-107819792D02*
X172605819Y-107819792D01*
X173605819Y-106819792D02*
X173605819Y-107391220D01*
X173605819Y-107105506D02*
X172605819Y-107105506D01*
X172605819Y-107105506D02*
X172748676Y-107200744D01*
X172748676Y-107200744D02*
X172843914Y-107295982D01*
X172843914Y-107295982D02*
X172891533Y-107391220D01*
X173510580Y-106391220D02*
X173558200Y-106343601D01*
X173558200Y-106343601D02*
X173605819Y-106391220D01*
X173605819Y-106391220D02*
X173558200Y-106438839D01*
X173558200Y-106438839D02*
X173510580Y-106391220D01*
X173510580Y-106391220D02*
X173605819Y-106391220D01*
X172986771Y-106391220D02*
X173034390Y-106343601D01*
X173034390Y-106343601D02*
X173082009Y-106391220D01*
X173082009Y-106391220D02*
X173034390Y-106438839D01*
X173034390Y-106438839D02*
X172986771Y-106391220D01*
X172986771Y-106391220D02*
X173082009Y-106391220D01*
X172605819Y-104962649D02*
X172605819Y-104867411D01*
X172605819Y-104867411D02*
X172653438Y-104772173D01*
X172653438Y-104772173D02*
X172701057Y-104724554D01*
X172701057Y-104724554D02*
X172796295Y-104676935D01*
X172796295Y-104676935D02*
X172986771Y-104629316D01*
X172986771Y-104629316D02*
X173224866Y-104629316D01*
X173224866Y-104629316D02*
X173415342Y-104676935D01*
X173415342Y-104676935D02*
X173510580Y-104724554D01*
X173510580Y-104724554D02*
X173558200Y-104772173D01*
X173558200Y-104772173D02*
X173605819Y-104867411D01*
X173605819Y-104867411D02*
X173605819Y-104962649D01*
X173605819Y-104962649D02*
X173558200Y-105057887D01*
X173558200Y-105057887D02*
X173510580Y-105105506D01*
X173510580Y-105105506D02*
X173415342Y-105153125D01*
X173415342Y-105153125D02*
X173224866Y-105200744D01*
X173224866Y-105200744D02*
X172986771Y-105200744D01*
X172986771Y-105200744D02*
X172796295Y-105153125D01*
X172796295Y-105153125D02*
X172701057Y-105105506D01*
X172701057Y-105105506D02*
X172653438Y-105057887D01*
X172653438Y-105057887D02*
X172605819Y-104962649D01*
X173224866Y-104200744D02*
X173224866Y-103438840D01*
X173605819Y-102438840D02*
X173605819Y-103010268D01*
X173605819Y-102724554D02*
X172605819Y-102724554D01*
X172605819Y-102724554D02*
X172748676Y-102819792D01*
X172748676Y-102819792D02*
X172843914Y-102915030D01*
X172843914Y-102915030D02*
X172891533Y-103010268D01*
X172605819Y-101819792D02*
X172605819Y-101724554D01*
X172605819Y-101724554D02*
X172653438Y-101629316D01*
X172653438Y-101629316D02*
X172701057Y-101581697D01*
X172701057Y-101581697D02*
X172796295Y-101534078D01*
X172796295Y-101534078D02*
X172986771Y-101486459D01*
X172986771Y-101486459D02*
X173224866Y-101486459D01*
X173224866Y-101486459D02*
X173415342Y-101534078D01*
X173415342Y-101534078D02*
X173510580Y-101581697D01*
X173510580Y-101581697D02*
X173558200Y-101629316D01*
X173558200Y-101629316D02*
X173605819Y-101724554D01*
X173605819Y-101724554D02*
X173605819Y-101819792D01*
X173605819Y-101819792D02*
X173558200Y-101915030D01*
X173558200Y-101915030D02*
X173510580Y-101962649D01*
X173510580Y-101962649D02*
X173415342Y-102010268D01*
X173415342Y-102010268D02*
X173224866Y-102057887D01*
X173224866Y-102057887D02*
X172986771Y-102057887D01*
X172986771Y-102057887D02*
X172796295Y-102010268D01*
X172796295Y-102010268D02*
X172701057Y-101962649D01*
X172701057Y-101962649D02*
X172653438Y-101915030D01*
X172653438Y-101915030D02*
X172605819Y-101819792D01*
X172605819Y-101200744D02*
X173605819Y-100867411D01*
X173605819Y-100867411D02*
X172605819Y-100534078D01*
X172733414Y-64506140D02*
X171733414Y-64506140D01*
X171733414Y-64506140D02*
X171733414Y-64125188D01*
X171733414Y-64125188D02*
X171781033Y-64029950D01*
X171781033Y-64029950D02*
X171828652Y-63982331D01*
X171828652Y-63982331D02*
X171923890Y-63934712D01*
X171923890Y-63934712D02*
X172066747Y-63934712D01*
X172066747Y-63934712D02*
X172161985Y-63982331D01*
X172161985Y-63982331D02*
X172209604Y-64029950D01*
X172209604Y-64029950D02*
X172257223Y-64125188D01*
X172257223Y-64125188D02*
X172257223Y-64506140D01*
X171733414Y-63601378D02*
X172733414Y-63363283D01*
X172733414Y-63363283D02*
X172019128Y-63172807D01*
X172019128Y-63172807D02*
X172733414Y-62982331D01*
X172733414Y-62982331D02*
X171733414Y-62744236D01*
X172733414Y-61791855D02*
X172257223Y-62125188D01*
X172733414Y-62363283D02*
X171733414Y-62363283D01*
X171733414Y-62363283D02*
X171733414Y-61982331D01*
X171733414Y-61982331D02*
X171781033Y-61887093D01*
X171781033Y-61887093D02*
X171828652Y-61839474D01*
X171828652Y-61839474D02*
X171923890Y-61791855D01*
X171923890Y-61791855D02*
X172066747Y-61791855D01*
X172066747Y-61791855D02*
X172161985Y-61839474D01*
X172161985Y-61839474D02*
X172209604Y-61887093D01*
X172209604Y-61887093D02*
X172257223Y-61982331D01*
X172257223Y-61982331D02*
X172257223Y-62363283D01*
X169138667Y-113136533D02*
X170205334Y-113136533D01*
X151902438Y-55781411D02*
X151854819Y-55876649D01*
X151854819Y-55876649D02*
X151854819Y-56019506D01*
X151854819Y-56019506D02*
X151902438Y-56162363D01*
X151902438Y-56162363D02*
X151997676Y-56257601D01*
X151997676Y-56257601D02*
X152092914Y-56305220D01*
X152092914Y-56305220D02*
X152283390Y-56352839D01*
X152283390Y-56352839D02*
X152426247Y-56352839D01*
X152426247Y-56352839D02*
X152616723Y-56305220D01*
X152616723Y-56305220D02*
X152711961Y-56257601D01*
X152711961Y-56257601D02*
X152807200Y-56162363D01*
X152807200Y-56162363D02*
X152854819Y-56019506D01*
X152854819Y-56019506D02*
X152854819Y-55924268D01*
X152854819Y-55924268D02*
X152807200Y-55781411D01*
X152807200Y-55781411D02*
X152759580Y-55733792D01*
X152759580Y-55733792D02*
X152426247Y-55733792D01*
X152426247Y-55733792D02*
X152426247Y-55924268D01*
X152854819Y-55305220D02*
X151854819Y-55305220D01*
X151854819Y-55305220D02*
X152854819Y-54733792D01*
X152854819Y-54733792D02*
X151854819Y-54733792D01*
X152854819Y-54257601D02*
X151854819Y-54257601D01*
X151854819Y-54257601D02*
X151854819Y-54019506D01*
X151854819Y-54019506D02*
X151902438Y-53876649D01*
X151902438Y-53876649D02*
X151997676Y-53781411D01*
X151997676Y-53781411D02*
X152092914Y-53733792D01*
X152092914Y-53733792D02*
X152283390Y-53686173D01*
X152283390Y-53686173D02*
X152426247Y-53686173D01*
X152426247Y-53686173D02*
X152616723Y-53733792D01*
X152616723Y-53733792D02*
X152711961Y-53781411D01*
X152711961Y-53781411D02*
X152807200Y-53876649D01*
X152807200Y-53876649D02*
X152854819Y-54019506D01*
X152854819Y-54019506D02*
X152854819Y-54257601D01*
X149729819Y-96676933D02*
X149253628Y-97010266D01*
X149729819Y-97248361D02*
X148729819Y-97248361D01*
X148729819Y-97248361D02*
X148729819Y-96867409D01*
X148729819Y-96867409D02*
X148777438Y-96772171D01*
X148777438Y-96772171D02*
X148825057Y-96724552D01*
X148825057Y-96724552D02*
X148920295Y-96676933D01*
X148920295Y-96676933D02*
X149063152Y-96676933D01*
X149063152Y-96676933D02*
X149158390Y-96724552D01*
X149158390Y-96724552D02*
X149206009Y-96772171D01*
X149206009Y-96772171D02*
X149253628Y-96867409D01*
X149253628Y-96867409D02*
X149253628Y-97248361D01*
X149682200Y-95867409D02*
X149729819Y-95962647D01*
X149729819Y-95962647D02*
X149729819Y-96153123D01*
X149729819Y-96153123D02*
X149682200Y-96248361D01*
X149682200Y-96248361D02*
X149586961Y-96295980D01*
X149586961Y-96295980D02*
X149206009Y-96295980D01*
X149206009Y-96295980D02*
X149110771Y-96248361D01*
X149110771Y-96248361D02*
X149063152Y-96153123D01*
X149063152Y-96153123D02*
X149063152Y-95962647D01*
X149063152Y-95962647D02*
X149110771Y-95867409D01*
X149110771Y-95867409D02*
X149206009Y-95819790D01*
X149206009Y-95819790D02*
X149301247Y-95819790D01*
X149301247Y-95819790D02*
X149396485Y-96295980D01*
X149063152Y-95486456D02*
X149729819Y-95248361D01*
X149729819Y-95248361D02*
X149063152Y-95010266D01*
X149444104Y-93915027D02*
X149444104Y-93438837D01*
X149729819Y-94010265D02*
X148729819Y-93676932D01*
X148729819Y-93676932D02*
X149729819Y-93343599D01*
X175542580Y-108819792D02*
X175590200Y-108867411D01*
X175590200Y-108867411D02*
X175637819Y-109010268D01*
X175637819Y-109010268D02*
X175637819Y-109105506D01*
X175637819Y-109105506D02*
X175590200Y-109248363D01*
X175590200Y-109248363D02*
X175494961Y-109343601D01*
X175494961Y-109343601D02*
X175399723Y-109391220D01*
X175399723Y-109391220D02*
X175209247Y-109438839D01*
X175209247Y-109438839D02*
X175066390Y-109438839D01*
X175066390Y-109438839D02*
X174875914Y-109391220D01*
X174875914Y-109391220D02*
X174780676Y-109343601D01*
X174780676Y-109343601D02*
X174685438Y-109248363D01*
X174685438Y-109248363D02*
X174637819Y-109105506D01*
X174637819Y-109105506D02*
X174637819Y-109010268D01*
X174637819Y-109010268D02*
X174685438Y-108867411D01*
X174685438Y-108867411D02*
X174733057Y-108819792D01*
X175637819Y-108391220D02*
X174637819Y-108391220D01*
X175114009Y-108391220D02*
X175114009Y-107819792D01*
X175637819Y-107819792D02*
X174637819Y-107819792D01*
X174637819Y-107153125D02*
X174637819Y-107057887D01*
X174637819Y-107057887D02*
X174685438Y-106962649D01*
X174685438Y-106962649D02*
X174733057Y-106915030D01*
X174733057Y-106915030D02*
X174828295Y-106867411D01*
X174828295Y-106867411D02*
X175018771Y-106819792D01*
X175018771Y-106819792D02*
X175256866Y-106819792D01*
X175256866Y-106819792D02*
X175447342Y-106867411D01*
X175447342Y-106867411D02*
X175542580Y-106915030D01*
X175542580Y-106915030D02*
X175590200Y-106962649D01*
X175590200Y-106962649D02*
X175637819Y-107057887D01*
X175637819Y-107057887D02*
X175637819Y-107153125D01*
X175637819Y-107153125D02*
X175590200Y-107248363D01*
X175590200Y-107248363D02*
X175542580Y-107295982D01*
X175542580Y-107295982D02*
X175447342Y-107343601D01*
X175447342Y-107343601D02*
X175256866Y-107391220D01*
X175256866Y-107391220D02*
X175018771Y-107391220D01*
X175018771Y-107391220D02*
X174828295Y-107343601D01*
X174828295Y-107343601D02*
X174733057Y-107295982D01*
X174733057Y-107295982D02*
X174685438Y-107248363D01*
X174685438Y-107248363D02*
X174637819Y-107153125D01*
X175542580Y-106391220D02*
X175590200Y-106343601D01*
X175590200Y-106343601D02*
X175637819Y-106391220D01*
X175637819Y-106391220D02*
X175590200Y-106438839D01*
X175590200Y-106438839D02*
X175542580Y-106391220D01*
X175542580Y-106391220D02*
X175637819Y-106391220D01*
X175018771Y-106391220D02*
X175066390Y-106343601D01*
X175066390Y-106343601D02*
X175114009Y-106391220D01*
X175114009Y-106391220D02*
X175066390Y-106438839D01*
X175066390Y-106438839D02*
X175018771Y-106391220D01*
X175018771Y-106391220D02*
X175114009Y-106391220D01*
X174971152Y-104724554D02*
X175637819Y-104724554D01*
X174590200Y-104962649D02*
X175304485Y-105200744D01*
X175304485Y-105200744D02*
X175304485Y-104581697D01*
X175637819Y-104200744D02*
X174971152Y-104200744D01*
X175066390Y-104200744D02*
X175018771Y-104153125D01*
X175018771Y-104153125D02*
X174971152Y-104057887D01*
X174971152Y-104057887D02*
X174971152Y-103915030D01*
X174971152Y-103915030D02*
X175018771Y-103819792D01*
X175018771Y-103819792D02*
X175114009Y-103772173D01*
X175114009Y-103772173D02*
X175637819Y-103772173D01*
X175114009Y-103772173D02*
X175018771Y-103724554D01*
X175018771Y-103724554D02*
X174971152Y-103629316D01*
X174971152Y-103629316D02*
X174971152Y-103486459D01*
X174971152Y-103486459D02*
X175018771Y-103391220D01*
X175018771Y-103391220D02*
X175114009Y-103343601D01*
X175114009Y-103343601D02*
X175637819Y-103343601D01*
X175352104Y-102915030D02*
X175352104Y-102438840D01*
X175637819Y-103010268D02*
X174637819Y-102676935D01*
X174637819Y-102676935D02*
X175637819Y-102343602D01*
X175256866Y-102010268D02*
X175256866Y-101248364D01*
X174733057Y-100819792D02*
X174685438Y-100772173D01*
X174685438Y-100772173D02*
X174637819Y-100676935D01*
X174637819Y-100676935D02*
X174637819Y-100438840D01*
X174637819Y-100438840D02*
X174685438Y-100343602D01*
X174685438Y-100343602D02*
X174733057Y-100295983D01*
X174733057Y-100295983D02*
X174828295Y-100248364D01*
X174828295Y-100248364D02*
X174923533Y-100248364D01*
X174923533Y-100248364D02*
X175066390Y-100295983D01*
X175066390Y-100295983D02*
X175637819Y-100867411D01*
X175637819Y-100867411D02*
X175637819Y-100248364D01*
X174637819Y-99629316D02*
X174637819Y-99534078D01*
X174637819Y-99534078D02*
X174685438Y-99438840D01*
X174685438Y-99438840D02*
X174733057Y-99391221D01*
X174733057Y-99391221D02*
X174828295Y-99343602D01*
X174828295Y-99343602D02*
X175018771Y-99295983D01*
X175018771Y-99295983D02*
X175256866Y-99295983D01*
X175256866Y-99295983D02*
X175447342Y-99343602D01*
X175447342Y-99343602D02*
X175542580Y-99391221D01*
X175542580Y-99391221D02*
X175590200Y-99438840D01*
X175590200Y-99438840D02*
X175637819Y-99534078D01*
X175637819Y-99534078D02*
X175637819Y-99629316D01*
X175637819Y-99629316D02*
X175590200Y-99724554D01*
X175590200Y-99724554D02*
X175542580Y-99772173D01*
X175542580Y-99772173D02*
X175447342Y-99819792D01*
X175447342Y-99819792D02*
X175256866Y-99867411D01*
X175256866Y-99867411D02*
X175018771Y-99867411D01*
X175018771Y-99867411D02*
X174828295Y-99819792D01*
X174828295Y-99819792D02*
X174733057Y-99772173D01*
X174733057Y-99772173D02*
X174685438Y-99724554D01*
X174685438Y-99724554D02*
X174637819Y-99629316D01*
X175637819Y-98867411D02*
X174971152Y-98867411D01*
X175066390Y-98867411D02*
X175018771Y-98819792D01*
X175018771Y-98819792D02*
X174971152Y-98724554D01*
X174971152Y-98724554D02*
X174971152Y-98581697D01*
X174971152Y-98581697D02*
X175018771Y-98486459D01*
X175018771Y-98486459D02*
X175114009Y-98438840D01*
X175114009Y-98438840D02*
X175637819Y-98438840D01*
X175114009Y-98438840D02*
X175018771Y-98391221D01*
X175018771Y-98391221D02*
X174971152Y-98295983D01*
X174971152Y-98295983D02*
X174971152Y-98153126D01*
X174971152Y-98153126D02*
X175018771Y-98057887D01*
X175018771Y-98057887D02*
X175114009Y-98010268D01*
X175114009Y-98010268D02*
X175637819Y-98010268D01*
X175352104Y-97581697D02*
X175352104Y-97105507D01*
X175637819Y-97676935D02*
X174637819Y-97343602D01*
X174637819Y-97343602D02*
X175637819Y-97010269D01*
X158093580Y-55606792D02*
X158141200Y-55654411D01*
X158141200Y-55654411D02*
X158188819Y-55797268D01*
X158188819Y-55797268D02*
X158188819Y-55892506D01*
X158188819Y-55892506D02*
X158141200Y-56035363D01*
X158141200Y-56035363D02*
X158045961Y-56130601D01*
X158045961Y-56130601D02*
X157950723Y-56178220D01*
X157950723Y-56178220D02*
X157760247Y-56225839D01*
X157760247Y-56225839D02*
X157617390Y-56225839D01*
X157617390Y-56225839D02*
X157426914Y-56178220D01*
X157426914Y-56178220D02*
X157331676Y-56130601D01*
X157331676Y-56130601D02*
X157236438Y-56035363D01*
X157236438Y-56035363D02*
X157188819Y-55892506D01*
X157188819Y-55892506D02*
X157188819Y-55797268D01*
X157188819Y-55797268D02*
X157236438Y-55654411D01*
X157236438Y-55654411D02*
X157284057Y-55606792D01*
X158141200Y-55225839D02*
X158188819Y-55082982D01*
X158188819Y-55082982D02*
X158188819Y-54844887D01*
X158188819Y-54844887D02*
X158141200Y-54749649D01*
X158141200Y-54749649D02*
X158093580Y-54702030D01*
X158093580Y-54702030D02*
X157998342Y-54654411D01*
X157998342Y-54654411D02*
X157903104Y-54654411D01*
X157903104Y-54654411D02*
X157807866Y-54702030D01*
X157807866Y-54702030D02*
X157760247Y-54749649D01*
X157760247Y-54749649D02*
X157712628Y-54844887D01*
X157712628Y-54844887D02*
X157665009Y-55035363D01*
X157665009Y-55035363D02*
X157617390Y-55130601D01*
X157617390Y-55130601D02*
X157569771Y-55178220D01*
X157569771Y-55178220D02*
X157474533Y-55225839D01*
X157474533Y-55225839D02*
X157379295Y-55225839D01*
X157379295Y-55225839D02*
X157284057Y-55178220D01*
X157284057Y-55178220D02*
X157236438Y-55130601D01*
X157236438Y-55130601D02*
X157188819Y-55035363D01*
X157188819Y-55035363D02*
X157188819Y-54797268D01*
X157188819Y-54797268D02*
X157236438Y-54654411D01*
X156911200Y-56316316D02*
X156911200Y-54563935D01*
X170850112Y-79102009D02*
X170992969Y-79149628D01*
X170992969Y-79149628D02*
X171040588Y-79197247D01*
X171040588Y-79197247D02*
X171088207Y-79292485D01*
X171088207Y-79292485D02*
X171088207Y-79435342D01*
X171088207Y-79435342D02*
X171040588Y-79530580D01*
X171040588Y-79530580D02*
X170992969Y-79578200D01*
X170992969Y-79578200D02*
X170897731Y-79625819D01*
X170897731Y-79625819D02*
X170516779Y-79625819D01*
X170516779Y-79625819D02*
X170516779Y-78625819D01*
X170516779Y-78625819D02*
X170850112Y-78625819D01*
X170850112Y-78625819D02*
X170945350Y-78673438D01*
X170945350Y-78673438D02*
X170992969Y-78721057D01*
X170992969Y-78721057D02*
X171040588Y-78816295D01*
X171040588Y-78816295D02*
X171040588Y-78911533D01*
X171040588Y-78911533D02*
X170992969Y-79006771D01*
X170992969Y-79006771D02*
X170945350Y-79054390D01*
X170945350Y-79054390D02*
X170850112Y-79102009D01*
X170850112Y-79102009D02*
X170516779Y-79102009D01*
X171945350Y-79625819D02*
X171945350Y-79102009D01*
X171945350Y-79102009D02*
X171897731Y-79006771D01*
X171897731Y-79006771D02*
X171802493Y-78959152D01*
X171802493Y-78959152D02*
X171612017Y-78959152D01*
X171612017Y-78959152D02*
X171516779Y-79006771D01*
X171945350Y-79578200D02*
X171850112Y-79625819D01*
X171850112Y-79625819D02*
X171612017Y-79625819D01*
X171612017Y-79625819D02*
X171516779Y-79578200D01*
X171516779Y-79578200D02*
X171469160Y-79482961D01*
X171469160Y-79482961D02*
X171469160Y-79387723D01*
X171469160Y-79387723D02*
X171516779Y-79292485D01*
X171516779Y-79292485D02*
X171612017Y-79244866D01*
X171612017Y-79244866D02*
X171850112Y-79244866D01*
X171850112Y-79244866D02*
X171945350Y-79197247D01*
X172421541Y-79625819D02*
X172421541Y-78959152D01*
X172421541Y-79149628D02*
X172469160Y-79054390D01*
X172469160Y-79054390D02*
X172516779Y-79006771D01*
X172516779Y-79006771D02*
X172612017Y-78959152D01*
X172612017Y-78959152D02*
X172707255Y-78959152D01*
X173040589Y-79625819D02*
X173040589Y-78959152D01*
X173040589Y-79149628D02*
X173088208Y-79054390D01*
X173088208Y-79054390D02*
X173135827Y-79006771D01*
X173135827Y-79006771D02*
X173231065Y-78959152D01*
X173231065Y-78959152D02*
X173326303Y-78959152D01*
X173659637Y-79625819D02*
X173659637Y-78959152D01*
X173659637Y-78625819D02*
X173612018Y-78673438D01*
X173612018Y-78673438D02*
X173659637Y-78721057D01*
X173659637Y-78721057D02*
X173707256Y-78673438D01*
X173707256Y-78673438D02*
X173659637Y-78625819D01*
X173659637Y-78625819D02*
X173659637Y-78721057D01*
X174516779Y-79578200D02*
X174421541Y-79625819D01*
X174421541Y-79625819D02*
X174231065Y-79625819D01*
X174231065Y-79625819D02*
X174135827Y-79578200D01*
X174135827Y-79578200D02*
X174088208Y-79482961D01*
X174088208Y-79482961D02*
X174088208Y-79102009D01*
X174088208Y-79102009D02*
X174135827Y-79006771D01*
X174135827Y-79006771D02*
X174231065Y-78959152D01*
X174231065Y-78959152D02*
X174421541Y-78959152D01*
X174421541Y-78959152D02*
X174516779Y-79006771D01*
X174516779Y-79006771D02*
X174564398Y-79102009D01*
X174564398Y-79102009D02*
X174564398Y-79197247D01*
X174564398Y-79197247D02*
X174088208Y-79292485D01*
X174992970Y-79625819D02*
X174992970Y-78959152D01*
X174992970Y-79149628D02*
X175040589Y-79054390D01*
X175040589Y-79054390D02*
X175088208Y-79006771D01*
X175088208Y-79006771D02*
X175183446Y-78959152D01*
X175183446Y-78959152D02*
X175278684Y-78959152D01*
X155394819Y-56305220D02*
X154394819Y-56305220D01*
X154394819Y-56305220D02*
X155109104Y-55971887D01*
X155109104Y-55971887D02*
X154394819Y-55638554D01*
X154394819Y-55638554D02*
X155394819Y-55638554D01*
X154394819Y-54971887D02*
X154394819Y-54781411D01*
X154394819Y-54781411D02*
X154442438Y-54686173D01*
X154442438Y-54686173D02*
X154537676Y-54590935D01*
X154537676Y-54590935D02*
X154728152Y-54543316D01*
X154728152Y-54543316D02*
X155061485Y-54543316D01*
X155061485Y-54543316D02*
X155251961Y-54590935D01*
X155251961Y-54590935D02*
X155347200Y-54686173D01*
X155347200Y-54686173D02*
X155394819Y-54781411D01*
X155394819Y-54781411D02*
X155394819Y-54971887D01*
X155394819Y-54971887D02*
X155347200Y-55067125D01*
X155347200Y-55067125D02*
X155251961Y-55162363D01*
X155251961Y-55162363D02*
X155061485Y-55209982D01*
X155061485Y-55209982D02*
X154728152Y-55209982D01*
X154728152Y-55209982D02*
X154537676Y-55162363D01*
X154537676Y-55162363D02*
X154442438Y-55067125D01*
X154442438Y-55067125D02*
X154394819Y-54971887D01*
X155347200Y-54162363D02*
X155394819Y-54019506D01*
X155394819Y-54019506D02*
X155394819Y-53781411D01*
X155394819Y-53781411D02*
X155347200Y-53686173D01*
X155347200Y-53686173D02*
X155299580Y-53638554D01*
X155299580Y-53638554D02*
X155204342Y-53590935D01*
X155204342Y-53590935D02*
X155109104Y-53590935D01*
X155109104Y-53590935D02*
X155013866Y-53638554D01*
X155013866Y-53638554D02*
X154966247Y-53686173D01*
X154966247Y-53686173D02*
X154918628Y-53781411D01*
X154918628Y-53781411D02*
X154871009Y-53971887D01*
X154871009Y-53971887D02*
X154823390Y-54067125D01*
X154823390Y-54067125D02*
X154775771Y-54114744D01*
X154775771Y-54114744D02*
X154680533Y-54162363D01*
X154680533Y-54162363D02*
X154585295Y-54162363D01*
X154585295Y-54162363D02*
X154490057Y-54114744D01*
X154490057Y-54114744D02*
X154442438Y-54067125D01*
X154442438Y-54067125D02*
X154394819Y-53971887D01*
X154394819Y-53971887D02*
X154394819Y-53733792D01*
X154394819Y-53733792D02*
X154442438Y-53590935D01*
X155394819Y-53162363D02*
X154394819Y-53162363D01*
D11*
X162499318Y-80614762D02*
X161229318Y-80614762D01*
X162378365Y-79284285D02*
X162438842Y-79344761D01*
X162438842Y-79344761D02*
X162499318Y-79526190D01*
X162499318Y-79526190D02*
X162499318Y-79647142D01*
X162499318Y-79647142D02*
X162438842Y-79828571D01*
X162438842Y-79828571D02*
X162317889Y-79949523D01*
X162317889Y-79949523D02*
X162196937Y-80010000D01*
X162196937Y-80010000D02*
X161955032Y-80070476D01*
X161955032Y-80070476D02*
X161773603Y-80070476D01*
X161773603Y-80070476D02*
X161531699Y-80010000D01*
X161531699Y-80010000D02*
X161410746Y-79949523D01*
X161410746Y-79949523D02*
X161289794Y-79828571D01*
X161289794Y-79828571D02*
X161229318Y-79647142D01*
X161229318Y-79647142D02*
X161229318Y-79526190D01*
X161229318Y-79526190D02*
X161289794Y-79344761D01*
X161289794Y-79344761D02*
X161350270Y-79284285D01*
X162499318Y-78074761D02*
X162499318Y-78800476D01*
X162499318Y-78437619D02*
X161229318Y-78437619D01*
X161229318Y-78437619D02*
X161410746Y-78558571D01*
X161410746Y-78558571D02*
X161531699Y-78679523D01*
X161531699Y-78679523D02*
X161592175Y-78800476D01*
D10*
X165323333Y-113536533D02*
X165256666Y-113603200D01*
X165256666Y-113603200D02*
X165056666Y-113669866D01*
X165056666Y-113669866D02*
X164923333Y-113669866D01*
X164923333Y-113669866D02*
X164723333Y-113603200D01*
X164723333Y-113603200D02*
X164590000Y-113469866D01*
X164590000Y-113469866D02*
X164523333Y-113336533D01*
X164523333Y-113336533D02*
X164456666Y-113069866D01*
X164456666Y-113069866D02*
X164456666Y-112869866D01*
X164456666Y-112869866D02*
X164523333Y-112603200D01*
X164523333Y-112603200D02*
X164590000Y-112469866D01*
X164590000Y-112469866D02*
X164723333Y-112336533D01*
X164723333Y-112336533D02*
X164923333Y-112269866D01*
X164923333Y-112269866D02*
X165056666Y-112269866D01*
X165056666Y-112269866D02*
X165256666Y-112336533D01*
X165256666Y-112336533D02*
X165323333Y-112403200D01*
X165923333Y-113669866D02*
X165923333Y-112269866D01*
X165923333Y-112936533D02*
X166723333Y-112936533D01*
X166723333Y-113669866D02*
X166723333Y-112269866D01*
X167656667Y-112269866D02*
X167790000Y-112269866D01*
X167790000Y-112269866D02*
X167923333Y-112336533D01*
X167923333Y-112336533D02*
X167990000Y-112403200D01*
X167990000Y-112403200D02*
X168056667Y-112536533D01*
X168056667Y-112536533D02*
X168123333Y-112803200D01*
X168123333Y-112803200D02*
X168123333Y-113136533D01*
X168123333Y-113136533D02*
X168056667Y-113403200D01*
X168056667Y-113403200D02*
X167990000Y-113536533D01*
X167990000Y-113536533D02*
X167923333Y-113603200D01*
X167923333Y-113603200D02*
X167790000Y-113669866D01*
X167790000Y-113669866D02*
X167656667Y-113669866D01*
X167656667Y-113669866D02*
X167523333Y-113603200D01*
X167523333Y-113603200D02*
X167456667Y-113536533D01*
X167456667Y-113536533D02*
X167390000Y-113403200D01*
X167390000Y-113403200D02*
X167323333Y-113136533D01*
X167323333Y-113136533D02*
X167323333Y-112803200D01*
X167323333Y-112803200D02*
X167390000Y-112536533D01*
X167390000Y-112536533D02*
X167456667Y-112403200D01*
X167456667Y-112403200D02*
X167523333Y-112336533D01*
X167523333Y-112336533D02*
X167656667Y-112269866D01*
X154441333Y-113574033D02*
X154374666Y-113640700D01*
X154374666Y-113640700D02*
X154174666Y-113707366D01*
X154174666Y-113707366D02*
X154041333Y-113707366D01*
X154041333Y-113707366D02*
X153841333Y-113640700D01*
X153841333Y-113640700D02*
X153708000Y-113507366D01*
X153708000Y-113507366D02*
X153641333Y-113374033D01*
X153641333Y-113374033D02*
X153574666Y-113107366D01*
X153574666Y-113107366D02*
X153574666Y-112907366D01*
X153574666Y-112907366D02*
X153641333Y-112640700D01*
X153641333Y-112640700D02*
X153708000Y-112507366D01*
X153708000Y-112507366D02*
X153841333Y-112374033D01*
X153841333Y-112374033D02*
X154041333Y-112307366D01*
X154041333Y-112307366D02*
X154174666Y-112307366D01*
X154174666Y-112307366D02*
X154374666Y-112374033D01*
X154374666Y-112374033D02*
X154441333Y-112440700D01*
X155041333Y-113707366D02*
X155041333Y-112307366D01*
X155041333Y-112974033D02*
X155841333Y-112974033D01*
X155841333Y-113707366D02*
X155841333Y-112307366D01*
X157241333Y-113707366D02*
X156441333Y-113707366D01*
X156841333Y-113707366D02*
X156841333Y-112307366D01*
X156841333Y-112307366D02*
X156708000Y-112507366D01*
X156708000Y-112507366D02*
X156574667Y-112640700D01*
X156574667Y-112640700D02*
X156441333Y-112707366D01*
X149524819Y-58753333D02*
X150239104Y-58753333D01*
X150239104Y-58753333D02*
X150381961Y-58800952D01*
X150381961Y-58800952D02*
X150477200Y-58896190D01*
X150477200Y-58896190D02*
X150524819Y-59039047D01*
X150524819Y-59039047D02*
X150524819Y-59134285D01*
X150524819Y-57753333D02*
X150524819Y-58324761D01*
X150524819Y-58039047D02*
X149524819Y-58039047D01*
X149524819Y-58039047D02*
X149667676Y-58134285D01*
X149667676Y-58134285D02*
X149762914Y-58229523D01*
X149762914Y-58229523D02*
X149810533Y-58324761D01*
D11*
X150929556Y-67914761D02*
X151534318Y-67914761D01*
X150264318Y-68338094D02*
X150929556Y-67914761D01*
X150929556Y-67914761D02*
X150264318Y-67491427D01*
X151534318Y-66402856D02*
X151534318Y-67128571D01*
X151534318Y-66765714D02*
X150264318Y-66765714D01*
X150264318Y-66765714D02*
X150445746Y-66886666D01*
X150445746Y-66886666D02*
X150566699Y-67007618D01*
X150566699Y-67007618D02*
X150627175Y-67128571D01*
D12*
%TO.C,R3*%
X169445000Y-92579564D02*
X169445000Y-92125436D01*
X170915000Y-92579564D02*
X170915000Y-92125436D01*
%TO.C,C8*%
X160150436Y-86260000D02*
X160604564Y-86260000D01*
X160150436Y-87730000D02*
X160604564Y-87730000D01*
%TO.C,C5*%
X160150436Y-91975000D02*
X160604564Y-91975000D01*
X160150436Y-93445000D02*
X160604564Y-93445000D01*
%TO.C,C6*%
X160150436Y-90070000D02*
X160604564Y-90070000D01*
X160150436Y-91540000D02*
X160604564Y-91540000D01*
D13*
%TO.C,IC1*%
X155535000Y-85050000D02*
X155535000Y-83150000D01*
X155510000Y-82800000D02*
X155510000Y-75950000D01*
X168340000Y-82800000D02*
X155510000Y-82800000D01*
X155510000Y-75950000D02*
X168340000Y-75950000D01*
X168340000Y-75950000D02*
X168340000Y-82800000D01*
D12*
%TO.C,D1*%
X174979000Y-62915436D02*
X174979000Y-63369564D01*
X173509000Y-62915436D02*
X173509000Y-63369564D01*
D14*
%TO.C,J4*%
X161330000Y-101122500D02*
X171330000Y-101122500D01*
X161330000Y-110122500D02*
X161330000Y-101122500D01*
X171330000Y-101122500D02*
X171330000Y-110122500D01*
X171330000Y-110122500D02*
X161330000Y-110122500D01*
D13*
X163930000Y-111122500D02*
G75*
G03*
X163730000Y-111122500I-100000J0D01*
G01*
X163730000Y-111122500D02*
G75*
G03*
X163930000Y-111122500I100000J0D01*
G01*
D12*
%TO.C,R10*%
X165835000Y-62915436D02*
X165835000Y-63369564D01*
X164365000Y-62915436D02*
X164365000Y-63369564D01*
%TO.C,C10*%
X166239564Y-88365000D02*
X165785436Y-88365000D01*
X166239564Y-86895000D02*
X165785436Y-86895000D01*
%TO.C,R11*%
X160555000Y-63369564D02*
X160555000Y-62915436D01*
X162025000Y-63369564D02*
X162025000Y-62915436D01*
D14*
%TO.C,J5*%
X150448000Y-101122500D02*
X160448000Y-101122500D01*
X150448000Y-110122500D02*
X150448000Y-101122500D01*
X160448000Y-101122500D02*
X160448000Y-110122500D01*
X160448000Y-110122500D02*
X150448000Y-110122500D01*
D13*
X153048000Y-111122500D02*
G75*
G03*
X152848000Y-111122500I-100000J0D01*
G01*
X152848000Y-111122500D02*
G75*
G03*
X153048000Y-111122500I100000J0D01*
G01*
D12*
%TO.C,FB2*%
X154713000Y-92071564D02*
X154713000Y-91617436D01*
X156183000Y-92071564D02*
X156183000Y-91617436D01*
%TO.C,R6*%
X166270000Y-92579564D02*
X166270000Y-92125436D01*
X167740000Y-92579564D02*
X167740000Y-92125436D01*
%TO.C,C7*%
X160150436Y-88165000D02*
X160604564Y-88165000D01*
X160150436Y-89635000D02*
X160604564Y-89635000D01*
%TO.C,C3*%
X154204936Y-88165000D02*
X154659064Y-88165000D01*
X154204936Y-89635000D02*
X154659064Y-89635000D01*
%TO.C,C11*%
X163295000Y-69900436D02*
X163295000Y-70354564D01*
X161825000Y-69900436D02*
X161825000Y-70354564D01*
%TO.C,R12*%
X150545436Y-61685363D02*
X150999564Y-61685363D01*
X150545436Y-63155363D02*
X150999564Y-63155363D01*
%TO.C,REF\u002A\u002A*%
D15*
X174604242Y-68915364D02*
X174582203Y-68954059D01*
X174546971Y-69015513D01*
X174499711Y-69097702D01*
X174441589Y-69198604D01*
X174373771Y-69316195D01*
X174297424Y-69448454D01*
X174213714Y-69593358D01*
X174123806Y-69748883D01*
X174028867Y-69913008D01*
X173992732Y-69975451D01*
X173896083Y-70142513D01*
X173803938Y-70301926D01*
X173717475Y-70451645D01*
X173637871Y-70589624D01*
X173566305Y-70713815D01*
X173503955Y-70822173D01*
X173451998Y-70912652D01*
X173411613Y-70983204D01*
X173383978Y-71031785D01*
X173370272Y-71056346D01*
X173368974Y-71058915D01*
X173357220Y-71051431D01*
X173325795Y-71025386D01*
X173277594Y-70983441D01*
X173215510Y-70928254D01*
X173142439Y-70862483D01*
X173061276Y-70788788D01*
X172974916Y-70709827D01*
X172886253Y-70628260D01*
X172798182Y-70546746D01*
X172713599Y-70467943D01*
X172635397Y-70394510D01*
X172566472Y-70329107D01*
X172509719Y-70274392D01*
X172468032Y-70233023D01*
X172454363Y-70218836D01*
X172410201Y-70171820D01*
X172446619Y-70148472D01*
X172465693Y-70137092D01*
X172509421Y-70111512D01*
X172575619Y-70072998D01*
X172662102Y-70022814D01*
X172766685Y-69962225D01*
X172887183Y-69892497D01*
X173021412Y-69814893D01*
X173167187Y-69730680D01*
X173322323Y-69641121D01*
X173482000Y-69549002D01*
X173645117Y-69454924D01*
X173801709Y-69364598D01*
X173949506Y-69279335D01*
X174086240Y-69200443D01*
X174209642Y-69129231D01*
X174317444Y-69067009D01*
X174407377Y-69015087D01*
X174477173Y-68974772D01*
X174524564Y-68947376D01*
X174546786Y-68934493D01*
X174584330Y-68913493D01*
X174607831Y-68902075D01*
X174611920Y-68901449D01*
X174604242Y-68915364D01*
G36*
X174604242Y-68915364D02*
G01*
X174582203Y-68954059D01*
X174546971Y-69015513D01*
X174499711Y-69097702D01*
X174441589Y-69198604D01*
X174373771Y-69316195D01*
X174297424Y-69448454D01*
X174213714Y-69593358D01*
X174123806Y-69748883D01*
X174028867Y-69913008D01*
X173992732Y-69975451D01*
X173896083Y-70142513D01*
X173803938Y-70301926D01*
X173717475Y-70451645D01*
X173637871Y-70589624D01*
X173566305Y-70713815D01*
X173503955Y-70822173D01*
X173451998Y-70912652D01*
X173411613Y-70983204D01*
X173383978Y-71031785D01*
X173370272Y-71056346D01*
X173368974Y-71058915D01*
X173357220Y-71051431D01*
X173325795Y-71025386D01*
X173277594Y-70983441D01*
X173215510Y-70928254D01*
X173142439Y-70862483D01*
X173061276Y-70788788D01*
X172974916Y-70709827D01*
X172886253Y-70628260D01*
X172798182Y-70546746D01*
X172713599Y-70467943D01*
X172635397Y-70394510D01*
X172566472Y-70329107D01*
X172509719Y-70274392D01*
X172468032Y-70233023D01*
X172454363Y-70218836D01*
X172410201Y-70171820D01*
X172446619Y-70148472D01*
X172465693Y-70137092D01*
X172509421Y-70111512D01*
X172575619Y-70072998D01*
X172662102Y-70022814D01*
X172766685Y-69962225D01*
X172887183Y-69892497D01*
X173021412Y-69814893D01*
X173167187Y-69730680D01*
X173322323Y-69641121D01*
X173482000Y-69549002D01*
X173645117Y-69454924D01*
X173801709Y-69364598D01*
X173949506Y-69279335D01*
X174086240Y-69200443D01*
X174209642Y-69129231D01*
X174317444Y-69067009D01*
X174407377Y-69015087D01*
X174477173Y-68974772D01*
X174524564Y-68947376D01*
X174546786Y-68934493D01*
X174584330Y-68913493D01*
X174607831Y-68902075D01*
X174611920Y-68901449D01*
X174604242Y-68915364D01*
G37*
X171343965Y-70817499D02*
X171371882Y-70854886D01*
X171406725Y-70911765D01*
X171445754Y-70983688D01*
X171482843Y-71058985D01*
X171527817Y-71161440D01*
X171568226Y-71269183D01*
X171604969Y-71385927D01*
X171638942Y-71515382D01*
X171671044Y-71661260D01*
X171702173Y-71827274D01*
X171733227Y-72017134D01*
X171762145Y-72213531D01*
X171787800Y-72384166D01*
X171813198Y-72527455D01*
X171839602Y-72646992D01*
X171868273Y-72746370D01*
X171900473Y-72829182D01*
X171937465Y-72899022D01*
X171980512Y-72959482D01*
X172030875Y-73014155D01*
X172049583Y-73031786D01*
X172093139Y-73070000D01*
X172128682Y-73098268D01*
X172149583Y-73111382D01*
X172151297Y-73111732D01*
X172161806Y-73116320D01*
X172161924Y-73132242D01*
X172150254Y-73162734D01*
X172125396Y-73211032D01*
X172085952Y-73280373D01*
X172057587Y-73328561D01*
X172013247Y-73400417D01*
X171975279Y-73456258D01*
X171946416Y-73492333D01*
X171929388Y-73504887D01*
X171929264Y-73504879D01*
X171913037Y-73497094D01*
X171872400Y-73475108D01*
X171809567Y-73440197D01*
X171726752Y-73393637D01*
X171626172Y-73336705D01*
X171510040Y-73270677D01*
X171380571Y-73196828D01*
X171239980Y-73116436D01*
X171090482Y-73030776D01*
X170934292Y-72941124D01*
X170773624Y-72848757D01*
X170610693Y-72754951D01*
X170447713Y-72660982D01*
X170286900Y-72568126D01*
X170130468Y-72477660D01*
X169980633Y-72390859D01*
X169839608Y-72309000D01*
X169709609Y-72233359D01*
X169592849Y-72165213D01*
X169491545Y-72105837D01*
X169407911Y-72056507D01*
X169344162Y-72018500D01*
X169302511Y-71993093D01*
X169285175Y-71981560D01*
X169284805Y-71981077D01*
X169297835Y-71971957D01*
X169335245Y-71948935D01*
X169394514Y-71913466D01*
X169473118Y-71867004D01*
X169568538Y-71811004D01*
X169678250Y-71746919D01*
X169799734Y-71676204D01*
X169930468Y-71600313D01*
X170067930Y-71520701D01*
X170209598Y-71438822D01*
X170352951Y-71356130D01*
X170495467Y-71274079D01*
X170634624Y-71194124D01*
X170767901Y-71117719D01*
X170892776Y-71046318D01*
X171006727Y-70981376D01*
X171107233Y-70924347D01*
X171191772Y-70876685D01*
X171257822Y-70839845D01*
X171302862Y-70815280D01*
X171324370Y-70804446D01*
X171325714Y-70804049D01*
X171343965Y-70817499D01*
G36*
X171343965Y-70817499D02*
G01*
X171371882Y-70854886D01*
X171406725Y-70911765D01*
X171445754Y-70983688D01*
X171482843Y-71058985D01*
X171527817Y-71161440D01*
X171568226Y-71269183D01*
X171604969Y-71385927D01*
X171638942Y-71515382D01*
X171671044Y-71661260D01*
X171702173Y-71827274D01*
X171733227Y-72017134D01*
X171762145Y-72213531D01*
X171787800Y-72384166D01*
X171813198Y-72527455D01*
X171839602Y-72646992D01*
X171868273Y-72746370D01*
X171900473Y-72829182D01*
X171937465Y-72899022D01*
X171980512Y-72959482D01*
X172030875Y-73014155D01*
X172049583Y-73031786D01*
X172093139Y-73070000D01*
X172128682Y-73098268D01*
X172149583Y-73111382D01*
X172151297Y-73111732D01*
X172161806Y-73116320D01*
X172161924Y-73132242D01*
X172150254Y-73162734D01*
X172125396Y-73211032D01*
X172085952Y-73280373D01*
X172057587Y-73328561D01*
X172013247Y-73400417D01*
X171975279Y-73456258D01*
X171946416Y-73492333D01*
X171929388Y-73504887D01*
X171929264Y-73504879D01*
X171913037Y-73497094D01*
X171872400Y-73475108D01*
X171809567Y-73440197D01*
X171726752Y-73393637D01*
X171626172Y-73336705D01*
X171510040Y-73270677D01*
X171380571Y-73196828D01*
X171239980Y-73116436D01*
X171090482Y-73030776D01*
X170934292Y-72941124D01*
X170773624Y-72848757D01*
X170610693Y-72754951D01*
X170447713Y-72660982D01*
X170286900Y-72568126D01*
X170130468Y-72477660D01*
X169980633Y-72390859D01*
X169839608Y-72309000D01*
X169709609Y-72233359D01*
X169592849Y-72165213D01*
X169491545Y-72105837D01*
X169407911Y-72056507D01*
X169344162Y-72018500D01*
X169302511Y-71993093D01*
X169285175Y-71981560D01*
X169284805Y-71981077D01*
X169297835Y-71971957D01*
X169335245Y-71948935D01*
X169394514Y-71913466D01*
X169473118Y-71867004D01*
X169568538Y-71811004D01*
X169678250Y-71746919D01*
X169799734Y-71676204D01*
X169930468Y-71600313D01*
X170067930Y-71520701D01*
X170209598Y-71438822D01*
X170352951Y-71356130D01*
X170495467Y-71274079D01*
X170634624Y-71194124D01*
X170767901Y-71117719D01*
X170892776Y-71046318D01*
X171006727Y-70981376D01*
X171107233Y-70924347D01*
X171191772Y-70876685D01*
X171257822Y-70839845D01*
X171302862Y-70815280D01*
X171324370Y-70804446D01*
X171325714Y-70804049D01*
X171343965Y-70817499D01*
G37*
X175158280Y-69215598D02*
X175159559Y-69258896D01*
X175160796Y-69330286D01*
X175161983Y-69428327D01*
X175163115Y-69551578D01*
X175164186Y-69698597D01*
X175165189Y-69867943D01*
X175166119Y-70058174D01*
X175166968Y-70267849D01*
X175167732Y-70495527D01*
X175168403Y-70739765D01*
X175168976Y-70999123D01*
X175169444Y-71272159D01*
X175169802Y-71557432D01*
X175170042Y-71853500D01*
X175170159Y-72158921D01*
X175170171Y-72287076D01*
X175170171Y-75387030D01*
X174786847Y-75165947D01*
X174705680Y-75119144D01*
X174601166Y-75058898D01*
X174476801Y-74987222D01*
X174336082Y-74906131D01*
X174182503Y-74817638D01*
X174019562Y-74723760D01*
X173850754Y-74626509D01*
X173679575Y-74527900D01*
X173509521Y-74429947D01*
X173466512Y-74405175D01*
X173309857Y-74314848D01*
X173160803Y-74228711D01*
X173021568Y-74148058D01*
X172894371Y-74074184D01*
X172781432Y-74008383D01*
X172684968Y-73951950D01*
X172607200Y-73906179D01*
X172550346Y-73872365D01*
X172516625Y-73851802D01*
X172508040Y-73846047D01*
X172501189Y-73833942D01*
X172503158Y-73813906D01*
X172515736Y-73781381D01*
X172540712Y-73731807D01*
X172579876Y-73660626D01*
X172582988Y-73655084D01*
X172620476Y-73589526D01*
X172653319Y-73534202D01*
X172678205Y-73494545D01*
X172691820Y-73475988D01*
X172692487Y-73475469D01*
X172711390Y-73479952D01*
X172753605Y-73500514D01*
X172816832Y-73535817D01*
X172898772Y-73584520D01*
X172997122Y-73645282D01*
X173109585Y-73716764D01*
X173137165Y-73734555D01*
X173213699Y-73780907D01*
X173279556Y-73814658D01*
X173328782Y-73832847D01*
X173338507Y-73834714D01*
X173381312Y-73833885D01*
X173449209Y-73824606D01*
X173537843Y-73808032D01*
X173642859Y-73785320D01*
X173759902Y-73757627D01*
X173884616Y-73726110D01*
X174012645Y-73691925D01*
X174139634Y-73656229D01*
X174261228Y-73620179D01*
X174373072Y-73584932D01*
X174470810Y-73551644D01*
X174550087Y-73521472D01*
X174597122Y-73500439D01*
X174647225Y-73475663D01*
X174695168Y-73452270D01*
X174697793Y-73451003D01*
X174746220Y-73412301D01*
X174778828Y-73355816D01*
X174794454Y-73290061D01*
X174791937Y-73223549D01*
X174770114Y-73164795D01*
X174741382Y-73131742D01*
X174662583Y-73084141D01*
X174564378Y-73049261D01*
X174456779Y-73030123D01*
X174395780Y-73027412D01*
X174281935Y-73038330D01*
X174187660Y-73070376D01*
X174108379Y-73125274D01*
X174090733Y-73142393D01*
X174041235Y-73193339D01*
X173691362Y-73196837D01*
X173341489Y-73200336D01*
X173206531Y-73111182D01*
X173145445Y-73069346D01*
X173090493Y-73029055D01*
X173049336Y-72996057D01*
X173034192Y-72981874D01*
X172996810Y-72941719D01*
X173026098Y-72887335D01*
X173047084Y-72852961D01*
X173063378Y-72834154D01*
X173066307Y-72832951D01*
X173078728Y-72820097D01*
X173087977Y-72798104D01*
X173096313Y-72776850D01*
X173112149Y-72744306D01*
X173137033Y-72697678D01*
X173172509Y-72634171D01*
X173220123Y-72550992D01*
X173281422Y-72445347D01*
X173314932Y-72387938D01*
X173355071Y-72320406D01*
X173383659Y-72276115D01*
X173404039Y-72251145D01*
X173419553Y-72241577D01*
X173433546Y-72243492D01*
X173436796Y-72245089D01*
X173457266Y-72260624D01*
X173495665Y-72293864D01*
X173547696Y-72340938D01*
X173609066Y-72397972D01*
X173661090Y-72447300D01*
X173784567Y-72560970D01*
X173891591Y-72649895D01*
X173983240Y-72714866D01*
X174060588Y-72756679D01*
X174099866Y-72770783D01*
X174134249Y-72776608D01*
X174192899Y-72782625D01*
X174269117Y-72788304D01*
X174356202Y-72793116D01*
X174411268Y-72795381D01*
X174506464Y-72798541D01*
X174576062Y-72799931D01*
X174625409Y-72799142D01*
X174659854Y-72795765D01*
X174684743Y-72789392D01*
X174705425Y-72779613D01*
X174718053Y-72771933D01*
X174766726Y-72727579D01*
X174800645Y-72670426D01*
X174815438Y-72610292D01*
X174810086Y-72565227D01*
X174786930Y-72524424D01*
X174745462Y-72473276D01*
X174692912Y-72418958D01*
X174636516Y-72368643D01*
X174583505Y-72329506D01*
X174557889Y-72315095D01*
X174522814Y-72293509D01*
X174469389Y-72254247D01*
X174401789Y-72200898D01*
X174324190Y-72137048D01*
X174240768Y-72066285D01*
X174155698Y-71992196D01*
X174073155Y-71918368D01*
X173997316Y-71848389D01*
X173932356Y-71785845D01*
X173884669Y-71736740D01*
X173837032Y-71682221D01*
X173801908Y-71636358D01*
X173782949Y-71604189D01*
X173780864Y-71593511D01*
X173789274Y-71577147D01*
X173811846Y-71536329D01*
X173847224Y-71473414D01*
X173894054Y-71390756D01*
X173950981Y-71290711D01*
X174016649Y-71175634D01*
X174089703Y-71047881D01*
X174168788Y-70909806D01*
X174252548Y-70763766D01*
X174339629Y-70612116D01*
X174428676Y-70457210D01*
X174518332Y-70301405D01*
X174607243Y-70147056D01*
X174694054Y-69996518D01*
X174777409Y-69852146D01*
X174855954Y-69716296D01*
X174928333Y-69591323D01*
X174993190Y-69479583D01*
X175049171Y-69383430D01*
X175094920Y-69305221D01*
X175129083Y-69247311D01*
X175150304Y-69212054D01*
X175156963Y-69201835D01*
X175158280Y-69215598D01*
G36*
X175158280Y-69215598D02*
G01*
X175159559Y-69258896D01*
X175160796Y-69330286D01*
X175161983Y-69428327D01*
X175163115Y-69551578D01*
X175164186Y-69698597D01*
X175165189Y-69867943D01*
X175166119Y-70058174D01*
X175166968Y-70267849D01*
X175167732Y-70495527D01*
X175168403Y-70739765D01*
X175168976Y-70999123D01*
X175169444Y-71272159D01*
X175169802Y-71557432D01*
X175170042Y-71853500D01*
X175170159Y-72158921D01*
X175170171Y-72287076D01*
X175170171Y-75387030D01*
X174786847Y-75165947D01*
X174705680Y-75119144D01*
X174601166Y-75058898D01*
X174476801Y-74987222D01*
X174336082Y-74906131D01*
X174182503Y-74817638D01*
X174019562Y-74723760D01*
X173850754Y-74626509D01*
X173679575Y-74527900D01*
X173509521Y-74429947D01*
X173466512Y-74405175D01*
X173309857Y-74314848D01*
X173160803Y-74228711D01*
X173021568Y-74148058D01*
X172894371Y-74074184D01*
X172781432Y-74008383D01*
X172684968Y-73951950D01*
X172607200Y-73906179D01*
X172550346Y-73872365D01*
X172516625Y-73851802D01*
X172508040Y-73846047D01*
X172501189Y-73833942D01*
X172503158Y-73813906D01*
X172515736Y-73781381D01*
X172540712Y-73731807D01*
X172579876Y-73660626D01*
X172582988Y-73655084D01*
X172620476Y-73589526D01*
X172653319Y-73534202D01*
X172678205Y-73494545D01*
X172691820Y-73475988D01*
X172692487Y-73475469D01*
X172711390Y-73479952D01*
X172753605Y-73500514D01*
X172816832Y-73535817D01*
X172898772Y-73584520D01*
X172997122Y-73645282D01*
X173109585Y-73716764D01*
X173137165Y-73734555D01*
X173213699Y-73780907D01*
X173279556Y-73814658D01*
X173328782Y-73832847D01*
X173338507Y-73834714D01*
X173381312Y-73833885D01*
X173449209Y-73824606D01*
X173537843Y-73808032D01*
X173642859Y-73785320D01*
X173759902Y-73757627D01*
X173884616Y-73726110D01*
X174012645Y-73691925D01*
X174139634Y-73656229D01*
X174261228Y-73620179D01*
X174373072Y-73584932D01*
X174470810Y-73551644D01*
X174550087Y-73521472D01*
X174597122Y-73500439D01*
X174647225Y-73475663D01*
X174695168Y-73452270D01*
X174697793Y-73451003D01*
X174746220Y-73412301D01*
X174778828Y-73355816D01*
X174794454Y-73290061D01*
X174791937Y-73223549D01*
X174770114Y-73164795D01*
X174741382Y-73131742D01*
X174662583Y-73084141D01*
X174564378Y-73049261D01*
X174456779Y-73030123D01*
X174395780Y-73027412D01*
X174281935Y-73038330D01*
X174187660Y-73070376D01*
X174108379Y-73125274D01*
X174090733Y-73142393D01*
X174041235Y-73193339D01*
X173691362Y-73196837D01*
X173341489Y-73200336D01*
X173206531Y-73111182D01*
X173145445Y-73069346D01*
X173090493Y-73029055D01*
X173049336Y-72996057D01*
X173034192Y-72981874D01*
X172996810Y-72941719D01*
X173026098Y-72887335D01*
X173047084Y-72852961D01*
X173063378Y-72834154D01*
X173066307Y-72832951D01*
X173078728Y-72820097D01*
X173087977Y-72798104D01*
X173096313Y-72776850D01*
X173112149Y-72744306D01*
X173137033Y-72697678D01*
X173172509Y-72634171D01*
X173220123Y-72550992D01*
X173281422Y-72445347D01*
X173314932Y-72387938D01*
X173355071Y-72320406D01*
X173383659Y-72276115D01*
X173404039Y-72251145D01*
X173419553Y-72241577D01*
X173433546Y-72243492D01*
X173436796Y-72245089D01*
X173457266Y-72260624D01*
X173495665Y-72293864D01*
X173547696Y-72340938D01*
X173609066Y-72397972D01*
X173661090Y-72447300D01*
X173784567Y-72560970D01*
X173891591Y-72649895D01*
X173983240Y-72714866D01*
X174060588Y-72756679D01*
X174099866Y-72770783D01*
X174134249Y-72776608D01*
X174192899Y-72782625D01*
X174269117Y-72788304D01*
X174356202Y-72793116D01*
X174411268Y-72795381D01*
X174506464Y-72798541D01*
X174576062Y-72799931D01*
X174625409Y-72799142D01*
X174659854Y-72795765D01*
X174684743Y-72789392D01*
X174705425Y-72779613D01*
X174718053Y-72771933D01*
X174766726Y-72727579D01*
X174800645Y-72670426D01*
X174815438Y-72610292D01*
X174810086Y-72565227D01*
X174786930Y-72524424D01*
X174745462Y-72473276D01*
X174692912Y-72418958D01*
X174636516Y-72368643D01*
X174583505Y-72329506D01*
X174557889Y-72315095D01*
X174522814Y-72293509D01*
X174469389Y-72254247D01*
X174401789Y-72200898D01*
X174324190Y-72137048D01*
X174240768Y-72066285D01*
X174155698Y-71992196D01*
X174073155Y-71918368D01*
X173997316Y-71848389D01*
X173932356Y-71785845D01*
X173884669Y-71736740D01*
X173837032Y-71682221D01*
X173801908Y-71636358D01*
X173782949Y-71604189D01*
X173780864Y-71593511D01*
X173789274Y-71577147D01*
X173811846Y-71536329D01*
X173847224Y-71473414D01*
X173894054Y-71390756D01*
X173950981Y-71290711D01*
X174016649Y-71175634D01*
X174089703Y-71047881D01*
X174168788Y-70909806D01*
X174252548Y-70763766D01*
X174339629Y-70612116D01*
X174428676Y-70457210D01*
X174518332Y-70301405D01*
X174607243Y-70147056D01*
X174694054Y-69996518D01*
X174777409Y-69852146D01*
X174855954Y-69716296D01*
X174928333Y-69591323D01*
X174993190Y-69479583D01*
X175049171Y-69383430D01*
X175094920Y-69305221D01*
X175129083Y-69247311D01*
X175150304Y-69212054D01*
X175156963Y-69201835D01*
X175158280Y-69215598D01*
G37*
D12*
%TO.C,J1*%
X151070000Y-59750000D02*
X151070000Y-58420000D01*
X152400000Y-59750000D02*
X151070000Y-59750000D01*
X153670000Y-59750000D02*
X171510000Y-59750000D01*
X153670000Y-59750000D02*
X153670000Y-57090000D01*
X171510000Y-59750000D02*
X171510000Y-57090000D01*
X153670000Y-57090000D02*
X171510000Y-57090000D01*
%TO.C,C9*%
X169317936Y-86895000D02*
X169772064Y-86895000D01*
X169317936Y-88365000D02*
X169772064Y-88365000D01*
%TO.C,R5*%
X164365000Y-92579564D02*
X164365000Y-92125436D01*
X165835000Y-92579564D02*
X165835000Y-92125436D01*
%TO.C,C12*%
X150545436Y-71655000D02*
X150999564Y-71655000D01*
X150545436Y-73125000D02*
X150999564Y-73125000D01*
%TO.C,C2*%
X163602936Y-66575000D02*
X164057064Y-66575000D01*
X163602936Y-68045000D02*
X164057064Y-68045000D01*
%TO.C,R1*%
X169645000Y-62915436D02*
X169645000Y-63369564D01*
X168175000Y-62915436D02*
X168175000Y-63369564D01*
%TO.C,R7*%
X166279564Y-95985000D02*
X165825436Y-95985000D01*
X166279564Y-94515000D02*
X165825436Y-94515000D01*
%TO.C,FB1*%
X152681000Y-92071564D02*
X152681000Y-91617436D01*
X154151000Y-92071564D02*
X154151000Y-91617436D01*
%TO.C,R8*%
X160524564Y-98779000D02*
X160070436Y-98779000D01*
X160524564Y-97309000D02*
X160070436Y-97309000D01*
%TO.C,R2*%
X171350000Y-92579564D02*
X171350000Y-92125436D01*
X172820000Y-92579564D02*
X172820000Y-92125436D01*
%TO.C,C1*%
X164365000Y-70354564D02*
X164365000Y-69900436D01*
X165835000Y-70354564D02*
X165835000Y-69900436D01*
%TO.C,C4*%
X154204936Y-86260000D02*
X154659064Y-86260000D01*
X154204936Y-87730000D02*
X154659064Y-87730000D01*
%TO.C,R13*%
X173104436Y-65813000D02*
X173558564Y-65813000D01*
X173104436Y-67283000D02*
X173558564Y-67283000D01*
D13*
%TO.C,Y1*%
X152560000Y-69810000D02*
X149360000Y-69810000D01*
D16*
X153260000Y-68580000D02*
X153260000Y-68580000D01*
X153360000Y-68580000D02*
X153360000Y-68580000D01*
D13*
X149360000Y-64810000D02*
X152560000Y-64810000D01*
D16*
X153360000Y-68580000D02*
G75*
G03*
X153260000Y-68580000I-50000J0D01*
G01*
X153260000Y-68580000D02*
G75*
G03*
X153360000Y-68580000I50000J0D01*
G01*
D12*
%TO.C,R9*%
X156945000Y-62915436D02*
X156945000Y-63369564D01*
X155475000Y-62915436D02*
X155475000Y-63369564D01*
%TO.C,R4*%
X171399564Y-95985000D02*
X170945436Y-95985000D01*
X171399564Y-94515000D02*
X170945436Y-94515000D01*
%TD*%
M02*
