M48
; DRILL file {KiCad 7.0.10-7.0.10~ubuntu22.04.1} date Thu 28 Mar 2024 03:08:31 PM CDT
; FORMAT={-:-/ absolute / inch / decimal}
; #@! TF.CreationDate,2024-03-28T15:08:31-05:00
; #@! TF.GenerationSoftware,Kicad,Pcbnew,7.0.10-7.0.10~ubuntu22.04.1
; #@! TF.FileFunction,Plated,1,4,PTH
FMAT,2
INCH
; #@! TA.AperFunction,Plated,PTH,ViaDrill
T1C0.0157
; #@! TA.AperFunction,Plated,PTH,ComponentDrill
T2C0.0394
; #@! TA.AperFunction,Plated,PTH,ComponentDrill
T3C0.0512
; #@! TA.AperFunction,Plated,PTH,ComponentDrill
T4C0.0866
%
G90
G05
T1
X5.82Y-2.85
X6.05Y-2.4575
X6.05Y-2.85
X6.075Y-2.6
X6.15Y-2.4
X6.2Y-3.65
X6.3Y-2.85
X6.325Y-2.575
X6.4Y-2.85
X6.41Y-3.425
X6.41Y-3.5
X6.41Y-3.575
X6.41Y-3.65
X6.425Y-2.575
X6.44Y-3.75
X6.5Y-2.4
X6.5Y-2.575
X6.5Y-2.85
X6.65Y-2.4
X6.72Y-2.62
X6.84Y-3.75
X6.86Y-2.38
T2
X6.0Y-2.3
X6.1Y-2.3
X6.2Y-2.3
X6.3Y-2.3
X6.4Y-2.3
X6.5Y-2.3
X6.6Y-2.3
X6.7Y-2.3
T3
X6.0216Y-4.1781
X6.2184Y-4.1781
X6.45Y-4.1781
X6.6469Y-4.1781
T4
X5.8Y-2.12
X5.8Y-4.42
X6.88Y-2.12
X6.88Y-4.42
M30
