%TF.GenerationSoftware,KiCad,Pcbnew,7.0.10-7.0.10~ubuntu22.04.1*%
%TF.CreationDate,2024-03-24T18:48:01-05:00*%
%TF.ProjectId,IIoT_Sensor,49496f54-5f53-4656-9e73-6f722e6b6963,1.0*%
%TF.SameCoordinates,Original*%
%TF.FileFunction,Paste,Top*%
%TF.FilePolarity,Positive*%
%FSLAX46Y46*%
G04 Gerber Fmt 4.6, Leading zero omitted, Abs format (unit mm)*
G04 Created by KiCad (PCBNEW 7.0.10-7.0.10~ubuntu22.04.1) date 2024-03-24 18:48:01*
%MOMM*%
%LPD*%
G01*
G04 APERTURE LIST*
G04 Aperture macros list*
%AMRoundRect*
0 Rectangle with rounded corners*
0 $1 Rounding radius*
0 $2 $3 $4 $5 $6 $7 $8 $9 X,Y pos of 4 corners*
0 Add a 4 corners polygon primitive as box body*
4,1,4,$2,$3,$4,$5,$6,$7,$8,$9,$2,$3,0*
0 Add four circle primitives for the rounded corners*
1,1,$1+$1,$2,$3*
1,1,$1+$1,$4,$5*
1,1,$1+$1,$6,$7*
1,1,$1+$1,$8,$9*
0 Add four rect primitives between the rounded corners*
20,1,$1+$1,$2,$3,$4,$5,0*
20,1,$1+$1,$4,$5,$6,$7,0*
20,1,$1+$1,$6,$7,$8,$9,0*
20,1,$1+$1,$8,$9,$2,$3,0*%
G04 Aperture macros list end*
%ADD10RoundRect,0.250000X0.450000X-0.262500X0.450000X0.262500X-0.450000X0.262500X-0.450000X-0.262500X0*%
%ADD11RoundRect,0.250000X-0.262500X-0.450000X0.262500X-0.450000X0.262500X0.450000X-0.262500X0.450000X0*%
%ADD12R,0.650000X1.900000*%
%ADD13RoundRect,0.250000X-0.450000X0.262500X-0.450000X-0.262500X0.450000X-0.262500X0.450000X0.262500X0*%
%ADD14RoundRect,0.250000X0.262500X0.450000X-0.262500X0.450000X-0.262500X-0.450000X0.262500X-0.450000X0*%
%ADD15R,1.500000X1.700000*%
G04 APERTURE END LIST*
D10*
%TO.C,R3*%
X170180000Y-93265000D03*
X170180000Y-91440000D03*
%TD*%
D11*
%TO.C,C8*%
X159465000Y-86995000D03*
X161290000Y-86995000D03*
%TD*%
%TO.C,C5*%
X159465000Y-92710000D03*
X161290000Y-92710000D03*
%TD*%
%TO.C,C6*%
X159465000Y-90805000D03*
X161290000Y-90805000D03*
%TD*%
D12*
%TO.C,IC1*%
X156210000Y-84100000D03*
X157480000Y-84100000D03*
X158750000Y-84100000D03*
X160020000Y-84100000D03*
X161290000Y-84100000D03*
X162560000Y-84100000D03*
X163830000Y-84100000D03*
X165100000Y-84100000D03*
X166370000Y-84100000D03*
X167640000Y-84100000D03*
X167640000Y-74650000D03*
X166370000Y-74650000D03*
X165100000Y-74650000D03*
X163830000Y-74650000D03*
X162560000Y-74650000D03*
X161290000Y-74650000D03*
X160020000Y-74650000D03*
X158750000Y-74650000D03*
X157480000Y-74650000D03*
X156210000Y-74650000D03*
%TD*%
D13*
%TO.C,D1*%
X174244000Y-61976000D03*
X174244000Y-63801000D03*
%TD*%
%TO.C,R10*%
X164465000Y-62230000D03*
X164465000Y-64055000D03*
%TD*%
D14*
%TO.C,C10*%
X166925000Y-87630000D03*
X165100000Y-87630000D03*
%TD*%
D10*
%TO.C,R11*%
X161290000Y-64055000D03*
X161290000Y-62230000D03*
%TD*%
%TO.C,FB2*%
X155448000Y-92757000D03*
X155448000Y-90932000D03*
%TD*%
%TO.C,R6*%
X167005000Y-93265000D03*
X167005000Y-91440000D03*
%TD*%
D11*
%TO.C,C7*%
X159465000Y-88900000D03*
X161290000Y-88900000D03*
%TD*%
%TO.C,C3*%
X153519500Y-88900000D03*
X155344500Y-88900000D03*
%TD*%
D13*
%TO.C,C11*%
X162560000Y-69215000D03*
X162560000Y-71040000D03*
%TD*%
D11*
%TO.C,R12*%
X150047500Y-62420363D03*
X151872500Y-62420363D03*
%TD*%
%TO.C,C9*%
X168632500Y-87630000D03*
X170457500Y-87630000D03*
%TD*%
D10*
%TO.C,R5*%
X165100000Y-93265000D03*
X165100000Y-91440000D03*
%TD*%
D11*
%TO.C,C12*%
X150047500Y-72390000D03*
X151872500Y-72390000D03*
%TD*%
%TO.C,C2*%
X162917500Y-67310000D03*
X164742500Y-67310000D03*
%TD*%
D13*
%TO.C,R1*%
X168910000Y-62230000D03*
X168910000Y-64055000D03*
%TD*%
D14*
%TO.C,R7*%
X166965000Y-95250000D03*
X165140000Y-95250000D03*
%TD*%
D10*
%TO.C,FB1*%
X153416000Y-92757000D03*
X153416000Y-90932000D03*
%TD*%
D14*
%TO.C,R8*%
X161210000Y-97790000D03*
X159385000Y-97790000D03*
%TD*%
D10*
%TO.C,R2*%
X172085000Y-93265000D03*
X172085000Y-91440000D03*
%TD*%
%TO.C,C1*%
X165100000Y-71040000D03*
X165100000Y-69215000D03*
%TD*%
D11*
%TO.C,C4*%
X153519500Y-86995000D03*
X155344500Y-86995000D03*
%TD*%
%TO.C,R13*%
X172419000Y-66548000D03*
X174244000Y-66548000D03*
%TD*%
D15*
%TO.C,Y1*%
X152060000Y-68580000D03*
X152060000Y-66040000D03*
X149860000Y-66040000D03*
X149860000Y-68580000D03*
%TD*%
D13*
%TO.C,R9*%
X156210000Y-62230000D03*
X156210000Y-64055000D03*
%TD*%
D14*
%TO.C,R4*%
X172085000Y-95250000D03*
X170260000Y-95250000D03*
%TD*%
M02*
