%TF.GenerationSoftware,KiCad,Pcbnew,7.0.10-7.0.10~ubuntu22.04.1*%
%TF.CreationDate,2024-03-28T15:08:32-05:00*%
%TF.ProjectId,IIoT_Sensor,49496f54-5f53-4656-9e73-6f722e6b6963,1.0*%
%TF.SameCoordinates,Original*%
%TF.FileFunction,Copper,L1,Top*%
%TF.FilePolarity,Positive*%
%FSLAX46Y46*%
G04 Gerber Fmt 4.6, Leading zero omitted, Abs format (unit mm)*
G04 Created by KiCad (PCBNEW 7.0.10-7.0.10~ubuntu22.04.1) date 2024-03-28 15:08:32*
%MOMM*%
%LPD*%
G01*
G04 APERTURE LIST*
G04 Aperture macros list*
%AMRoundRect*
0 Rectangle with rounded corners*
0 $1 Rounding radius*
0 $2 $3 $4 $5 $6 $7 $8 $9 X,Y pos of 4 corners*
0 Add a 4 corners polygon primitive as box body*
4,1,4,$2,$3,$4,$5,$6,$7,$8,$9,$2,$3,0*
0 Add four circle primitives for the rounded corners*
1,1,$1+$1,$2,$3*
1,1,$1+$1,$4,$5*
1,1,$1+$1,$6,$7*
1,1,$1+$1,$8,$9*
0 Add four rect primitives between the rounded corners*
20,1,$1+$1,$2,$3,$4,$5,0*
20,1,$1+$1,$4,$5,$6,$7,0*
20,1,$1+$1,$6,$7,$8,$9,0*
20,1,$1+$1,$8,$9,$2,$3,0*%
G04 Aperture macros list end*
%TA.AperFunction,ComponentPad*%
%ADD10C,3.800000*%
%TD*%
%TA.AperFunction,SMDPad,CuDef*%
%ADD11RoundRect,0.250000X0.450000X-0.262500X0.450000X0.262500X-0.450000X0.262500X-0.450000X-0.262500X0*%
%TD*%
%TA.AperFunction,SMDPad,CuDef*%
%ADD12RoundRect,0.250000X-0.262500X-0.450000X0.262500X-0.450000X0.262500X0.450000X-0.262500X0.450000X0*%
%TD*%
%TA.AperFunction,SMDPad,CuDef*%
%ADD13R,0.650000X1.900000*%
%TD*%
%TA.AperFunction,SMDPad,CuDef*%
%ADD14RoundRect,0.250000X-0.450000X0.262500X-0.450000X-0.262500X0.450000X-0.262500X0.450000X0.262500X0*%
%TD*%
%TA.AperFunction,ComponentPad*%
%ADD15R,1.950000X1.950000*%
%TD*%
%TA.AperFunction,ComponentPad*%
%ADD16C,1.950000*%
%TD*%
%TA.AperFunction,SMDPad,CuDef*%
%ADD17RoundRect,0.250000X0.262500X0.450000X-0.262500X0.450000X-0.262500X-0.450000X0.262500X-0.450000X0*%
%TD*%
%TA.AperFunction,ComponentPad*%
%ADD18R,1.700000X1.700000*%
%TD*%
%TA.AperFunction,ComponentPad*%
%ADD19O,1.700000X1.700000*%
%TD*%
%TA.AperFunction,SMDPad,CuDef*%
%ADD20R,1.500000X1.700000*%
%TD*%
%TA.AperFunction,ViaPad*%
%ADD21C,0.800000*%
%TD*%
%TA.AperFunction,Conductor*%
%ADD22C,0.250000*%
%TD*%
%TA.AperFunction,Conductor*%
%ADD23C,0.200000*%
%TD*%
G04 APERTURE END LIST*
D10*
%TO.P,,1*%
%TO.N,N/C*%
X174752000Y-112268000D03*
%TD*%
D11*
%TO.P,R3,1*%
%TO.N,CHANNEL0*%
X170180000Y-93265000D03*
%TO.P,R3,2*%
%TO.N,AIN0P*%
X170180000Y-91440000D03*
%TD*%
D12*
%TO.P,C8,1*%
%TO.N,HLDO_OUT*%
X159465000Y-86995000D03*
%TO.P,C8,2*%
%TO.N,HGND*%
X161290000Y-86995000D03*
%TD*%
%TO.P,C5,1*%
%TO.N,HLDO_IN*%
X159465000Y-92710000D03*
%TO.P,C5,2*%
%TO.N,HGND*%
X161290000Y-92710000D03*
%TD*%
%TO.P,C6,1*%
%TO.N,HLDO_IN*%
X159465000Y-90805000D03*
%TO.P,C6,2*%
%TO.N,HGND*%
X161290000Y-90805000D03*
%TD*%
D13*
%TO.P,IC1,1,DCDC_OUT*%
%TO.N,DCDC_OUT*%
X156210000Y-84100000D03*
%TO.P,IC1,2,DCDC_HGND*%
%TO.N,DCDC_HGND*%
X157480000Y-84100000D03*
%TO.P,IC1,3,HLDO_IN*%
%TO.N,HLDO_IN*%
X158750000Y-84100000D03*
%TO.P,IC1,4,HLDO_OUT*%
%TO.N,HLDO_OUT*%
X160020000Y-84100000D03*
%TO.P,IC1,5,HGND*%
%TO.N,HGND*%
X161290000Y-84100000D03*
%TO.P,IC1,6,GPO*%
%TO.N,unconnected-(IC1-GPO-Pad6)*%
X162560000Y-84100000D03*
%TO.P,IC1,7,AIN1N*%
%TO.N,AIN1N*%
X163830000Y-84100000D03*
%TO.P,IC1,8,AIN1P*%
%TO.N,AIN1P*%
X165100000Y-84100000D03*
%TO.P,IC1,9,AIN0P*%
%TO.N,AIN0P*%
X166370000Y-84100000D03*
%TO.P,IC1,10,AIN0N*%
%TO.N,AIN0N*%
X167640000Y-84100000D03*
%TO.P,IC1,11,~{SYNC}/~{RESET}*%
%TO.N,~{SYNC}{slash}~{RESET}*%
X167640000Y-74650000D03*
%TO.P,IC1,12,DOUT*%
%TO.N,DOUT*%
X166370000Y-74650000D03*
%TO.P,IC1,13,DVDD*%
%TO.N,DVDD*%
X165100000Y-74650000D03*
%TO.P,IC1,14,DCDC_CAP*%
%TO.N,DCDC_CAP*%
X163830000Y-74650000D03*
%TO.P,IC1,15,DGND*%
%TO.N,DGND*%
X162560000Y-74650000D03*
%TO.P,IC1,16,~{DRDY}*%
%TO.N,~{DRDY}*%
X161290000Y-74650000D03*
%TO.P,IC1,17,CLKIN*%
%TO.N,CLK*%
X160020000Y-74650000D03*
%TO.P,IC1,18,SCLK*%
%TO.N,SCLK*%
X158750000Y-74650000D03*
%TO.P,IC1,19,~{CS}*%
%TO.N,~{CS_MCU}*%
X157480000Y-74650000D03*
%TO.P,IC1,20,DIN*%
%TO.N,DIN*%
X156210000Y-74650000D03*
%TD*%
D14*
%TO.P,D1,1,K*%
%TO.N,DGND*%
X174244000Y-62230000D03*
%TO.P,D1,2,A*%
%TO.N,Net-(D1-A)*%
X174244000Y-64055000D03*
%TD*%
D15*
%TO.P,J4,1,Pin_1*%
%TO.N,CHANNEL0*%
X163830000Y-106122500D03*
D16*
%TO.P,J4,2,Pin_2*%
%TO.N,HGND*%
X168830000Y-106122500D03*
%TD*%
D14*
%TO.P,R10,1*%
%TO.N,DVDD*%
X165100000Y-62230000D03*
%TO.P,R10,2*%
%TO.N,DOUT*%
X165100000Y-64055000D03*
%TD*%
D17*
%TO.P,C10,1*%
%TO.N,AIN1P*%
X166925000Y-87630000D03*
%TO.P,C10,2*%
%TO.N,AIN1N*%
X165100000Y-87630000D03*
%TD*%
D11*
%TO.P,R11,1*%
%TO.N,DVDD*%
X161290000Y-64055000D03*
%TO.P,R11,2*%
%TO.N,~{DRDY}*%
X161290000Y-62230000D03*
%TD*%
D10*
%TO.P,,1*%
%TO.N,DGND*%
X174752000Y-53848000D03*
%TD*%
D15*
%TO.P,J5,1,Pin_1*%
%TO.N,CHANNEL1*%
X152948000Y-106122500D03*
D16*
%TO.P,J5,2,Pin_2*%
%TO.N,HGND*%
X157948000Y-106122500D03*
%TD*%
D11*
%TO.P,FB2,1*%
%TO.N,HGND*%
X155448000Y-92757000D03*
%TO.P,FB2,2*%
%TO.N,DCDC_HGND*%
X155448000Y-90932000D03*
%TD*%
%TO.P,R6,1*%
%TO.N,Net-(R6-Pad1)*%
X167005000Y-93265000D03*
%TO.P,R6,2*%
%TO.N,AIN1P*%
X167005000Y-91440000D03*
%TD*%
D12*
%TO.P,C7,1*%
%TO.N,HLDO_OUT*%
X159465000Y-88900000D03*
%TO.P,C7,2*%
%TO.N,HGND*%
X161290000Y-88900000D03*
%TD*%
%TO.P,C3,1*%
%TO.N,DCDC_OUT*%
X153519500Y-88900000D03*
%TO.P,C3,2*%
%TO.N,DCDC_HGND*%
X155344500Y-88900000D03*
%TD*%
D14*
%TO.P,C11,1*%
%TO.N,DGND*%
X162560000Y-69215000D03*
%TO.P,C11,2*%
%TO.N,DCDC_CAP*%
X162560000Y-71040000D03*
%TD*%
D12*
%TO.P,R12,1*%
%TO.N,Net-(Y1-_CLOCK_OUTPUT)*%
X149860000Y-62420363D03*
%TO.P,R12,2*%
%TO.N,CLK*%
X151685000Y-62420363D03*
%TD*%
D10*
%TO.P,,1*%
%TO.N,N/C*%
X147320000Y-112268000D03*
%TD*%
%TO.P,REF\u002A\u002A,1*%
%TO.N,DGND*%
X147320000Y-53848000D03*
%TD*%
D18*
%TO.P,J1,1,Pin_1*%
%TO.N,DGND*%
X152400000Y-58420000D03*
D19*
%TO.P,J1,2,Pin_2*%
%TO.N,DIN*%
X154940000Y-58420000D03*
%TO.P,J1,3,Pin_3*%
%TO.N,~{CS_MCU}*%
X157480000Y-58420000D03*
%TO.P,J1,4,Pin_4*%
%TO.N,SCLK*%
X160020000Y-58420000D03*
%TO.P,J1,5,Pin_5*%
%TO.N,~{DRDY}*%
X162560000Y-58420000D03*
%TO.P,J1,6,Pin_6*%
%TO.N,DVDD*%
X165100000Y-58420000D03*
%TO.P,J1,7,Pin_7*%
%TO.N,DOUT*%
X167640000Y-58420000D03*
%TO.P,J1,8,Pin_8*%
%TO.N,~{SYNC}{slash}~{RESET}*%
X170180000Y-58420000D03*
%TD*%
D12*
%TO.P,C9,1*%
%TO.N,AIN0P*%
X168632500Y-87630000D03*
%TO.P,C9,2*%
%TO.N,AIN0N*%
X170457500Y-87630000D03*
%TD*%
D11*
%TO.P,R5,1*%
%TO.N,HGND*%
X165100000Y-93265000D03*
%TO.P,R5,2*%
%TO.N,AIN1N*%
X165100000Y-91440000D03*
%TD*%
D12*
%TO.P,C12,1*%
%TO.N,DVDD*%
X149860000Y-72390000D03*
%TO.P,C12,2*%
%TO.N,DGND*%
X151685000Y-72390000D03*
%TD*%
%TO.P,C2,1*%
%TO.N,DVDD*%
X162917500Y-67310000D03*
%TO.P,C2,2*%
%TO.N,DGND*%
X164742500Y-67310000D03*
%TD*%
D14*
%TO.P,R1,1*%
%TO.N,DVDD*%
X168910000Y-62230000D03*
%TO.P,R1,2*%
%TO.N,~{SYNC}{slash}~{RESET}*%
X168910000Y-64055000D03*
%TD*%
D17*
%TO.P,R7,1*%
%TO.N,Net-(R6-Pad1)*%
X166965000Y-95250000D03*
%TO.P,R7,2*%
%TO.N,HGND*%
X165140000Y-95250000D03*
%TD*%
D11*
%TO.P,FB1,1*%
%TO.N,HLDO_IN*%
X153416000Y-92757000D03*
%TO.P,FB1,2*%
%TO.N,DCDC_OUT*%
X153416000Y-90932000D03*
%TD*%
D17*
%TO.P,R8,1*%
%TO.N,Net-(R6-Pad1)*%
X161210000Y-98044000D03*
%TO.P,R8,2*%
%TO.N,CHANNEL1*%
X159385000Y-98044000D03*
%TD*%
D11*
%TO.P,R2,1*%
%TO.N,HGND*%
X172085000Y-93265000D03*
%TO.P,R2,2*%
%TO.N,AIN0N*%
X172085000Y-91440000D03*
%TD*%
%TO.P,C1,1*%
%TO.N,DVDD*%
X165100000Y-71040000D03*
%TO.P,C1,2*%
%TO.N,DGND*%
X165100000Y-69215000D03*
%TD*%
D12*
%TO.P,C4,1*%
%TO.N,DCDC_OUT*%
X153519500Y-86995000D03*
%TO.P,C4,2*%
%TO.N,DCDC_HGND*%
X155344500Y-86995000D03*
%TD*%
%TO.P,R13,1*%
%TO.N,DVDD*%
X172419000Y-66548000D03*
%TO.P,R13,2*%
%TO.N,Net-(D1-A)*%
X174244000Y-66548000D03*
%TD*%
D20*
%TO.P,Y1,1,_OE_FUNCTION*%
%TO.N,DVDD*%
X152060000Y-68580000D03*
%TO.P,Y1,2,GROUND*%
%TO.N,DGND*%
X152060000Y-66040000D03*
%TO.P,Y1,3,_CLOCK_OUTPUT*%
%TO.N,Net-(Y1-_CLOCK_OUTPUT)*%
X149860000Y-66040000D03*
%TO.P,Y1,4,VDD*%
%TO.N,DVDD*%
X149860000Y-68580000D03*
%TD*%
D14*
%TO.P,R9,1*%
%TO.N,DVDD*%
X156210000Y-62230000D03*
%TO.P,R9,2*%
%TO.N,~{CS_MCU}*%
X156210000Y-64055000D03*
%TD*%
D17*
%TO.P,R4,1*%
%TO.N,HGND*%
X172085000Y-95250000D03*
%TO.P,R4,2*%
%TO.N,CHANNEL0*%
X170260000Y-95250000D03*
%TD*%
D21*
%TO.N,DVDD*%
X165100000Y-72390000D03*
X168910000Y-60960000D03*
X163195000Y-65405000D03*
X147828000Y-72390000D03*
X160655000Y-65405000D03*
X170688000Y-66548000D03*
X156210000Y-60960000D03*
X165100000Y-60960000D03*
%TO.N,DGND*%
X154305000Y-66040000D03*
X165100000Y-65405000D03*
X162560000Y-72390000D03*
X153670000Y-72390000D03*
X174244000Y-60452000D03*
%TO.N,HGND*%
X162814000Y-92710000D03*
X162814000Y-86995000D03*
X173736000Y-95250000D03*
X162814000Y-90805000D03*
X157480000Y-92710000D03*
X163576000Y-95250000D03*
X162814000Y-88900000D03*
%TO.N,CLK*%
X153670000Y-62420363D03*
X160020000Y-72390000D03*
%TD*%
D22*
%TO.N,DGND*%
X151685000Y-72390000D02*
X153670000Y-72390000D01*
%TO.N,DVDD*%
X149860000Y-70612000D02*
X149860000Y-72390000D01*
X147828000Y-72390000D02*
X150047500Y-72390000D01*
D23*
%TO.N,Net-(Y1-_CLOCK_OUTPUT)*%
X149860000Y-62420363D02*
X149860000Y-66040000D01*
%TO.N,CLK*%
X151685000Y-62420363D02*
X153670000Y-62420363D01*
D22*
%TO.N,DVDD*%
X149860000Y-70612000D02*
X149860000Y-68580000D01*
X160655000Y-65405000D02*
X160655000Y-64690000D01*
X165100000Y-72390000D02*
X165100000Y-74650000D01*
X152146000Y-68666000D02*
X152060000Y-68580000D01*
X151892000Y-70612000D02*
X152146000Y-70358000D01*
X149860000Y-70612000D02*
X151892000Y-70612000D01*
X170688000Y-66548000D02*
X172419000Y-66548000D01*
X149860000Y-72202500D02*
X150047500Y-72390000D01*
X160655000Y-64690000D02*
X161290000Y-64055000D01*
X162917500Y-67310000D02*
X162917500Y-65682500D01*
X165100000Y-71040000D02*
X165100000Y-72390000D01*
X165100000Y-60960000D02*
X165100000Y-62230000D01*
X162917500Y-65682500D02*
X163195000Y-65405000D01*
X155956000Y-61976000D02*
X156210000Y-62230000D01*
X168910000Y-60960000D02*
X168910000Y-62230000D01*
X156210000Y-60960000D02*
X156210000Y-62230000D01*
X165100000Y-58420000D02*
X165100000Y-60960000D01*
X152146000Y-70358000D02*
X152146000Y-68666000D01*
D23*
%TO.N,DGND*%
X165100000Y-69215000D02*
X165100000Y-67667500D01*
X162560000Y-69215000D02*
X163195000Y-69215000D01*
D22*
X152060000Y-66040000D02*
X154305000Y-66040000D01*
X162560000Y-72390000D02*
X162560000Y-74650000D01*
D23*
X163195000Y-69215000D02*
X164742500Y-67667500D01*
D22*
X174244000Y-62230000D02*
X174244000Y-60452000D01*
D23*
X165100000Y-67667500D02*
X164742500Y-67310000D01*
X164742500Y-67667500D02*
X164742500Y-67310000D01*
X165100000Y-65405000D02*
X164742500Y-65762500D01*
X164742500Y-65762500D02*
X164742500Y-67310000D01*
D22*
%TO.N,DCDC_OUT*%
X155956000Y-85598000D02*
X156210000Y-85344000D01*
X153519500Y-86995000D02*
X153519500Y-86002500D01*
X153519500Y-88900000D02*
X153519500Y-90828500D01*
X153519500Y-90828500D02*
X153416000Y-90932000D01*
X156210000Y-85344000D02*
X156210000Y-84100000D01*
X153519500Y-86995000D02*
X153519500Y-88900000D01*
X153924000Y-85598000D02*
X155956000Y-85598000D01*
X153519500Y-86002500D02*
X153924000Y-85598000D01*
%TO.N,DCDC_HGND*%
X156210000Y-86995000D02*
X155344500Y-86995000D01*
X157480000Y-85725000D02*
X156210000Y-86995000D01*
X155344500Y-88900000D02*
X155344500Y-90828500D01*
X157480000Y-85725000D02*
X157480000Y-84100000D01*
X155344500Y-90828500D02*
X155448000Y-90932000D01*
X155344500Y-86995000D02*
X155344500Y-88900000D01*
%TO.N,HLDO_IN*%
X153416000Y-92757000D02*
X153416000Y-93980000D01*
X159465000Y-90805000D02*
X159465000Y-92710000D01*
X158496000Y-94488000D02*
X159465000Y-93519000D01*
X158750000Y-85725000D02*
X157480000Y-86995000D01*
X157480000Y-89408000D02*
X158877000Y-90805000D01*
X158877000Y-90805000D02*
X159465000Y-90805000D01*
X153416000Y-93980000D02*
X153924000Y-94488000D01*
X153924000Y-94488000D02*
X158496000Y-94488000D01*
X157480000Y-86995000D02*
X157480000Y-89408000D01*
X159465000Y-93519000D02*
X159465000Y-92710000D01*
X158750000Y-84100000D02*
X158750000Y-85725000D01*
%TO.N,HGND*%
X161290000Y-90805000D02*
X162814000Y-90805000D01*
X161290000Y-92710000D02*
X162814000Y-92710000D01*
X165140000Y-95250000D02*
X163576000Y-95250000D01*
X165140000Y-95250000D02*
X165140000Y-93305000D01*
X165140000Y-93305000D02*
X165100000Y-93265000D01*
X172085000Y-93265000D02*
X172085000Y-95250000D01*
X172085000Y-95250000D02*
X173736000Y-95250000D01*
X161290000Y-88900000D02*
X162814000Y-88900000D01*
X157433000Y-92757000D02*
X157480000Y-92710000D01*
X161290000Y-86995000D02*
X161290000Y-84100000D01*
X155448000Y-92757000D02*
X157433000Y-92757000D01*
X161290000Y-86995000D02*
X162814000Y-86995000D01*
%TO.N,HLDO_OUT*%
X159465000Y-86995000D02*
X159465000Y-88900000D01*
X160020000Y-86440000D02*
X159465000Y-86995000D01*
X160020000Y-84100000D02*
X160020000Y-86440000D01*
%TO.N,AIN0P*%
X170180000Y-91440000D02*
X170180000Y-90805000D01*
X168275000Y-86360000D02*
X168632500Y-86717500D01*
X166370000Y-84100000D02*
X166370000Y-85344000D01*
X170180000Y-90805000D02*
X168632500Y-89257500D01*
X166370000Y-85344000D02*
X167386000Y-86360000D01*
X167386000Y-86360000D02*
X168275000Y-86360000D01*
X168632500Y-86717500D02*
X168632500Y-87630000D01*
X168632500Y-89257500D02*
X168632500Y-87630000D01*
%TO.N,AIN0N*%
X167894000Y-85598000D02*
X167640000Y-85344000D01*
X170457500Y-87630000D02*
X170457500Y-86129500D01*
X169926000Y-85598000D02*
X167894000Y-85598000D01*
X172085000Y-89257500D02*
X170457500Y-87630000D01*
X172085000Y-91440000D02*
X172085000Y-89257500D01*
X170457500Y-86129500D02*
X169926000Y-85598000D01*
X167640000Y-85344000D02*
X167640000Y-84100000D01*
%TO.N,AIN1P*%
X165100000Y-85344000D02*
X165100000Y-84100000D01*
X166925000Y-87630000D02*
X166925000Y-87169000D01*
X166925000Y-87169000D02*
X165100000Y-85344000D01*
X167005000Y-91440000D02*
X167005000Y-87710000D01*
X167005000Y-87710000D02*
X166925000Y-87630000D01*
%TO.N,AIN1N*%
X165100000Y-86995000D02*
X163830000Y-85725000D01*
X165100000Y-87630000D02*
X165100000Y-86995000D01*
X163830000Y-85725000D02*
X163830000Y-84100000D01*
X165100000Y-91440000D02*
X165100000Y-87630000D01*
D23*
%TO.N,DCDC_CAP*%
X163830000Y-72310000D02*
X163830000Y-74650000D01*
X162560000Y-71040000D02*
X163830000Y-72310000D01*
%TO.N,~{SYNC}{slash}~{RESET}*%
X168910000Y-64135000D02*
X169545000Y-64770000D01*
X169545000Y-64770000D02*
X170180000Y-64770000D01*
X170180000Y-64770000D02*
X167640000Y-67310000D01*
X170180000Y-58420000D02*
X170180000Y-64770000D01*
X167640000Y-67310000D02*
X167640000Y-74015000D01*
%TO.N,DOUT*%
X165100000Y-64055000D02*
X166417000Y-64055000D01*
X166624000Y-64262000D02*
X166624000Y-65024000D01*
X166417000Y-64055000D02*
X166624000Y-64262000D01*
X166624000Y-65024000D02*
X167005000Y-65405000D01*
X167640000Y-58420000D02*
X167640000Y-64770000D01*
X167005000Y-65405000D02*
X166370000Y-66040000D01*
X166370000Y-66040000D02*
X166370000Y-74650000D01*
X167640000Y-64770000D02*
X167005000Y-65405000D01*
%TO.N,~{DRDY}*%
X161290000Y-66040000D02*
X161290000Y-74650000D01*
X162560000Y-58420000D02*
X162560000Y-61595000D01*
X161925000Y-61595000D02*
X162560000Y-61595000D01*
X162560000Y-64770000D02*
X161290000Y-66040000D01*
X161290000Y-62230000D02*
X161925000Y-61595000D01*
X162560000Y-61595000D02*
X162560000Y-64770000D01*
%TO.N,CLK*%
X160020000Y-72390000D02*
X160020000Y-74650000D01*
%TO.N,SCLK*%
X160020000Y-64770000D02*
X158750000Y-66040000D01*
X160020000Y-58420000D02*
X160020000Y-64770000D01*
X158750000Y-66040000D02*
X158750000Y-74650000D01*
%TO.N,~{CS_MCU}*%
X156210000Y-64055000D02*
X156210000Y-64770000D01*
X157480000Y-58420000D02*
X157480000Y-65532000D01*
X157480000Y-65532000D02*
X157480000Y-74650000D01*
X156972000Y-65532000D02*
X157480000Y-65532000D01*
X156210000Y-64770000D02*
X156972000Y-65532000D01*
%TO.N,DIN*%
X154940000Y-64770000D02*
X154940000Y-58420000D01*
X156210000Y-74650000D02*
X156210000Y-66040000D01*
X156210000Y-66040000D02*
X154940000Y-64770000D01*
D22*
%TO.N,CHANNEL0*%
X163830000Y-100076000D02*
X163830000Y-106122500D01*
X170260000Y-95250000D02*
X170260000Y-96948000D01*
X170180000Y-93265000D02*
X170180000Y-95170000D01*
X164592000Y-99314000D02*
X163830000Y-100076000D01*
X170180000Y-95170000D02*
X170260000Y-95250000D01*
X170260000Y-96948000D02*
X167894000Y-99314000D01*
X167894000Y-99314000D02*
X164592000Y-99314000D01*
%TO.N,CHANNEL1*%
X154980000Y-98044000D02*
X159385000Y-98044000D01*
X152948000Y-100076000D02*
X154980000Y-98044000D01*
X152948000Y-100076000D02*
X152948000Y-106122500D01*
%TO.N,Net-(R6-Pad1)*%
X167005000Y-93265000D02*
X167005000Y-95210000D01*
X167005000Y-95210000D02*
X166965000Y-95250000D01*
X166878000Y-95337000D02*
X166965000Y-95250000D01*
X165608000Y-98044000D02*
X161210000Y-98044000D01*
X166878000Y-96774000D02*
X165608000Y-98044000D01*
X166878000Y-95337000D02*
X166878000Y-96774000D01*
%TO.N,Net-(Y1-_CLOCK_OUTPUT)*%
X150047500Y-62420363D02*
X149860000Y-62607863D01*
%TO.N,Net-(D1-A)*%
X174244000Y-66548000D02*
X174244000Y-64055000D01*
%TD*%
M02*
