%TF.GenerationSoftware,KiCad,Pcbnew,7.0.10-7.0.10~ubuntu22.04.1*%
%TF.CreationDate,2024-03-28T15:08:32-05:00*%
%TF.ProjectId,IIoT_Sensor,49496f54-5f53-4656-9e73-6f722e6b6963,1.0*%
%TF.SameCoordinates,Original*%
%TF.FileFunction,Copper,L2,Inr*%
%TF.FilePolarity,Positive*%
%FSLAX46Y46*%
G04 Gerber Fmt 4.6, Leading zero omitted, Abs format (unit mm)*
G04 Created by KiCad (PCBNEW 7.0.10-7.0.10~ubuntu22.04.1) date 2024-03-28 15:08:32*
%MOMM*%
%LPD*%
G01*
G04 APERTURE LIST*
%TA.AperFunction,ComponentPad*%
%ADD10C,3.800000*%
%TD*%
%TA.AperFunction,ComponentPad*%
%ADD11R,1.950000X1.950000*%
%TD*%
%TA.AperFunction,ComponentPad*%
%ADD12C,1.950000*%
%TD*%
%TA.AperFunction,ComponentPad*%
%ADD13R,1.700000X1.700000*%
%TD*%
%TA.AperFunction,ComponentPad*%
%ADD14O,1.700000X1.700000*%
%TD*%
%TA.AperFunction,ViaPad*%
%ADD15C,0.800000*%
%TD*%
G04 APERTURE END LIST*
D10*
%TO.N,N/C*%
%TO.C,*%
X174752000Y-112268000D03*
%TD*%
D11*
%TO.N,CHANNEL0*%
%TO.C,J4*%
X163830000Y-106122500D03*
D12*
%TO.N,HGND*%
X168830000Y-106122500D03*
%TD*%
D10*
%TO.N,DGND*%
%TO.C,*%
X174752000Y-53848000D03*
%TD*%
D11*
%TO.N,CHANNEL1*%
%TO.C,J5*%
X152948000Y-106122500D03*
D12*
%TO.N,HGND*%
X157948000Y-106122500D03*
%TD*%
D10*
%TO.N,N/C*%
%TO.C,*%
X147320000Y-112268000D03*
%TD*%
%TO.N,DGND*%
%TO.C,REF\u002A\u002A*%
X147320000Y-53848000D03*
%TD*%
D13*
%TO.N,DGND*%
%TO.C,J1*%
X152400000Y-58420000D03*
D14*
%TO.N,DIN*%
X154940000Y-58420000D03*
%TO.N,~{CS_MCU}*%
X157480000Y-58420000D03*
%TO.N,SCLK*%
X160020000Y-58420000D03*
%TO.N,~{DRDY}*%
X162560000Y-58420000D03*
%TO.N,DVDD*%
X165100000Y-58420000D03*
%TO.N,DOUT*%
X167640000Y-58420000D03*
%TO.N,~{SYNC}{slash}~{RESET}*%
X170180000Y-58420000D03*
%TD*%
D15*
%TO.N,DVDD*%
X165100000Y-72390000D03*
X168910000Y-60960000D03*
X163195000Y-65405000D03*
X147828000Y-72390000D03*
X160655000Y-65405000D03*
X170688000Y-66548000D03*
X156210000Y-60960000D03*
X165100000Y-60960000D03*
%TO.N,DGND*%
X154305000Y-66040000D03*
X165100000Y-65405000D03*
X162560000Y-72390000D03*
X153670000Y-72390000D03*
X174244000Y-60452000D03*
%TO.N,HGND*%
X162814000Y-92710000D03*
X162814000Y-86995000D03*
X173736000Y-95250000D03*
X162814000Y-90805000D03*
X157480000Y-92710000D03*
X163576000Y-95250000D03*
X162814000Y-88900000D03*
%TO.N,CLK*%
X153670000Y-62420363D03*
X160020000Y-72390000D03*
%TD*%
%TA.AperFunction,Conductor*%
%TO.N,HGND*%
G36*
X177107539Y-82569685D02*
G01*
X177153294Y-82622489D01*
X177164500Y-82674000D01*
X177164500Y-111202182D01*
X177144815Y-111269221D01*
X177092011Y-111314976D01*
X177022853Y-111324920D01*
X176959297Y-111295895D01*
X176928302Y-111254979D01*
X176859734Y-111109267D01*
X176859733Y-111109264D01*
X176697885Y-110854232D01*
X176505349Y-110621496D01*
X176285162Y-110414726D01*
X176285159Y-110414724D01*
X176285153Y-110414719D01*
X176040806Y-110237191D01*
X176040799Y-110237186D01*
X176040795Y-110237184D01*
X175776104Y-110091668D01*
X175776101Y-110091666D01*
X175776096Y-110091664D01*
X175776095Y-110091663D01*
X175495265Y-109980475D01*
X175495262Y-109980474D01*
X175202695Y-109905357D01*
X174903036Y-109867500D01*
X174903027Y-109867500D01*
X174600973Y-109867500D01*
X174600963Y-109867500D01*
X174301304Y-109905357D01*
X174008737Y-109980474D01*
X174008734Y-109980475D01*
X173727904Y-110091663D01*
X173727903Y-110091664D01*
X173463205Y-110237184D01*
X173463193Y-110237191D01*
X173218846Y-110414719D01*
X173218836Y-110414727D01*
X172998652Y-110621494D01*
X172806111Y-110854236D01*
X172644268Y-111109261D01*
X172644265Y-111109267D01*
X172515661Y-111382563D01*
X172515659Y-111382568D01*
X172422320Y-111669835D01*
X172365719Y-111966546D01*
X172365718Y-111966553D01*
X172346754Y-112267994D01*
X172346754Y-112268005D01*
X172365718Y-112569446D01*
X172365719Y-112569453D01*
X172422320Y-112866164D01*
X172515659Y-113153431D01*
X172515661Y-113153436D01*
X172644265Y-113426732D01*
X172644268Y-113426738D01*
X172806111Y-113681763D01*
X172998652Y-113914505D01*
X173218836Y-114121272D01*
X173218846Y-114121280D01*
X173463193Y-114298808D01*
X173463198Y-114298810D01*
X173463205Y-114298816D01*
X173727896Y-114444332D01*
X173727901Y-114444334D01*
X173727903Y-114444335D01*
X173727904Y-114444336D01*
X174008734Y-114555524D01*
X174008737Y-114555525D01*
X174106259Y-114580564D01*
X174301302Y-114630642D01*
X174448039Y-114649179D01*
X174600963Y-114668499D01*
X174600969Y-114668499D01*
X174600973Y-114668500D01*
X174600975Y-114668500D01*
X174903025Y-114668500D01*
X174903027Y-114668500D01*
X174903032Y-114668499D01*
X174903036Y-114668499D01*
X174982591Y-114658448D01*
X175202698Y-114630642D01*
X175495262Y-114555525D01*
X175495265Y-114555524D01*
X175776095Y-114444336D01*
X175776096Y-114444335D01*
X175776094Y-114444335D01*
X175776104Y-114444332D01*
X176040795Y-114298816D01*
X176285162Y-114121274D01*
X176505349Y-113914504D01*
X176697885Y-113681768D01*
X176859733Y-113426736D01*
X176928302Y-113281018D01*
X176974657Y-113228743D01*
X177041917Y-113209825D01*
X177108727Y-113230274D01*
X177153875Y-113283597D01*
X177164500Y-113333817D01*
X177164500Y-113660123D01*
X177164117Y-113669855D01*
X177160056Y-113721436D01*
X177159967Y-113722511D01*
X177147714Y-113862568D01*
X177144760Y-113880708D01*
X177125866Y-113959409D01*
X177125067Y-113962556D01*
X177096868Y-114067793D01*
X177091655Y-114083150D01*
X177058388Y-114163467D01*
X177056208Y-114168421D01*
X177012680Y-114261767D01*
X177006025Y-114274153D01*
X176959451Y-114350153D01*
X176955299Y-114356485D01*
X176897414Y-114439154D01*
X176890129Y-114448563D01*
X176831699Y-114516975D01*
X176825090Y-114524124D01*
X176754124Y-114595090D01*
X176746975Y-114601699D01*
X176678563Y-114660129D01*
X176669154Y-114667414D01*
X176586485Y-114725299D01*
X176580153Y-114729451D01*
X176504153Y-114776025D01*
X176491767Y-114782680D01*
X176398421Y-114826208D01*
X176393467Y-114828388D01*
X176313150Y-114861655D01*
X176297793Y-114866868D01*
X176192556Y-114895067D01*
X176189409Y-114895866D01*
X176110708Y-114914760D01*
X176092568Y-114917714D01*
X175952511Y-114929967D01*
X175951436Y-114930056D01*
X175899855Y-114934117D01*
X175890123Y-114934500D01*
X146054877Y-114934500D01*
X146045147Y-114934118D01*
X146040829Y-114933778D01*
X145993562Y-114930057D01*
X145992487Y-114929967D01*
X145852430Y-114917714D01*
X145834290Y-114914760D01*
X145755589Y-114895866D01*
X145752442Y-114895067D01*
X145647205Y-114866868D01*
X145631848Y-114861655D01*
X145551531Y-114828388D01*
X145546577Y-114826208D01*
X145453224Y-114782676D01*
X145440852Y-114776028D01*
X145393554Y-114747044D01*
X145364845Y-114729451D01*
X145358513Y-114725299D01*
X145277394Y-114668499D01*
X145275839Y-114667410D01*
X145266442Y-114660135D01*
X145198023Y-114601699D01*
X145190874Y-114595090D01*
X145119908Y-114524124D01*
X145113299Y-114516975D01*
X145092545Y-114492675D01*
X145054860Y-114448551D01*
X145047594Y-114439166D01*
X144989694Y-114356477D01*
X144985547Y-114350153D01*
X144938963Y-114274135D01*
X144932329Y-114261788D01*
X144888770Y-114168376D01*
X144886622Y-114163496D01*
X144853343Y-114083150D01*
X144848130Y-114067793D01*
X144819910Y-113962476D01*
X144819153Y-113959494D01*
X144800236Y-113880698D01*
X144797285Y-113862579D01*
X144785008Y-113722244D01*
X144784957Y-113721632D01*
X144780882Y-113669853D01*
X144780500Y-113660126D01*
X144780500Y-113003308D01*
X144800185Y-112936269D01*
X144852989Y-112890514D01*
X144922147Y-112880570D01*
X144985703Y-112909595D01*
X145022431Y-112964990D01*
X145083659Y-113153431D01*
X145083661Y-113153436D01*
X145212265Y-113426732D01*
X145212268Y-113426738D01*
X145374111Y-113681763D01*
X145566652Y-113914505D01*
X145786836Y-114121272D01*
X145786846Y-114121280D01*
X146031193Y-114298808D01*
X146031198Y-114298810D01*
X146031205Y-114298816D01*
X146295896Y-114444332D01*
X146295901Y-114444334D01*
X146295903Y-114444335D01*
X146295904Y-114444336D01*
X146576734Y-114555524D01*
X146576737Y-114555525D01*
X146674259Y-114580564D01*
X146869302Y-114630642D01*
X147016039Y-114649179D01*
X147168963Y-114668499D01*
X147168969Y-114668499D01*
X147168973Y-114668500D01*
X147168975Y-114668500D01*
X147471025Y-114668500D01*
X147471027Y-114668500D01*
X147471032Y-114668499D01*
X147471036Y-114668499D01*
X147550591Y-114658448D01*
X147770698Y-114630642D01*
X148063262Y-114555525D01*
X148063265Y-114555524D01*
X148344095Y-114444336D01*
X148344096Y-114444335D01*
X148344094Y-114444335D01*
X148344104Y-114444332D01*
X148608795Y-114298816D01*
X148853162Y-114121274D01*
X149073349Y-113914504D01*
X149265885Y-113681768D01*
X149427733Y-113426736D01*
X149556341Y-113153430D01*
X149649681Y-112866160D01*
X149706280Y-112569457D01*
X149725246Y-112268000D01*
X149706280Y-111966543D01*
X149649681Y-111669840D01*
X149556341Y-111382570D01*
X149427733Y-111109264D01*
X149265885Y-110854232D01*
X149073349Y-110621496D01*
X148853162Y-110414726D01*
X148853159Y-110414724D01*
X148853153Y-110414719D01*
X148608806Y-110237191D01*
X148608799Y-110237186D01*
X148608795Y-110237184D01*
X148344104Y-110091668D01*
X148344101Y-110091666D01*
X148344096Y-110091664D01*
X148344095Y-110091663D01*
X148063265Y-109980475D01*
X148063262Y-109980474D01*
X147770695Y-109905357D01*
X147471036Y-109867500D01*
X147471027Y-109867500D01*
X147168973Y-109867500D01*
X147168963Y-109867500D01*
X146869304Y-109905357D01*
X146576737Y-109980474D01*
X146576734Y-109980475D01*
X146295904Y-110091663D01*
X146295903Y-110091664D01*
X146031205Y-110237184D01*
X146031193Y-110237191D01*
X145786846Y-110414719D01*
X145786836Y-110414727D01*
X145566652Y-110621494D01*
X145374111Y-110854236D01*
X145212268Y-111109261D01*
X145212265Y-111109267D01*
X145083661Y-111382563D01*
X145083659Y-111382568D01*
X145022431Y-111571009D01*
X144982993Y-111628685D01*
X144918635Y-111655883D01*
X144849788Y-111643968D01*
X144798313Y-111596724D01*
X144780500Y-111532691D01*
X144780500Y-107145370D01*
X151472500Y-107145370D01*
X151472501Y-107145376D01*
X151478908Y-107204983D01*
X151529202Y-107339828D01*
X151529206Y-107339835D01*
X151615452Y-107455044D01*
X151615455Y-107455047D01*
X151730664Y-107541293D01*
X151730671Y-107541297D01*
X151865517Y-107591591D01*
X151865516Y-107591591D01*
X151872444Y-107592335D01*
X151925127Y-107598000D01*
X153970872Y-107597999D01*
X154030483Y-107591591D01*
X154165331Y-107541296D01*
X154280546Y-107455046D01*
X154366796Y-107339831D01*
X154417091Y-107204983D01*
X154423500Y-107145373D01*
X154423500Y-106122505D01*
X156467945Y-106122505D01*
X156488130Y-106366105D01*
X156548138Y-106603073D01*
X156646330Y-106826929D01*
X156742626Y-106974319D01*
X157345452Y-106371493D01*
X157355188Y-106401456D01*
X157443186Y-106540119D01*
X157562903Y-106652540D01*
X157697510Y-106726541D01*
X157095758Y-107328294D01*
X157095758Y-107328296D01*
X157138478Y-107361546D01*
X157138484Y-107361550D01*
X157353468Y-107477894D01*
X157353476Y-107477897D01*
X157584664Y-107557265D01*
X157825779Y-107597500D01*
X158070221Y-107597500D01*
X158311335Y-107557265D01*
X158542523Y-107477897D01*
X158542531Y-107477894D01*
X158757514Y-107361551D01*
X158757514Y-107361550D01*
X158800240Y-107328295D01*
X158800240Y-107328294D01*
X158617317Y-107145370D01*
X162354500Y-107145370D01*
X162354501Y-107145376D01*
X162360908Y-107204983D01*
X162411202Y-107339828D01*
X162411206Y-107339835D01*
X162497452Y-107455044D01*
X162497455Y-107455047D01*
X162612664Y-107541293D01*
X162612671Y-107541297D01*
X162747517Y-107591591D01*
X162747516Y-107591591D01*
X162754444Y-107592335D01*
X162807127Y-107598000D01*
X164852872Y-107597999D01*
X164912483Y-107591591D01*
X165047331Y-107541296D01*
X165162546Y-107455046D01*
X165248796Y-107339831D01*
X165299091Y-107204983D01*
X165305500Y-107145373D01*
X165305500Y-106122505D01*
X167349945Y-106122505D01*
X167370130Y-106366105D01*
X167430138Y-106603073D01*
X167528330Y-106826929D01*
X167624626Y-106974319D01*
X168227452Y-106371493D01*
X168237188Y-106401456D01*
X168325186Y-106540119D01*
X168444903Y-106652540D01*
X168579510Y-106726541D01*
X167977758Y-107328294D01*
X167977758Y-107328296D01*
X168020478Y-107361546D01*
X168020484Y-107361550D01*
X168235468Y-107477894D01*
X168235476Y-107477897D01*
X168466664Y-107557265D01*
X168707779Y-107597500D01*
X168952221Y-107597500D01*
X169193335Y-107557265D01*
X169424523Y-107477897D01*
X169424531Y-107477894D01*
X169639514Y-107361551D01*
X169639514Y-107361550D01*
X169682240Y-107328295D01*
X169682240Y-107328294D01*
X169077534Y-106723586D01*
X169145629Y-106696626D01*
X169278492Y-106600095D01*
X169383175Y-106473555D01*
X169431631Y-106370578D01*
X170035372Y-106974319D01*
X170131667Y-106826931D01*
X170131672Y-106826923D01*
X170229861Y-106603073D01*
X170289869Y-106366105D01*
X170310055Y-106122505D01*
X170310055Y-106122494D01*
X170289869Y-105878894D01*
X170229861Y-105641926D01*
X170131669Y-105418070D01*
X170035372Y-105270679D01*
X169432546Y-105873504D01*
X169422812Y-105843544D01*
X169334814Y-105704881D01*
X169215097Y-105592460D01*
X169080488Y-105518457D01*
X169682240Y-104916704D01*
X169682240Y-104916703D01*
X169639514Y-104883449D01*
X169424531Y-104767105D01*
X169424523Y-104767102D01*
X169193335Y-104687734D01*
X168952221Y-104647500D01*
X168707779Y-104647500D01*
X168466664Y-104687734D01*
X168235476Y-104767102D01*
X168235468Y-104767105D01*
X168020481Y-104883451D01*
X167977758Y-104916702D01*
X167977757Y-104916704D01*
X168582466Y-105521412D01*
X168514371Y-105548374D01*
X168381508Y-105644905D01*
X168276825Y-105771445D01*
X168228368Y-105874421D01*
X167624626Y-105270679D01*
X167528328Y-105418075D01*
X167430138Y-105641926D01*
X167370130Y-105878894D01*
X167349945Y-106122494D01*
X167349945Y-106122505D01*
X165305500Y-106122505D01*
X165305499Y-105099628D01*
X165299091Y-105040017D01*
X165253098Y-104916704D01*
X165248797Y-104905171D01*
X165248793Y-104905164D01*
X165162547Y-104789955D01*
X165162544Y-104789952D01*
X165047335Y-104703706D01*
X165047328Y-104703702D01*
X164912482Y-104653408D01*
X164912483Y-104653408D01*
X164852883Y-104647001D01*
X164852881Y-104647000D01*
X164852873Y-104647000D01*
X164852864Y-104647000D01*
X162807129Y-104647000D01*
X162807123Y-104647001D01*
X162747516Y-104653408D01*
X162612671Y-104703702D01*
X162612664Y-104703706D01*
X162497455Y-104789952D01*
X162497452Y-104789955D01*
X162411206Y-104905164D01*
X162411202Y-104905171D01*
X162360908Y-105040017D01*
X162354501Y-105099616D01*
X162354501Y-105099623D01*
X162354500Y-105099635D01*
X162354500Y-107145370D01*
X158617317Y-107145370D01*
X158195534Y-106723586D01*
X158263629Y-106696626D01*
X158396492Y-106600095D01*
X158501175Y-106473555D01*
X158549631Y-106370578D01*
X159153372Y-106974319D01*
X159249667Y-106826931D01*
X159249672Y-106826923D01*
X159347861Y-106603073D01*
X159407869Y-106366105D01*
X159428055Y-106122505D01*
X159428055Y-106122494D01*
X159407869Y-105878894D01*
X159347861Y-105641926D01*
X159249669Y-105418070D01*
X159153372Y-105270679D01*
X158550546Y-105873504D01*
X158540812Y-105843544D01*
X158452814Y-105704881D01*
X158333097Y-105592460D01*
X158198488Y-105518457D01*
X158800240Y-104916704D01*
X158800240Y-104916703D01*
X158757514Y-104883449D01*
X158542531Y-104767105D01*
X158542523Y-104767102D01*
X158311335Y-104687734D01*
X158070221Y-104647500D01*
X157825779Y-104647500D01*
X157584664Y-104687734D01*
X157353476Y-104767102D01*
X157353468Y-104767105D01*
X157138481Y-104883451D01*
X157095758Y-104916702D01*
X157095757Y-104916704D01*
X157700466Y-105521412D01*
X157632371Y-105548374D01*
X157499508Y-105644905D01*
X157394825Y-105771445D01*
X157346368Y-105874421D01*
X156742626Y-105270679D01*
X156646328Y-105418075D01*
X156548138Y-105641926D01*
X156488130Y-105878894D01*
X156467945Y-106122494D01*
X156467945Y-106122505D01*
X154423500Y-106122505D01*
X154423499Y-105099628D01*
X154417091Y-105040017D01*
X154371098Y-104916704D01*
X154366797Y-104905171D01*
X154366793Y-104905164D01*
X154280547Y-104789955D01*
X154280544Y-104789952D01*
X154165335Y-104703706D01*
X154165328Y-104703702D01*
X154030482Y-104653408D01*
X154030483Y-104653408D01*
X153970883Y-104647001D01*
X153970881Y-104647000D01*
X153970873Y-104647000D01*
X153970864Y-104647000D01*
X151925129Y-104647000D01*
X151925123Y-104647001D01*
X151865516Y-104653408D01*
X151730671Y-104703702D01*
X151730664Y-104703706D01*
X151615455Y-104789952D01*
X151615452Y-104789955D01*
X151529206Y-104905164D01*
X151529202Y-104905171D01*
X151478908Y-105040017D01*
X151472501Y-105099616D01*
X151472501Y-105099623D01*
X151472500Y-105099635D01*
X151472500Y-107145370D01*
X144780500Y-107145370D01*
X144780500Y-82674000D01*
X144800185Y-82606961D01*
X144852989Y-82561206D01*
X144904500Y-82550000D01*
X177040500Y-82550000D01*
X177107539Y-82569685D01*
G37*
%TD.AperFunction*%
%TD*%
%TA.AperFunction,Conductor*%
%TO.N,DGND*%
G36*
X173743251Y-51455185D02*
G01*
X173789006Y-51507989D01*
X173798950Y-51577147D01*
X173769925Y-51640703D01*
X173731348Y-51669927D01*
X173731523Y-51670245D01*
X173729358Y-51671434D01*
X173729014Y-51671696D01*
X173728108Y-51672122D01*
X173463476Y-51817604D01*
X173463471Y-51817607D01*
X173238565Y-51981010D01*
X173238564Y-51981011D01*
X174168693Y-52911140D01*
X174154590Y-52918411D01*
X173989460Y-53048271D01*
X173851890Y-53207035D01*
X173817334Y-53266887D01*
X172887311Y-52336864D01*
X172806520Y-52434525D01*
X172806518Y-52434528D01*
X172644707Y-52689502D01*
X172644704Y-52689508D01*
X172516127Y-52962747D01*
X172516125Y-52962752D01*
X172422805Y-53249959D01*
X172366216Y-53546609D01*
X172366215Y-53546616D01*
X172347255Y-53847994D01*
X172347255Y-53848005D01*
X172366215Y-54149383D01*
X172366216Y-54149390D01*
X172422805Y-54446040D01*
X172516125Y-54733247D01*
X172516127Y-54733252D01*
X172644704Y-55006491D01*
X172644707Y-55006497D01*
X172806516Y-55261469D01*
X172887311Y-55359133D01*
X173816210Y-54430234D01*
X173916894Y-54571624D01*
X174068932Y-54716592D01*
X174171222Y-54782329D01*
X173238564Y-55714987D01*
X173238565Y-55714989D01*
X173463461Y-55878385D01*
X173463479Y-55878397D01*
X173728109Y-56023878D01*
X173728117Y-56023882D01*
X174008889Y-56135047D01*
X174008892Y-56135048D01*
X174301399Y-56210150D01*
X174600995Y-56247999D01*
X174601007Y-56248000D01*
X174902993Y-56248000D01*
X174903004Y-56247999D01*
X175202600Y-56210150D01*
X175495107Y-56135048D01*
X175495110Y-56135047D01*
X175775882Y-56023882D01*
X175775890Y-56023878D01*
X176040520Y-55878397D01*
X176040530Y-55878390D01*
X176265433Y-55714987D01*
X176265434Y-55714987D01*
X175335307Y-54784859D01*
X175349410Y-54777589D01*
X175514540Y-54647729D01*
X175652110Y-54488965D01*
X175686665Y-54429112D01*
X176616687Y-55359134D01*
X176697486Y-55261464D01*
X176859290Y-55006500D01*
X176928301Y-54859846D01*
X176974657Y-54807569D01*
X177041917Y-54788651D01*
X177108727Y-54809100D01*
X177153875Y-54862423D01*
X177164500Y-54912643D01*
X177164500Y-76076000D01*
X177144815Y-76143039D01*
X177092011Y-76188794D01*
X177040500Y-76200000D01*
X144904500Y-76200000D01*
X144837461Y-76180315D01*
X144791706Y-76127511D01*
X144780500Y-76076000D01*
X144780500Y-72390000D01*
X146922540Y-72390000D01*
X146942326Y-72578256D01*
X146942327Y-72578259D01*
X147000818Y-72758277D01*
X147000821Y-72758284D01*
X147095467Y-72922216D01*
X147222129Y-73062888D01*
X147375265Y-73174148D01*
X147375270Y-73174151D01*
X147548192Y-73251142D01*
X147548197Y-73251144D01*
X147733354Y-73290500D01*
X147733355Y-73290500D01*
X147922644Y-73290500D01*
X147922646Y-73290500D01*
X148107803Y-73251144D01*
X148280730Y-73174151D01*
X148433871Y-73062888D01*
X148560533Y-72922216D01*
X148655179Y-72758284D01*
X148713674Y-72578256D01*
X148733460Y-72390000D01*
X159114540Y-72390000D01*
X159134326Y-72578256D01*
X159134327Y-72578259D01*
X159192818Y-72758277D01*
X159192821Y-72758284D01*
X159287467Y-72922216D01*
X159414129Y-73062888D01*
X159567265Y-73174148D01*
X159567270Y-73174151D01*
X159740192Y-73251142D01*
X159740197Y-73251144D01*
X159925354Y-73290500D01*
X159925355Y-73290500D01*
X160114644Y-73290500D01*
X160114646Y-73290500D01*
X160299803Y-73251144D01*
X160472730Y-73174151D01*
X160625871Y-73062888D01*
X160752533Y-72922216D01*
X160847179Y-72758284D01*
X160905674Y-72578256D01*
X160925460Y-72390000D01*
X164194540Y-72390000D01*
X164214326Y-72578256D01*
X164214327Y-72578259D01*
X164272818Y-72758277D01*
X164272821Y-72758284D01*
X164367467Y-72922216D01*
X164494129Y-73062888D01*
X164647265Y-73174148D01*
X164647270Y-73174151D01*
X164820192Y-73251142D01*
X164820197Y-73251144D01*
X165005354Y-73290500D01*
X165005355Y-73290500D01*
X165194644Y-73290500D01*
X165194646Y-73290500D01*
X165379803Y-73251144D01*
X165552730Y-73174151D01*
X165705871Y-73062888D01*
X165832533Y-72922216D01*
X165927179Y-72758284D01*
X165985674Y-72578256D01*
X166005460Y-72390000D01*
X165985674Y-72201744D01*
X165927179Y-72021716D01*
X165832533Y-71857784D01*
X165705871Y-71717112D01*
X165705870Y-71717111D01*
X165552734Y-71605851D01*
X165552729Y-71605848D01*
X165379807Y-71528857D01*
X165379802Y-71528855D01*
X165234001Y-71497865D01*
X165194646Y-71489500D01*
X165005354Y-71489500D01*
X164972897Y-71496398D01*
X164820197Y-71528855D01*
X164820192Y-71528857D01*
X164647270Y-71605848D01*
X164647265Y-71605851D01*
X164494129Y-71717111D01*
X164367466Y-71857785D01*
X164272821Y-72021715D01*
X164272818Y-72021722D01*
X164214327Y-72201740D01*
X164214326Y-72201744D01*
X164194540Y-72390000D01*
X160925460Y-72390000D01*
X160905674Y-72201744D01*
X160847179Y-72021716D01*
X160752533Y-71857784D01*
X160625871Y-71717112D01*
X160625870Y-71717111D01*
X160472734Y-71605851D01*
X160472729Y-71605848D01*
X160299807Y-71528857D01*
X160299802Y-71528855D01*
X160154001Y-71497865D01*
X160114646Y-71489500D01*
X159925354Y-71489500D01*
X159892897Y-71496398D01*
X159740197Y-71528855D01*
X159740192Y-71528857D01*
X159567270Y-71605848D01*
X159567265Y-71605851D01*
X159414129Y-71717111D01*
X159287466Y-71857785D01*
X159192821Y-72021715D01*
X159192818Y-72021722D01*
X159134327Y-72201740D01*
X159134326Y-72201744D01*
X159114540Y-72390000D01*
X148733460Y-72390000D01*
X148713674Y-72201744D01*
X148655179Y-72021716D01*
X148560533Y-71857784D01*
X148433871Y-71717112D01*
X148433870Y-71717111D01*
X148280734Y-71605851D01*
X148280729Y-71605848D01*
X148107807Y-71528857D01*
X148107802Y-71528855D01*
X147962001Y-71497865D01*
X147922646Y-71489500D01*
X147733354Y-71489500D01*
X147700897Y-71496398D01*
X147548197Y-71528855D01*
X147548192Y-71528857D01*
X147375270Y-71605848D01*
X147375265Y-71605851D01*
X147222129Y-71717111D01*
X147095466Y-71857785D01*
X147000821Y-72021715D01*
X147000818Y-72021722D01*
X146942327Y-72201740D01*
X146942326Y-72201744D01*
X146922540Y-72390000D01*
X144780500Y-72390000D01*
X144780500Y-66548000D01*
X169782540Y-66548000D01*
X169802326Y-66736256D01*
X169802327Y-66736259D01*
X169860818Y-66916277D01*
X169860821Y-66916284D01*
X169955467Y-67080216D01*
X170082129Y-67220888D01*
X170235265Y-67332148D01*
X170235270Y-67332151D01*
X170408192Y-67409142D01*
X170408197Y-67409144D01*
X170593354Y-67448500D01*
X170593355Y-67448500D01*
X170782644Y-67448500D01*
X170782646Y-67448500D01*
X170967803Y-67409144D01*
X171140730Y-67332151D01*
X171293871Y-67220888D01*
X171420533Y-67080216D01*
X171515179Y-66916284D01*
X171573674Y-66736256D01*
X171593460Y-66548000D01*
X171573674Y-66359744D01*
X171515179Y-66179716D01*
X171420533Y-66015784D01*
X171293871Y-65875112D01*
X171293870Y-65875111D01*
X171140734Y-65763851D01*
X171140729Y-65763848D01*
X170967807Y-65686857D01*
X170967802Y-65686855D01*
X170822001Y-65655865D01*
X170782646Y-65647500D01*
X170593354Y-65647500D01*
X170560897Y-65654398D01*
X170408197Y-65686855D01*
X170408192Y-65686857D01*
X170235270Y-65763848D01*
X170235265Y-65763851D01*
X170082129Y-65875111D01*
X169955466Y-66015785D01*
X169860821Y-66179715D01*
X169860818Y-66179722D01*
X169819951Y-66305500D01*
X169802326Y-66359744D01*
X169782540Y-66548000D01*
X144780500Y-66548000D01*
X144780500Y-65405000D01*
X159749540Y-65405000D01*
X159769326Y-65593256D01*
X159769327Y-65593259D01*
X159827818Y-65773277D01*
X159827821Y-65773284D01*
X159922467Y-65937216D01*
X159993211Y-66015785D01*
X160049129Y-66077888D01*
X160202265Y-66189148D01*
X160202270Y-66189151D01*
X160375192Y-66266142D01*
X160375197Y-66266144D01*
X160560354Y-66305500D01*
X160560355Y-66305500D01*
X160749644Y-66305500D01*
X160749646Y-66305500D01*
X160934803Y-66266144D01*
X161107730Y-66189151D01*
X161260871Y-66077888D01*
X161387533Y-65937216D01*
X161482179Y-65773284D01*
X161540674Y-65593256D01*
X161560460Y-65405000D01*
X162289540Y-65405000D01*
X162309326Y-65593256D01*
X162309327Y-65593259D01*
X162367818Y-65773277D01*
X162367821Y-65773284D01*
X162462467Y-65937216D01*
X162533211Y-66015785D01*
X162589129Y-66077888D01*
X162742265Y-66189148D01*
X162742270Y-66189151D01*
X162915192Y-66266142D01*
X162915197Y-66266144D01*
X163100354Y-66305500D01*
X163100355Y-66305500D01*
X163289644Y-66305500D01*
X163289646Y-66305500D01*
X163474803Y-66266144D01*
X163647730Y-66189151D01*
X163800871Y-66077888D01*
X163927533Y-65937216D01*
X164022179Y-65773284D01*
X164080674Y-65593256D01*
X164100460Y-65405000D01*
X164080674Y-65216744D01*
X164022179Y-65036716D01*
X163927533Y-64872784D01*
X163800871Y-64732112D01*
X163800870Y-64732111D01*
X163647734Y-64620851D01*
X163647729Y-64620848D01*
X163474807Y-64543857D01*
X163474802Y-64543855D01*
X163329001Y-64512865D01*
X163289646Y-64504500D01*
X163100354Y-64504500D01*
X163067897Y-64511398D01*
X162915197Y-64543855D01*
X162915192Y-64543857D01*
X162742270Y-64620848D01*
X162742265Y-64620851D01*
X162589129Y-64732111D01*
X162462466Y-64872785D01*
X162367821Y-65036715D01*
X162367818Y-65036722D01*
X162309327Y-65216740D01*
X162309326Y-65216744D01*
X162289540Y-65405000D01*
X161560460Y-65405000D01*
X161540674Y-65216744D01*
X161482179Y-65036716D01*
X161387533Y-64872784D01*
X161260871Y-64732112D01*
X161260870Y-64732111D01*
X161107734Y-64620851D01*
X161107729Y-64620848D01*
X160934807Y-64543857D01*
X160934802Y-64543855D01*
X160789001Y-64512865D01*
X160749646Y-64504500D01*
X160560354Y-64504500D01*
X160527897Y-64511398D01*
X160375197Y-64543855D01*
X160375192Y-64543857D01*
X160202270Y-64620848D01*
X160202265Y-64620851D01*
X160049129Y-64732111D01*
X159922466Y-64872785D01*
X159827821Y-65036715D01*
X159827818Y-65036722D01*
X159769327Y-65216740D01*
X159769326Y-65216744D01*
X159749540Y-65405000D01*
X144780500Y-65405000D01*
X144780500Y-62420363D01*
X152764540Y-62420363D01*
X152784326Y-62608619D01*
X152784327Y-62608622D01*
X152842818Y-62788640D01*
X152842821Y-62788647D01*
X152937467Y-62952579D01*
X153064129Y-63093251D01*
X153217265Y-63204511D01*
X153217270Y-63204514D01*
X153390192Y-63281505D01*
X153390197Y-63281507D01*
X153575354Y-63320863D01*
X153575355Y-63320863D01*
X153764644Y-63320863D01*
X153764646Y-63320863D01*
X153949803Y-63281507D01*
X154122730Y-63204514D01*
X154275871Y-63093251D01*
X154402533Y-62952579D01*
X154497179Y-62788647D01*
X154555674Y-62608619D01*
X154575460Y-62420363D01*
X154555674Y-62232107D01*
X154497179Y-62052079D01*
X154402533Y-61888147D01*
X154275871Y-61747475D01*
X154271292Y-61744148D01*
X154122734Y-61636214D01*
X154122729Y-61636211D01*
X153949807Y-61559220D01*
X153949802Y-61559218D01*
X153804001Y-61528228D01*
X153764646Y-61519863D01*
X153575354Y-61519863D01*
X153542897Y-61526761D01*
X153390197Y-61559218D01*
X153390192Y-61559220D01*
X153217270Y-61636211D01*
X153217265Y-61636214D01*
X153064129Y-61747474D01*
X152937466Y-61888148D01*
X152842821Y-62052078D01*
X152842818Y-62052085D01*
X152784327Y-62232103D01*
X152784326Y-62232107D01*
X152764540Y-62420363D01*
X144780500Y-62420363D01*
X144780500Y-60960000D01*
X155304540Y-60960000D01*
X155324326Y-61148256D01*
X155324327Y-61148259D01*
X155382818Y-61328277D01*
X155382821Y-61328284D01*
X155477467Y-61492216D01*
X155502361Y-61519863D01*
X155604129Y-61632888D01*
X155757265Y-61744148D01*
X155757270Y-61744151D01*
X155930192Y-61821142D01*
X155930197Y-61821144D01*
X156115354Y-61860500D01*
X156115355Y-61860500D01*
X156304644Y-61860500D01*
X156304646Y-61860500D01*
X156489803Y-61821144D01*
X156662730Y-61744151D01*
X156815871Y-61632888D01*
X156942533Y-61492216D01*
X157037179Y-61328284D01*
X157095674Y-61148256D01*
X157115460Y-60960000D01*
X164194540Y-60960000D01*
X164214326Y-61148256D01*
X164214327Y-61148259D01*
X164272818Y-61328277D01*
X164272821Y-61328284D01*
X164367467Y-61492216D01*
X164392361Y-61519863D01*
X164494129Y-61632888D01*
X164647265Y-61744148D01*
X164647270Y-61744151D01*
X164820192Y-61821142D01*
X164820197Y-61821144D01*
X165005354Y-61860500D01*
X165005355Y-61860500D01*
X165194644Y-61860500D01*
X165194646Y-61860500D01*
X165379803Y-61821144D01*
X165552730Y-61744151D01*
X165705871Y-61632888D01*
X165832533Y-61492216D01*
X165927179Y-61328284D01*
X165985674Y-61148256D01*
X166005460Y-60960000D01*
X168004540Y-60960000D01*
X168024326Y-61148256D01*
X168024327Y-61148259D01*
X168082818Y-61328277D01*
X168082821Y-61328284D01*
X168177467Y-61492216D01*
X168202361Y-61519863D01*
X168304129Y-61632888D01*
X168457265Y-61744148D01*
X168457270Y-61744151D01*
X168630192Y-61821142D01*
X168630197Y-61821144D01*
X168815354Y-61860500D01*
X168815355Y-61860500D01*
X169004644Y-61860500D01*
X169004646Y-61860500D01*
X169189803Y-61821144D01*
X169362730Y-61744151D01*
X169515871Y-61632888D01*
X169642533Y-61492216D01*
X169737179Y-61328284D01*
X169795674Y-61148256D01*
X169815460Y-60960000D01*
X169795674Y-60771744D01*
X169737179Y-60591716D01*
X169642533Y-60427784D01*
X169515871Y-60287112D01*
X169515870Y-60287111D01*
X169362734Y-60175851D01*
X169362729Y-60175848D01*
X169189807Y-60098857D01*
X169189802Y-60098855D01*
X169044001Y-60067865D01*
X169004646Y-60059500D01*
X168815354Y-60059500D01*
X168782897Y-60066398D01*
X168630197Y-60098855D01*
X168630192Y-60098857D01*
X168457270Y-60175848D01*
X168457265Y-60175851D01*
X168304129Y-60287111D01*
X168177466Y-60427785D01*
X168082821Y-60591715D01*
X168082818Y-60591722D01*
X168024327Y-60771740D01*
X168024326Y-60771744D01*
X168004540Y-60960000D01*
X166005460Y-60960000D01*
X165985674Y-60771744D01*
X165927179Y-60591716D01*
X165832533Y-60427784D01*
X165705871Y-60287112D01*
X165705870Y-60287111D01*
X165552734Y-60175851D01*
X165552729Y-60175848D01*
X165379807Y-60098857D01*
X165379802Y-60098855D01*
X165234001Y-60067865D01*
X165194646Y-60059500D01*
X165005354Y-60059500D01*
X164972897Y-60066398D01*
X164820197Y-60098855D01*
X164820192Y-60098857D01*
X164647270Y-60175848D01*
X164647265Y-60175851D01*
X164494129Y-60287111D01*
X164367466Y-60427785D01*
X164272821Y-60591715D01*
X164272818Y-60591722D01*
X164214327Y-60771740D01*
X164214326Y-60771744D01*
X164194540Y-60960000D01*
X157115460Y-60960000D01*
X157095674Y-60771744D01*
X157037179Y-60591716D01*
X156942533Y-60427784D01*
X156815871Y-60287112D01*
X156815870Y-60287111D01*
X156662734Y-60175851D01*
X156662729Y-60175848D01*
X156489807Y-60098857D01*
X156489802Y-60098855D01*
X156344001Y-60067865D01*
X156304646Y-60059500D01*
X156115354Y-60059500D01*
X156082897Y-60066398D01*
X155930197Y-60098855D01*
X155930192Y-60098857D01*
X155757270Y-60175848D01*
X155757265Y-60175851D01*
X155604129Y-60287111D01*
X155477466Y-60427785D01*
X155382821Y-60591715D01*
X155382818Y-60591722D01*
X155324327Y-60771740D01*
X155324326Y-60771744D01*
X155304540Y-60960000D01*
X144780500Y-60960000D01*
X144780500Y-59317844D01*
X151050000Y-59317844D01*
X151056401Y-59377372D01*
X151056403Y-59377379D01*
X151106645Y-59512086D01*
X151106649Y-59512093D01*
X151192809Y-59627187D01*
X151192812Y-59627190D01*
X151307906Y-59713350D01*
X151307913Y-59713354D01*
X151442620Y-59763596D01*
X151442627Y-59763598D01*
X151502155Y-59769999D01*
X151502172Y-59770000D01*
X152150000Y-59770000D01*
X152150000Y-58855501D01*
X152257685Y-58904680D01*
X152364237Y-58920000D01*
X152435763Y-58920000D01*
X152542315Y-58904680D01*
X152650000Y-58855501D01*
X152650000Y-59770000D01*
X153297828Y-59770000D01*
X153297844Y-59769999D01*
X153357372Y-59763598D01*
X153357379Y-59763596D01*
X153492086Y-59713354D01*
X153492093Y-59713350D01*
X153607187Y-59627190D01*
X153607190Y-59627187D01*
X153693350Y-59512093D01*
X153693354Y-59512086D01*
X153742422Y-59380529D01*
X153784293Y-59324595D01*
X153849757Y-59300178D01*
X153918030Y-59315030D01*
X153946285Y-59336181D01*
X154068599Y-59458495D01*
X154145135Y-59512086D01*
X154262165Y-59594032D01*
X154262167Y-59594033D01*
X154262170Y-59594035D01*
X154476337Y-59693903D01*
X154704592Y-59755063D01*
X154875319Y-59770000D01*
X154939999Y-59775659D01*
X154940000Y-59775659D01*
X154940001Y-59775659D01*
X155004681Y-59770000D01*
X155175408Y-59755063D01*
X155403663Y-59693903D01*
X155617830Y-59594035D01*
X155811401Y-59458495D01*
X155978495Y-59291401D01*
X156108425Y-59105842D01*
X156163002Y-59062217D01*
X156232500Y-59055023D01*
X156294855Y-59086546D01*
X156311575Y-59105842D01*
X156441500Y-59291395D01*
X156441505Y-59291401D01*
X156608599Y-59458495D01*
X156685135Y-59512086D01*
X156802165Y-59594032D01*
X156802167Y-59594033D01*
X156802170Y-59594035D01*
X157016337Y-59693903D01*
X157244592Y-59755063D01*
X157415319Y-59770000D01*
X157479999Y-59775659D01*
X157480000Y-59775659D01*
X157480001Y-59775659D01*
X157544681Y-59770000D01*
X157715408Y-59755063D01*
X157943663Y-59693903D01*
X158157830Y-59594035D01*
X158351401Y-59458495D01*
X158518495Y-59291401D01*
X158648425Y-59105842D01*
X158703002Y-59062217D01*
X158772500Y-59055023D01*
X158834855Y-59086546D01*
X158851575Y-59105842D01*
X158981500Y-59291395D01*
X158981505Y-59291401D01*
X159148599Y-59458495D01*
X159225135Y-59512086D01*
X159342165Y-59594032D01*
X159342167Y-59594033D01*
X159342170Y-59594035D01*
X159556337Y-59693903D01*
X159784592Y-59755063D01*
X159955319Y-59770000D01*
X160019999Y-59775659D01*
X160020000Y-59775659D01*
X160020001Y-59775659D01*
X160084681Y-59770000D01*
X160255408Y-59755063D01*
X160483663Y-59693903D01*
X160697830Y-59594035D01*
X160891401Y-59458495D01*
X161058495Y-59291401D01*
X161188425Y-59105842D01*
X161243002Y-59062217D01*
X161312500Y-59055023D01*
X161374855Y-59086546D01*
X161391575Y-59105842D01*
X161521500Y-59291395D01*
X161521505Y-59291401D01*
X161688599Y-59458495D01*
X161765135Y-59512086D01*
X161882165Y-59594032D01*
X161882167Y-59594033D01*
X161882170Y-59594035D01*
X162096337Y-59693903D01*
X162324592Y-59755063D01*
X162495319Y-59770000D01*
X162559999Y-59775659D01*
X162560000Y-59775659D01*
X162560001Y-59775659D01*
X162624681Y-59770000D01*
X162795408Y-59755063D01*
X163023663Y-59693903D01*
X163237830Y-59594035D01*
X163431401Y-59458495D01*
X163598495Y-59291401D01*
X163728425Y-59105842D01*
X163783002Y-59062217D01*
X163852500Y-59055023D01*
X163914855Y-59086546D01*
X163931575Y-59105842D01*
X164061500Y-59291395D01*
X164061505Y-59291401D01*
X164228599Y-59458495D01*
X164305135Y-59512086D01*
X164422165Y-59594032D01*
X164422167Y-59594033D01*
X164422170Y-59594035D01*
X164636337Y-59693903D01*
X164864592Y-59755063D01*
X165035319Y-59770000D01*
X165099999Y-59775659D01*
X165100000Y-59775659D01*
X165100001Y-59775659D01*
X165164681Y-59770000D01*
X165335408Y-59755063D01*
X165563663Y-59693903D01*
X165777830Y-59594035D01*
X165971401Y-59458495D01*
X166138495Y-59291401D01*
X166268425Y-59105842D01*
X166323002Y-59062217D01*
X166392500Y-59055023D01*
X166454855Y-59086546D01*
X166471575Y-59105842D01*
X166601500Y-59291395D01*
X166601505Y-59291401D01*
X166768599Y-59458495D01*
X166845135Y-59512086D01*
X166962165Y-59594032D01*
X166962167Y-59594033D01*
X166962170Y-59594035D01*
X167176337Y-59693903D01*
X167404592Y-59755063D01*
X167575319Y-59770000D01*
X167639999Y-59775659D01*
X167640000Y-59775659D01*
X167640001Y-59775659D01*
X167704681Y-59770000D01*
X167875408Y-59755063D01*
X168103663Y-59693903D01*
X168317830Y-59594035D01*
X168511401Y-59458495D01*
X168678495Y-59291401D01*
X168808425Y-59105842D01*
X168863002Y-59062217D01*
X168932500Y-59055023D01*
X168994855Y-59086546D01*
X169011575Y-59105842D01*
X169141500Y-59291395D01*
X169141505Y-59291401D01*
X169308599Y-59458495D01*
X169385135Y-59512086D01*
X169502165Y-59594032D01*
X169502167Y-59594033D01*
X169502170Y-59594035D01*
X169716337Y-59693903D01*
X169944592Y-59755063D01*
X170115319Y-59770000D01*
X170179999Y-59775659D01*
X170180000Y-59775659D01*
X170180001Y-59775659D01*
X170244681Y-59770000D01*
X170415408Y-59755063D01*
X170643663Y-59693903D01*
X170857830Y-59594035D01*
X171051401Y-59458495D01*
X171218495Y-59291401D01*
X171354035Y-59097830D01*
X171453903Y-58883663D01*
X171515063Y-58655408D01*
X171535659Y-58420000D01*
X171515063Y-58184592D01*
X171453903Y-57956337D01*
X171354035Y-57742171D01*
X171348425Y-57734158D01*
X171218494Y-57548597D01*
X171051402Y-57381506D01*
X171051395Y-57381501D01*
X170857834Y-57245967D01*
X170857830Y-57245965D01*
X170786727Y-57212809D01*
X170643663Y-57146097D01*
X170643659Y-57146096D01*
X170643655Y-57146094D01*
X170415413Y-57084938D01*
X170415403Y-57084936D01*
X170180001Y-57064341D01*
X170179999Y-57064341D01*
X169944596Y-57084936D01*
X169944586Y-57084938D01*
X169716344Y-57146094D01*
X169716335Y-57146098D01*
X169502171Y-57245964D01*
X169502169Y-57245965D01*
X169308597Y-57381505D01*
X169141505Y-57548597D01*
X169011575Y-57734158D01*
X168956998Y-57777783D01*
X168887500Y-57784977D01*
X168825145Y-57753454D01*
X168808425Y-57734158D01*
X168678494Y-57548597D01*
X168511402Y-57381506D01*
X168511395Y-57381501D01*
X168317834Y-57245967D01*
X168317830Y-57245965D01*
X168246727Y-57212809D01*
X168103663Y-57146097D01*
X168103659Y-57146096D01*
X168103655Y-57146094D01*
X167875413Y-57084938D01*
X167875403Y-57084936D01*
X167640001Y-57064341D01*
X167639999Y-57064341D01*
X167404596Y-57084936D01*
X167404586Y-57084938D01*
X167176344Y-57146094D01*
X167176335Y-57146098D01*
X166962171Y-57245964D01*
X166962169Y-57245965D01*
X166768597Y-57381505D01*
X166601505Y-57548597D01*
X166471575Y-57734158D01*
X166416998Y-57777783D01*
X166347500Y-57784977D01*
X166285145Y-57753454D01*
X166268425Y-57734158D01*
X166138494Y-57548597D01*
X165971402Y-57381506D01*
X165971395Y-57381501D01*
X165777834Y-57245967D01*
X165777830Y-57245965D01*
X165706727Y-57212809D01*
X165563663Y-57146097D01*
X165563659Y-57146096D01*
X165563655Y-57146094D01*
X165335413Y-57084938D01*
X165335403Y-57084936D01*
X165100001Y-57064341D01*
X165099999Y-57064341D01*
X164864596Y-57084936D01*
X164864586Y-57084938D01*
X164636344Y-57146094D01*
X164636335Y-57146098D01*
X164422171Y-57245964D01*
X164422169Y-57245965D01*
X164228597Y-57381505D01*
X164061505Y-57548597D01*
X163931575Y-57734158D01*
X163876998Y-57777783D01*
X163807500Y-57784977D01*
X163745145Y-57753454D01*
X163728425Y-57734158D01*
X163598494Y-57548597D01*
X163431402Y-57381506D01*
X163431395Y-57381501D01*
X163237834Y-57245967D01*
X163237830Y-57245965D01*
X163166727Y-57212809D01*
X163023663Y-57146097D01*
X163023659Y-57146096D01*
X163023655Y-57146094D01*
X162795413Y-57084938D01*
X162795403Y-57084936D01*
X162560001Y-57064341D01*
X162559999Y-57064341D01*
X162324596Y-57084936D01*
X162324586Y-57084938D01*
X162096344Y-57146094D01*
X162096335Y-57146098D01*
X161882171Y-57245964D01*
X161882169Y-57245965D01*
X161688597Y-57381505D01*
X161521505Y-57548597D01*
X161391575Y-57734158D01*
X161336998Y-57777783D01*
X161267500Y-57784977D01*
X161205145Y-57753454D01*
X161188425Y-57734158D01*
X161058494Y-57548597D01*
X160891402Y-57381506D01*
X160891395Y-57381501D01*
X160697834Y-57245967D01*
X160697830Y-57245965D01*
X160626727Y-57212809D01*
X160483663Y-57146097D01*
X160483659Y-57146096D01*
X160483655Y-57146094D01*
X160255413Y-57084938D01*
X160255403Y-57084936D01*
X160020001Y-57064341D01*
X160019999Y-57064341D01*
X159784596Y-57084936D01*
X159784586Y-57084938D01*
X159556344Y-57146094D01*
X159556335Y-57146098D01*
X159342171Y-57245964D01*
X159342169Y-57245965D01*
X159148597Y-57381505D01*
X158981505Y-57548597D01*
X158851575Y-57734158D01*
X158796998Y-57777783D01*
X158727500Y-57784977D01*
X158665145Y-57753454D01*
X158648425Y-57734158D01*
X158518494Y-57548597D01*
X158351402Y-57381506D01*
X158351395Y-57381501D01*
X158157834Y-57245967D01*
X158157830Y-57245965D01*
X158086727Y-57212809D01*
X157943663Y-57146097D01*
X157943659Y-57146096D01*
X157943655Y-57146094D01*
X157715413Y-57084938D01*
X157715403Y-57084936D01*
X157480001Y-57064341D01*
X157479999Y-57064341D01*
X157244596Y-57084936D01*
X157244586Y-57084938D01*
X157016344Y-57146094D01*
X157016335Y-57146098D01*
X156802171Y-57245964D01*
X156802169Y-57245965D01*
X156608597Y-57381505D01*
X156441505Y-57548597D01*
X156311575Y-57734158D01*
X156256998Y-57777783D01*
X156187500Y-57784977D01*
X156125145Y-57753454D01*
X156108425Y-57734158D01*
X155978494Y-57548597D01*
X155811402Y-57381506D01*
X155811395Y-57381501D01*
X155617834Y-57245967D01*
X155617830Y-57245965D01*
X155546727Y-57212809D01*
X155403663Y-57146097D01*
X155403659Y-57146096D01*
X155403655Y-57146094D01*
X155175413Y-57084938D01*
X155175403Y-57084936D01*
X154940001Y-57064341D01*
X154939999Y-57064341D01*
X154704596Y-57084936D01*
X154704586Y-57084938D01*
X154476344Y-57146094D01*
X154476335Y-57146098D01*
X154262171Y-57245964D01*
X154262169Y-57245965D01*
X154068600Y-57381503D01*
X153946284Y-57503819D01*
X153884961Y-57537303D01*
X153815269Y-57532319D01*
X153759336Y-57490447D01*
X153742421Y-57459470D01*
X153693354Y-57327913D01*
X153693350Y-57327906D01*
X153607190Y-57212812D01*
X153607187Y-57212809D01*
X153492093Y-57126649D01*
X153492086Y-57126645D01*
X153357379Y-57076403D01*
X153357372Y-57076401D01*
X153297844Y-57070000D01*
X152650000Y-57070000D01*
X152650000Y-57984498D01*
X152542315Y-57935320D01*
X152435763Y-57920000D01*
X152364237Y-57920000D01*
X152257685Y-57935320D01*
X152150000Y-57984498D01*
X152150000Y-57070000D01*
X151502155Y-57070000D01*
X151442627Y-57076401D01*
X151442620Y-57076403D01*
X151307913Y-57126645D01*
X151307906Y-57126649D01*
X151192812Y-57212809D01*
X151192809Y-57212812D01*
X151106649Y-57327906D01*
X151106645Y-57327913D01*
X151056403Y-57462620D01*
X151056401Y-57462627D01*
X151050000Y-57522155D01*
X151050000Y-58170000D01*
X151966314Y-58170000D01*
X151940507Y-58210156D01*
X151900000Y-58348111D01*
X151900000Y-58491889D01*
X151940507Y-58629844D01*
X151966314Y-58670000D01*
X151050000Y-58670000D01*
X151050000Y-59317844D01*
X144780500Y-59317844D01*
X144780500Y-54581690D01*
X144800185Y-54514651D01*
X144852989Y-54468896D01*
X144922147Y-54458952D01*
X144985703Y-54487977D01*
X145022431Y-54543372D01*
X145084125Y-54733247D01*
X145084127Y-54733252D01*
X145212704Y-55006491D01*
X145212707Y-55006497D01*
X145374516Y-55261469D01*
X145455311Y-55359133D01*
X146384210Y-54430234D01*
X146484894Y-54571624D01*
X146636932Y-54716592D01*
X146739222Y-54782329D01*
X145806564Y-55714987D01*
X145806565Y-55714989D01*
X146031461Y-55878385D01*
X146031479Y-55878397D01*
X146296109Y-56023878D01*
X146296117Y-56023882D01*
X146576889Y-56135047D01*
X146576892Y-56135048D01*
X146869399Y-56210150D01*
X147168995Y-56247999D01*
X147169007Y-56248000D01*
X147470993Y-56248000D01*
X147471004Y-56247999D01*
X147770600Y-56210150D01*
X148063107Y-56135048D01*
X148063110Y-56135047D01*
X148343882Y-56023882D01*
X148343890Y-56023878D01*
X148608520Y-55878397D01*
X148608530Y-55878390D01*
X148833433Y-55714987D01*
X148833434Y-55714987D01*
X147903307Y-54784859D01*
X147917410Y-54777589D01*
X148082540Y-54647729D01*
X148220110Y-54488965D01*
X148254665Y-54429112D01*
X149184687Y-55359134D01*
X149265486Y-55261464D01*
X149427292Y-55006497D01*
X149427295Y-55006491D01*
X149555872Y-54733252D01*
X149555874Y-54733247D01*
X149649194Y-54446040D01*
X149705783Y-54149390D01*
X149705784Y-54149383D01*
X149724745Y-53848005D01*
X149724745Y-53847994D01*
X149705784Y-53546616D01*
X149705783Y-53546609D01*
X149649194Y-53249959D01*
X149555874Y-52962752D01*
X149555872Y-52962747D01*
X149427295Y-52689508D01*
X149427292Y-52689502D01*
X149265483Y-52434530D01*
X149184686Y-52336864D01*
X148255787Y-53265763D01*
X148155106Y-53124376D01*
X148003068Y-52979408D01*
X147900776Y-52913669D01*
X148833434Y-51981011D01*
X148833433Y-51981009D01*
X148608538Y-51817614D01*
X148608520Y-51817602D01*
X148343891Y-51672122D01*
X148342986Y-51671696D01*
X148342773Y-51671507D01*
X148340477Y-51670245D01*
X148340763Y-51669724D01*
X148290710Y-51625338D01*
X148271796Y-51558077D01*
X148292249Y-51491268D01*
X148345574Y-51446122D01*
X148395788Y-51435500D01*
X173676212Y-51435500D01*
X173743251Y-51455185D01*
G37*
%TD.AperFunction*%
%TA.AperFunction,Conductor*%
G36*
X146311251Y-51455185D02*
G01*
X146357006Y-51507989D01*
X146366950Y-51577147D01*
X146337925Y-51640703D01*
X146299348Y-51669927D01*
X146299523Y-51670245D01*
X146297358Y-51671434D01*
X146297014Y-51671696D01*
X146296108Y-51672122D01*
X146031476Y-51817604D01*
X146031471Y-51817607D01*
X145806565Y-51981010D01*
X145806564Y-51981011D01*
X146736693Y-52911140D01*
X146722590Y-52918411D01*
X146557460Y-53048271D01*
X146419890Y-53207035D01*
X146385334Y-53266887D01*
X145455311Y-52336864D01*
X145374520Y-52434525D01*
X145374518Y-52434528D01*
X145212707Y-52689502D01*
X145212704Y-52689508D01*
X145084127Y-52962747D01*
X145084125Y-52962752D01*
X145022431Y-53152627D01*
X144982993Y-53210303D01*
X144918635Y-53237501D01*
X144849788Y-53225586D01*
X144798313Y-53178342D01*
X144780500Y-53114309D01*
X144780500Y-52709873D01*
X144780882Y-52700146D01*
X144781719Y-52689508D01*
X144784964Y-52648278D01*
X144785004Y-52647795D01*
X144797286Y-52507416D01*
X144800235Y-52489305D01*
X144819162Y-52410469D01*
X144819901Y-52407559D01*
X144848133Y-52302196D01*
X144853343Y-52286848D01*
X144886637Y-52206469D01*
X144888754Y-52201656D01*
X144932336Y-52108196D01*
X144938954Y-52095878D01*
X144985572Y-52019806D01*
X144989673Y-52013552D01*
X145047608Y-51930812D01*
X145054843Y-51921468D01*
X145113323Y-51852996D01*
X145119883Y-51845900D01*
X145190900Y-51774883D01*
X145197996Y-51768323D01*
X145266468Y-51709843D01*
X145275812Y-51702608D01*
X145358552Y-51644673D01*
X145364806Y-51640572D01*
X145440878Y-51593954D01*
X145453196Y-51587336D01*
X145546656Y-51543754D01*
X145551469Y-51541637D01*
X145631853Y-51508341D01*
X145647196Y-51503133D01*
X145752559Y-51474901D01*
X145755469Y-51474162D01*
X145834305Y-51455235D01*
X145852416Y-51452286D01*
X145992790Y-51440005D01*
X145993342Y-51439959D01*
X146039382Y-51436335D01*
X146045148Y-51435882D01*
X146054874Y-51435500D01*
X146244212Y-51435500D01*
X146311251Y-51455185D01*
G37*
%TD.AperFunction*%
%TA.AperFunction,Conductor*%
G36*
X175899853Y-51435882D02*
G01*
X175902530Y-51436092D01*
X175951632Y-51439957D01*
X175952244Y-51440008D01*
X176092579Y-51452285D01*
X176110698Y-51455236D01*
X176189494Y-51474153D01*
X176192476Y-51474910D01*
X176297793Y-51503130D01*
X176313150Y-51508343D01*
X176341451Y-51520065D01*
X176393496Y-51541622D01*
X176398376Y-51543770D01*
X176491788Y-51587329D01*
X176504135Y-51593963D01*
X176580163Y-51640553D01*
X176586477Y-51644694D01*
X176669166Y-51702594D01*
X176678551Y-51709860D01*
X176746975Y-51768299D01*
X176754124Y-51774908D01*
X176825090Y-51845874D01*
X176831699Y-51853023D01*
X176890135Y-51921442D01*
X176897414Y-51930844D01*
X176955299Y-52013513D01*
X176959451Y-52019845D01*
X177006028Y-52095852D01*
X177012680Y-52108231D01*
X177056208Y-52201577D01*
X177058388Y-52206531D01*
X177091655Y-52286848D01*
X177096868Y-52302205D01*
X177125067Y-52407442D01*
X177125866Y-52410589D01*
X177144760Y-52489290D01*
X177147714Y-52507430D01*
X177159967Y-52647487D01*
X177160056Y-52648562D01*
X177164117Y-52700144D01*
X177164500Y-52709876D01*
X177164500Y-52783356D01*
X177144815Y-52850395D01*
X177092011Y-52896150D01*
X177022853Y-52906094D01*
X176959297Y-52877069D01*
X176928302Y-52836153D01*
X176859295Y-52689508D01*
X176859292Y-52689502D01*
X176697483Y-52434530D01*
X176616686Y-52336864D01*
X175687787Y-53265763D01*
X175587106Y-53124376D01*
X175435068Y-52979408D01*
X175332776Y-52913669D01*
X176265434Y-51981011D01*
X176265433Y-51981009D01*
X176040538Y-51817614D01*
X176040520Y-51817602D01*
X175775891Y-51672122D01*
X175774986Y-51671696D01*
X175774773Y-51671507D01*
X175772477Y-51670245D01*
X175772763Y-51669724D01*
X175722710Y-51625338D01*
X175703796Y-51558077D01*
X175724249Y-51491268D01*
X175777574Y-51446122D01*
X175827788Y-51435500D01*
X175890126Y-51435500D01*
X175899853Y-51435882D01*
G37*
%TD.AperFunction*%
%TD*%
M02*
